<svg width="130" height="130" viewBox="0 0 130 130" fill="none" xmlns="http://www.w3.org/2000/svg">
<path d="M97.4176 57.0291C97.4176 57.0291 97.3457 57.0291 97.3241 56.9783C96.7772 56.0785 97.691 55.2804 103.8 50.9048C107.023 48.5974 110.276 46.3697 113.477 44.1275L114.916 43.1189C114.916 43.1189 114.916 43.0754 114.916 43.0681L110.405 41.6169L101.361 38.5838C99.1301 37.8581 96.8564 37.1325 94.5971 36.4069L92.0428 35.5797L90.762 35.1661L90.4598 35.0645H90.4167L87.7328 36.8713C86.8262 37.5026 85.8837 38.0468 84.9411 38.6055L82.1205 40.2745L79.2425 41.8273C77.2494 42.952 75.1987 44.0042 73.1841 44.9983L65.6075 48.6264C63.0748 49.7874 60.5708 50.9702 58.0741 51.9933C52.7999 54.1702 47.7129 56.5139 42.3812 58.4804C38.6469 59.8736 34.6679 61.4772 30.8689 63.03C29.0413 63.7556 27.2712 64.3797 25.5156 65.04C20.9826 66.7089 16.4352 68.3634 11.8446 69.9597L9.00253 70.9538C8.91619 70.9538 8.79387 71.0046 8.77948 71.1207C8.7743 71.1456 8.77439 71.1714 8.77973 71.1963C8.78508 71.2212 8.79555 71.2446 8.81048 71.2652C8.82542 71.2857 8.84447 71.3028 8.8664 71.3155C8.88833 71.3281 8.91265 71.3359 8.93777 71.3384L20.1911 76.1493C22.803 77.274 25.5732 78.435 28.2498 79.5307C30.6242 80.503 32.8332 81.5842 35.0637 82.4332C37.4165 83.362 39.6758 84.3126 41.9423 85.3357L45.3529 86.7869L47.0582 87.5126L47.8208 87.8318C47.8685 87.8503 47.92 87.856 47.9704 87.8483C48.0209 87.8407 48.0685 87.82 48.1087 87.7883L54.0159 83.928C59.4771 80.4232 64.8088 76.737 70.306 73.3484C73.1841 71.5996 75.1484 70.6853 75.3426 71.1207C75.4721 71.44 74.8174 72.006 72.8675 73.3919C70.0325 75.4092 66.9962 77.303 64.0749 79.1969C59.0382 82.5348 54.1095 85.8799 48.9649 89.2105C48.7393 89.361 48.482 89.4564 48.2135 89.4891C47.945 89.5219 47.6726 89.4911 47.4179 89.3992L46.4609 89.0001L44.7557 88.2745L41.3379 86.8232L34.5025 83.9207L20.8315 78.1593L7.80812 72.7679C7.56442 72.6755 7.34393 72.5301 7.16234 72.342C6.98076 72.1538 6.84257 71.9276 6.75761 71.6795C6.68056 71.4379 6.65866 71.1819 6.69355 70.9306C6.72844 70.6793 6.81921 70.4392 6.95908 70.2282C7.29443 69.7948 7.76666 69.4901 8.2974 69.3647L9.3407 69.0019L13.2045 67.6305L20.9178 64.8151C26.048 62.9212 31.1711 60.9692 36.2509 58.9302C46.0436 54.9974 55.8363 50.9484 65.406 46.5293C69.5361 44.5847 73.6446 42.6037 77.6379 40.4486L80.6455 38.8232C81.6385 38.279 82.6026 37.6695 83.5812 37.0962C84.5597 36.523 85.5527 35.9643 86.4593 35.3039L89.3374 33.3738C89.6144 33.1634 89.9479 33.042 90.2943 33.0255C90.4786 33.0113 90.6639 33.0309 90.8412 33.0835C90.9269 33.101 91.0111 33.1252 91.093 33.1561L91.2369 33.1996L92.345 33.5552L94.5467 34.2808L112.866 40.1874L115.154 40.913L115.83 41.1307C116.177 41.2117 116.499 41.3732 116.773 41.6024C116.964 41.766 117.12 41.9671 117.232 42.1935C117.344 42.4199 117.409 42.6668 117.423 42.9193C117.437 43.1718 117.4 43.4246 117.314 43.6622C117.228 43.8998 117.096 44.1174 116.924 44.3017C116.802 44.4345 116.664 44.5515 116.514 44.65L116.111 44.9402L115.125 45.6658L113.146 47.0228L105.232 52.6028L100.281 56.1729C99.1013 57.0364 98.3962 57.479 98.0436 57.4355C97.691 57.3919 97.6551 57.1597 97.4176 57.0291Z" fill="#070C13"/>
<path d="M72.9256 44.0985C72.9185 44.0674 72.9185 44.0352 72.9256 44.0041C73.0407 43.4889 73.271 43.235 73.9761 43.2205C75.3104 43.2975 76.63 43.5412 77.9047 43.9461C80.0238 44.5149 82.103 45.2251 84.1286 46.0722C85.7804 46.7544 87.3818 47.5546 88.9206 48.4667C90.4808 49.3819 91.9401 50.4619 93.2737 51.6885C94.2902 52.5799 95.2356 53.5504 96.1015 54.591C96.6541 55.2775 97.1544 56.0052 97.5981 56.7678C98.0563 57.5437 98.444 58.3597 98.7565 59.2059C99.348 60.8567 99.7958 62.5562 100.095 64.2853C100.36 65.5327 100.55 66.7952 100.663 68.0658L100.836 70.4096L100.915 71.5415C100.944 72.0649 100.876 72.5891 100.714 73.0871C100.548 73.5921 100.284 74.0585 99.9365 74.4585C99.7619 74.6602 99.5665 74.8426 99.3537 75.0028C99.2575 75.0815 99.1566 75.1542 99.0515 75.2205L98.8141 75.3728C98.1809 75.7792 97.5477 76.171 96.9073 76.5411C94.2235 78.1084 91.7484 79.908 89.0429 81.439C87.1506 82.513 85.1935 83.7973 83.3515 85.0672C82.4593 85.6767 81.5815 86.1629 80.6965 86.7071L79.61 87.3674L78.7825 87.8826C78.49 88.0798 78.154 88.2018 77.804 88.2381C77.4749 88.2622 77.1454 88.1984 76.8486 88.0532C76.5517 87.908 76.2981 87.6865 76.1131 87.4109C75.9299 87.14 75.823 86.824 75.8037 86.4966C75.7799 86.1452 75.8442 85.7933 75.9908 85.4735L76.3865 84.5447C76.4729 84.3415 76.5304 84.1239 76.6024 83.9207C76.7554 83.5015 76.8804 83.0724 76.9765 82.6363C77.7315 79.464 77.5311 76.1367 76.4009 73.0799C76.1558 72.4008 75.8114 71.7625 75.3792 71.186C75.1429 70.894 74.8881 70.6177 74.6165 70.3588L73.8034 69.5316C73.3285 69.0454 72.8105 68.61 72.3644 68.1456C72.1269 67.9207 71.8967 67.6885 71.6449 67.4708C71.393 67.2531 71.134 67.0717 70.875 66.8903L67.6083 64.561C65.4239 63.1261 63.153 61.8295 60.8088 60.679C57.6789 59.0753 54.3907 57.8781 51.1744 56.5066C49.5051 55.781 48.4906 55.1425 48.6705 54.7216C48.8 54.4096 49.2964 54.4386 50.5628 54.7796C52.4144 55.3317 54.2289 56.0031 55.9952 56.7896C59.0619 58.0136 62.0491 59.4314 64.9389 61.0345C67.3403 62.3696 69.6353 63.8907 71.8032 65.5842L72.6162 66.2227L73.4005 66.9483C73.9042 67.42 74.4582 67.8409 74.9331 68.3561L76.3721 69.8654C76.8587 70.4412 77.2698 71.0777 77.5953 71.7592C78.6075 73.9826 79.1256 76.4021 79.1135 78.8486C79.1245 80.0664 79.0112 81.2822 78.7753 82.4767C78.6614 83.0728 78.5124 83.6616 78.3292 84.24L78.0486 85.1035L77.804 85.6912C77.732 85.8291 77.6601 86.0177 77.804 86.1483C77.8327 86.1775 77.8669 86.2007 77.9046 86.2165C77.9423 86.2323 77.9826 86.2404 78.0234 86.2404C78.0642 86.2404 78.1046 86.2323 78.1423 86.2165C78.1799 86.2007 78.2141 86.1775 78.2429 86.1483L80.4015 84.7987L85.359 81.6277L92.6621 76.9547L96.3245 74.6254L98.1089 73.4862C98.5292 73.1848 98.8199 72.7334 98.922 72.2236C98.9639 71.9325 98.9639 71.6368 98.922 71.3456L98.8572 70.2644C98.8069 69.5388 98.7421 68.8132 98.6702 68.0876C98.5232 66.6523 98.3023 65.2257 98.0082 63.8137C97.7342 62.4229 97.3418 61.0585 96.8354 59.7357C96.3099 58.4527 95.6153 57.2469 94.7704 56.1511C92.6522 53.5019 90.0076 51.3292 87.0067 49.7728C83.9669 48.183 80.7559 46.9511 77.437 46.1012C76.3721 45.8472 75.2785 45.5787 74.2351 45.3756C73.4653 45.2304 73.0407 45.0926 72.9472 44.8313C72.9043 44.5895 72.897 44.3425 72.9256 44.0985Z" fill="#070C13"/>
<path d="M67.9675 82.4261C66.7227 83.0066 65.8521 84.095 64.7224 84.8279C62.8517 86.0397 60.9521 87.2224 59.1749 88.5649C57.3977 89.9073 55.7787 91.0247 54.0375 92.193L51.4112 93.9272L50.1017 94.7617L49.7779 94.9794C49.6336 95.0861 49.4765 95.1739 49.3102 95.2406C49.1437 95.3016 48.9667 95.3279 48.7899 95.3179C48.613 95.3079 48.44 95.2619 48.2813 95.1825L46.4321 94.3553C41.3955 92.1349 36.2221 90.1902 30.9768 88.485C27.9404 87.4982 25.2206 85.793 22.2345 84.6029C18.0973 82.9413 13.9744 81.2506 9.77961 79.7558C8.67873 79.3567 7.62103 78.8995 6.53455 78.4206L5.52002 77.9707C5.08162 77.7996 4.71894 77.4751 4.4983 77.0565C4.30161 76.6414 4.27069 76.166 4.41196 75.7286C4.56214 75.287 4.86647 74.9156 5.26819 74.6837L5.98771 74.2483L6.50577 73.9218C6.85114 73.7041 7.18932 73.4719 7.5275 73.2397C7.86275 73.0143 8.16959 72.7488 8.44129 72.4487C8.90179 71.8973 9.45582 72.1512 9.88034 72.5503C10.3048 72.9494 9.99546 73.3558 9.59973 73.6025L6.28272 75.6488C6.13162 75.7431 5.95893 75.8447 5.90857 76.0261C5.87844 76.1115 5.87122 76.2035 5.88764 76.2927C5.90407 76.3819 5.94355 76.4651 6.00211 76.534C6.14166 76.657 6.31009 76.7419 6.49138 76.7807L7.29725 77.0782L9.06728 77.7458L12.6073 79.1027C14.9625 80.017 17.3058 80.9555 19.6371 81.9181C22.0762 82.9268 24.4363 84.095 26.9114 85.0093C30.0198 86.1485 33.0922 87.4039 36.1933 88.5794C39.4743 89.8129 42.7554 91.0102 45.9429 92.505L48.749 93.8039C48.7836 93.818 48.8223 93.818 48.8569 93.8039C48.9073 93.8039 48.8569 93.8039 49.1375 93.637L50.3032 92.846L52.62 91.2424L57.2538 88.0279C60.0599 86.076 62.7509 83.9644 65.629 82.1213C69.5001 79.6324 73.0545 76.6936 77.0119 74.3281C77.53 74.0161 77.8178 74.3716 78.0912 74.7199C78.1466 74.7737 78.1885 74.84 78.2133 74.9134C78.2382 74.9867 78.2453 75.065 78.234 75.1417C78.2227 75.2184 78.1935 75.2913 78.1486 75.3542C78.1037 75.4172 78.0446 75.4684 77.9761 75.5036L67.9531 82.4261H67.9675Z" fill="#070C13"/>
<path d="M68.7379 85.3865C67.5507 85.9742 66.752 87.0554 65.6799 87.7955C63.9099 89.0146 62.0823 90.2046 60.4418 91.5543C58.6214 93.0055 56.7219 94.3987 54.8079 95.7484L51.9298 97.7656L50.4908 98.7742L49.7712 99.2894C49.4921 99.5496 49.1222 99.6879 48.7423 99.674C48.5722 99.6641 48.4058 99.6197 48.2531 99.5434C43.4754 97.3665 38.6906 95.5017 33.7618 93.8327C30.8478 92.8459 28.2287 91.1552 25.3938 89.9651C21.4292 88.3107 17.479 86.6273 13.4569 85.1325C12.0178 84.6028 10.6579 83.9497 9.2764 83.3039L8.24748 82.825L7.72942 82.5856C7.42899 82.4733 7.13987 82.3324 6.86599 82.1647C6.62186 82.0097 6.41975 81.7959 6.27783 81.5426C6.13591 81.2892 6.05863 81.0043 6.05293 80.7134C6.05024 80.4123 6.12102 80.1152 6.25904 79.8482C6.39707 79.5812 6.59809 79.3526 6.84441 79.1824L6.94514 79.1026L7.37685 78.7978C7.46458 78.7376 7.54868 78.6722 7.62869 78.6019C7.76877 78.4824 7.89873 78.3513 8.01723 78.21C8.46334 77.6803 8.99578 77.9416 9.38433 78.3479C9.77287 78.7543 9.50665 79.1461 9.1253 79.3783L7.99564 80.1039C7.80137 80.2128 7.59991 80.3434 7.56393 80.5756C7.54055 80.6845 7.54998 80.7979 7.591 80.9013C7.63203 81.0048 7.70279 81.0935 7.79418 81.1561C7.88999 81.2123 7.99125 81.2585 8.09638 81.2939L8.47053 81.4391L9.43469 81.8236C13.9749 83.5724 18.4935 85.3865 22.969 87.3094C25.3002 88.3107 27.5595 89.4862 29.934 90.386C32.9128 91.5325 35.8557 92.7806 38.8345 93.9488C41.9716 95.1824 45.1303 96.3724 48.1883 97.8672L48.5193 98.0268L48.6848 98.1066L48.7639 98.1502C48.7722 98.1634 48.784 98.1738 48.7981 98.1803C48.8122 98.1867 48.8278 98.1889 48.8431 98.1865C48.8431 98.1865 48.8431 98.1865 48.9078 98.1865L49.246 97.947L50.5483 96.9384L53.2106 95.001L58.5135 91.0826C61.1613 89.1234 63.694 87.0046 66.4282 85.147C70.0906 82.6436 73.4292 79.6976 77.1707 77.3175C77.6672 77.0055 77.9622 77.3175 78.25 77.6876C78.3069 77.738 78.3511 77.8014 78.3787 77.8725C78.4064 77.9436 78.4168 78.0204 78.409 78.0964C78.4013 78.1724 78.3756 78.2454 78.3342 78.3093C78.2927 78.3733 78.2368 78.4263 78.1709 78.464L68.7235 85.3719L68.7379 85.3865Z" fill="#070C13"/>
<path d="M68.3851 89.9216C67.2483 90.5311 66.5144 91.6196 65.507 92.367C63.8233 93.615 62.1109 94.8341 60.5279 96.1982C57.067 99.1951 53.3327 101.778 49.7351 104.615C49.5418 104.789 49.3011 104.9 49.0444 104.934C48.7877 104.967 48.5269 104.922 48.296 104.804C43.9789 102.685 39.6114 100.842 35.1287 99.166C32.3226 98.1212 29.833 96.3724 27.1132 95.1243C23.3069 93.3901 19.5151 91.6196 15.644 90.045C14.2697 89.4862 12.953 88.8041 11.6363 88.1293C10.9743 87.7955 10.3195 87.4617 9.65041 87.1425L9.03882 86.8595C8.75355 86.7511 8.49022 86.5913 8.26173 86.3878C8.04925 86.1816 7.88875 85.9271 7.79362 85.6457C7.69849 85.3642 7.6715 85.0638 7.71489 84.7697C7.80445 84.2659 8.05757 83.8064 8.43442 83.4636L8.71503 83.1951L8.93808 82.9774C8.98922 82.9373 9.04475 82.9032 9.10357 82.8758C9.21506 82.8295 9.33687 82.8145 9.45614 82.8323C9.71404 82.8964 9.95012 83.0292 10.1397 83.2168C10.5786 83.6377 10.3051 84.0078 9.94542 84.2545L9.57126 84.523C9.44921 84.5748 9.34584 84.663 9.27508 84.7759C9.20432 84.8888 9.16957 85.0208 9.17553 85.1543C9.1964 85.2852 9.25546 85.4068 9.34516 85.5037C9.43486 85.6007 9.55114 85.6685 9.67919 85.6985L10.6937 86.1556L11.8161 86.6418C16.1837 88.4849 20.5224 90.3933 24.8108 92.4468C27.0485 93.4989 29.2142 94.7107 31.4951 95.6685C34.3732 96.8731 37.1866 98.1865 40.0503 99.4128C41.5397 100.059 43.0291 100.69 44.5113 101.35C45.2308 101.684 45.9504 102.018 46.7203 102.373L47.8139 102.91L48.3608 103.186L48.627 103.324C48.7133 103.367 48.8429 103.433 48.8069 103.425C48.8139 103.436 48.8235 103.445 48.8348 103.452C48.8461 103.458 48.8587 103.461 48.8716 103.462L48.9508 103.396L49.289 103.142L50.6417 102.119L53.3183 100.037L58.6284 95.8209C61.1467 93.8327 63.5355 91.6776 66.1258 89.7837C69.6083 87.2368 72.7598 84.2472 76.3287 81.8019C76.8036 81.4826 77.113 81.8019 77.408 82.1429C77.4666 82.1907 77.5131 82.2518 77.5436 82.3212C77.5742 82.3907 77.5879 82.4664 77.5837 82.5423C77.5795 82.6181 77.5574 82.6919 77.5194 82.7575C77.4813 82.823 77.4283 82.8785 77.3648 82.9193L68.3923 89.9506L68.3851 89.9216Z" fill="#070C13"/>
<path d="M68.0108 94.6601C66.8308 95.2986 66.0537 96.4233 64.996 97.207C63.2476 98.5059 61.4703 99.7757 59.8226 101.198C58.0526 102.729 56.225 104.166 54.3471 105.552L51.5481 107.663L50.1522 108.723L49.8069 108.991C49.6621 109.118 49.4997 109.223 49.3248 109.303C49.1479 109.375 48.9574 109.407 48.7671 109.395C48.5767 109.384 48.3912 109.33 48.2239 109.238L48.0009 109.122C43.1741 106.72 38.2294 104.567 33.1859 102.671C30.3078 101.568 27.6743 99.7685 24.8466 98.4623C20.8892 96.6483 16.9318 94.8342 12.9241 93.1508C11.5714 92.592 10.2762 91.9317 8.9811 91.2714L8.00975 90.7707L7.37657 90.4805C7.11036 90.3653 6.86669 90.2031 6.65704 90.0016C6.45991 89.8013 6.31225 89.557 6.22601 89.2885C6.13977 89.02 6.11735 88.7348 6.16057 88.456C6.20958 88.173 6.32275 87.9053 6.49124 87.6737C6.65973 87.4421 6.87899 87.2529 7.13193 87.1208C7.37657 86.9757 7.69316 86.7943 7.78669 86.729C8.12869 86.5296 8.44319 86.2856 8.72207 86.0034C9.19696 85.4882 9.72941 85.7712 10.0963 86.192C10.4633 86.6129 10.1755 86.9975 9.77978 87.2224L8.09609 88.144C7.9306 88.2383 7.74352 88.3254 7.67157 88.514C7.63407 88.6021 7.61967 88.6984 7.62975 88.7937C7.63983 88.8891 7.67406 88.9801 7.72913 89.0583C7.8593 89.1991 8.02649 89.2998 8.21121 89.3485L8.93074 89.675C13.4709 91.6052 17.9823 93.6007 22.4506 95.705C24.7746 96.8007 27.0267 98.056 29.4012 99.0646C32.38 100.327 35.3157 101.691 38.2873 102.983C41.4316 104.34 44.5831 105.661 47.6411 107.271L48.7636 107.874C48.7751 107.887 48.7896 107.897 48.8059 107.903C48.8222 107.91 48.8398 107.912 48.8571 107.91H48.9075L48.9794 107.852L49.1377 107.736L50.3969 106.763L52.908 104.797L57.9015 100.828C60.5134 98.7526 63.0101 96.5177 65.694 94.544C69.2916 91.8809 72.6014 88.7825 76.3141 86.2356C76.7962 85.9018 77.1128 86.2356 77.4078 86.5694C77.4657 86.6189 77.5112 86.6816 77.5406 86.7523C77.5699 86.8229 77.5823 86.8996 77.5766 86.976C77.571 87.0524 77.5476 87.1263 77.5083 87.1919C77.4689 87.2574 77.4148 87.3126 77.3502 87.353L67.9964 94.6818L68.0108 94.6601Z" fill="#070C13"/>
<path d="M114.938 45.6079C115.323 45.7834 115.739 45.882 116.161 45.8981C116.607 45.9852 117.046 46.065 117.485 46.1666L117.816 46.2464C117.907 46.2636 117.996 46.2879 118.082 46.319C118.122 46.3334 118.158 46.3586 118.184 46.3919C118.211 46.4252 118.228 46.4652 118.234 46.5077C118.246 46.56 118.241 46.6149 118.221 46.6644C118.2 46.714 118.164 46.7556 118.118 46.7834C118.118 46.7834 117.874 46.9213 117.737 47.0011L117.262 47.2913C116.848 47.5936 116.413 47.8652 115.96 48.104C115.824 48.255 115.657 48.3739 115.471 48.4523C114.032 49.3449 112.808 50.4841 111.333 51.304C110.866 51.5653 110.384 51.8192 109.937 52.124C109.103 52.6755 108.29 53.2632 107.462 53.8365C107.368 53.8751 107.276 53.9212 107.189 53.9743C106.405 54.4895 105.599 54.9902 104.85 55.5562C104.282 55.9916 103.678 56.3762 103.095 56.7825C102.512 57.1888 101.742 57.7621 101.044 58.2337C100.224 58.7016 99.4927 59.3135 98.8856 60.0405H98.8496C99.0079 60.4614 99.3461 60.5557 99.6411 60.7009C99.7213 60.7667 99.8236 60.7989 99.9267 60.7908C100.03 60.7827 100.126 60.7349 100.195 60.6573C100.319 60.5129 100.462 60.386 100.62 60.28C101.095 59.9172 101.685 59.7358 102.159 59.3657C102.634 58.9956 102.958 58.6401 103.383 58.3498C104.383 57.6242 105.383 56.8986 106.405 56.173C107.124 55.6868 107.844 55.2659 108.563 54.7943C109.283 54.3226 110.146 53.7349 110.909 53.1689C111.499 52.7335 112.175 52.4433 112.736 51.9644C113.031 51.667 113.384 51.4348 113.773 51.2823C114.193 50.9324 114.646 50.6238 115.125 50.3607C115.492 50.1285 115.895 49.9471 116.284 49.7439C117.003 49.1997 117.823 48.7353 118.601 48.2346L118.888 48.046C119.061 47.9336 119.212 47.791 119.334 47.6251C119.586 47.2736 119.69 46.8357 119.623 46.4074C119.555 45.979 119.322 45.595 118.975 45.3394C118.803 45.2154 118.611 45.1243 118.406 45.0709L118.054 44.9911C117.334 44.846 116.615 44.7081 115.938 44.5848C115.751 44.5848 115.579 44.4179 115.363 44.4977C114.96 44.621 114.888 45.1362 114.938 45.6079Z" fill="#070C13"/>
<path d="M117.291 48.6846C117.445 48.7962 117.622 48.8729 117.809 48.9095C117.996 48.9095 118.226 48.9748 118.248 48.9893C118.321 49.0215 118.38 49.0805 118.412 49.1546C118.444 49.2286 118.447 49.3122 118.42 49.3884C118.407 49.4297 118.386 49.4679 118.357 49.5003C118.329 49.5328 118.294 49.559 118.255 49.5771C118.082 49.6859 117.91 49.7875 117.73 49.8818C117.14 50.2084 116.557 50.5422 115.996 50.9122C115.629 51.184 115.241 51.4266 114.837 51.6379C114.744 51.812 114.564 51.8628 114.413 51.9644C113.154 52.7843 112.067 53.851 110.75 54.5984C110.333 54.8379 109.901 55.0773 109.506 55.324C108.786 55.8392 108.067 56.3762 107.347 56.9059C107.261 56.9382 107.179 56.9795 107.102 57.0292C106.383 57.5081 105.663 57.9653 105.03 58.4805C104.526 58.8796 103.994 59.2061 103.483 59.6125C102.972 60.0188 102.289 60.5195 101.67 60.9476C100.93 61.3789 100.28 61.9506 99.756 62.631C99.921 62.9483 100.202 63.1879 100.54 63.2986C100.756 63.4075 100.936 63.4002 101.051 63.2261C101.155 63.0918 101.279 62.9744 101.418 62.8778C101.843 62.5367 102.375 62.3771 102.792 62.036C103.21 61.695 103.512 61.3757 103.865 61.0855C104.742 60.3961 105.627 59.7068 106.527 59.0537C107.153 58.6038 107.822 58.2193 108.455 57.7839C109.088 57.3485 109.851 56.8043 110.527 56.2818C111.045 55.8755 111.657 55.607 112.146 55.1644C112.403 54.8897 112.718 54.6765 113.067 54.5403C113.433 54.2115 113.833 53.9243 114.262 53.6841C114.585 53.4664 114.981 53.3068 115.298 53.1181C115.953 52.6102 116.665 52.1821 117.356 51.7177L118.37 50.992L118.867 50.6365L119.133 50.4478C119.451 50.2106 119.672 49.8636 119.753 49.4728C119.834 49.0821 119.769 48.6749 119.572 48.329C119.422 48.0668 119.2 47.8548 118.931 47.7195C118.814 47.6537 118.688 47.6049 118.557 47.5744L118.32 47.5236C118.154 47.5236 118.01 47.3494 117.809 47.422C117.384 47.705 117.276 48.2202 117.291 48.6846Z" fill="#070C13"/>
<path d="M119.025 50.223C119.426 50.4262 119.86 50.5541 120.306 50.6004L120.659 50.6874L120.831 50.731H120.918C120.961 50.7494 120.999 50.7771 121.03 50.8123C121.061 50.8474 121.084 50.889 121.098 50.9342C121.116 50.9817 121.123 51.0332 121.116 51.0839C121.11 51.1346 121.091 51.183 121.062 51.2244C121.035 51.2629 121.001 51.2951 120.961 51.3187L120.673 51.5001C119.954 51.9065 119.32 52.3274 118.666 52.7772C118.241 53.1205 117.791 53.431 117.32 53.706C117.183 53.8696 117.014 54.003 116.824 54.0979C115.385 55.1137 114.082 56.3618 112.564 57.3051C112.075 57.6099 111.585 57.9074 111.125 58.2412C110.269 58.8725 109.434 59.5255 108.585 60.1713C108.485 60.2174 108.389 60.2707 108.297 60.331C107.491 60.9187 106.664 61.4847 105.894 62.116C105.304 62.6022 104.692 63.0376 104.088 63.502C103.484 63.9664 102.692 64.5904 101.98 65.1128C101.11 65.668 100.34 66.37 99.7061 67.1881C99.8788 67.609 100.231 67.6815 100.541 67.8049C100.635 67.8609 100.747 67.8785 100.854 67.8542C100.961 67.83 101.055 67.7657 101.116 67.6743C101.244 67.5201 101.389 67.3813 101.548 67.2607C102.037 66.8543 102.656 66.6294 103.138 66.2158C103.62 65.8022 103.958 65.4394 104.397 65.0838C105.419 64.2566 106.448 63.4294 107.506 62.6312C108.225 62.0797 109.002 61.6008 109.736 61.0639C110.47 60.5269 111.362 59.8738 112.154 59.2353C112.758 58.7491 113.456 58.3936 114.032 57.8711C114.338 57.5628 114.699 57.3165 115.097 57.1455C115.529 56.7543 115.996 56.4044 116.493 56.1006C116.867 55.8394 117.284 55.6217 117.687 55.375C118.457 54.7582 119.284 54.2285 120.083 53.6625L121.256 52.8135L121.551 52.5958L121.695 52.487L121.767 52.4362L121.896 52.3274C122.112 52.1321 122.272 51.8817 122.358 51.6026C122.445 51.3235 122.455 51.026 122.388 50.7414C122.321 50.4569 122.179 50.1958 121.978 49.9858C121.776 49.7758 121.521 49.6246 121.241 49.5482L120.126 49.2797C119.925 49.2289 119.752 49.0911 119.515 49.1564C119.083 49.2362 118.989 49.7732 119.025 50.223Z" fill="#070C13"/>
<path d="M117.464 59.4093C117.032 59.7358 116.572 60.0334 116.154 60.3671C115.737 60.7009 115.082 61.1726 114.579 61.6152C114.075 62.0578 113.73 62.29 113.305 62.6238C113.118 62.7762 112.924 62.9286 112.751 63.0882C112.29 63.5018 111.787 63.8574 111.312 64.242C110.837 64.6266 110.362 64.9676 109.873 65.3594C109.384 65.7513 108.995 66.0415 108.542 66.3608C108.088 66.6801 107.549 67.0864 107.045 67.5C106.326 68.037 105.606 68.5957 104.887 69.169C104.167 69.7422 103.519 70.2937 102.8 70.8089C102.347 71.1426 101.915 71.5345 101.447 71.8465C100.98 72.1585 100.476 72.5721 100.008 72.8841C99.6342 73.1381 99.4111 73.1309 99.1881 72.9422C99.0729 72.8479 98.9218 72.7826 98.8571 72.6302C98.7923 72.4778 98.8571 72.4125 99.001 72.2819C100.497 71.0991 101.973 69.9018 103.491 68.7481C104.541 67.9354 105.585 67.1009 106.621 66.2665L109.693 63.8429L111.852 62.1231C112.607 61.5136 113.399 60.9476 114.183 60.3744L118.809 56.8987C119.961 56.0352 121.097 55.1499 122.263 54.3009L122.501 54.1268L122.58 54.0615C122.618 54.0161 122.643 53.9608 122.652 53.9018C122.661 53.8358 122.65 53.7684 122.621 53.7087C122.591 53.6491 122.544 53.6 122.486 53.568H122.385L122.141 53.5245L121.637 53.4374L120.63 53.2488C120.133 53.1617 120.069 53.0964 120.083 52.7699C120.108 52.59 120.169 52.4171 120.263 52.2619C120.313 52.1603 120.428 52.1386 120.587 52.1676L122.105 52.4216L122.515 52.4869C122.728 52.5214 122.931 52.6005 123.112 52.7191C123.291 52.8461 123.438 53.0137 123.542 53.2084C123.645 53.403 123.702 53.6193 123.707 53.8401C123.713 54.0608 123.667 54.2798 123.574 54.4795C123.48 54.6792 123.342 54.8541 123.17 54.9903C122.939 55.1717 122.724 55.3386 122.508 55.52C122.162 55.8175 121.788 56.086 121.421 56.3544C120.428 57.0801 119.464 57.9 118.478 58.6619L117.464 59.4093Z" fill="#070C13"/>
<path d="M59.5067 81.3591C54.765 75.4453 44.2672 78.326 42.2381 78.9428C42.1294 78.9792 42.0143 78.9921 41.9003 78.9809C41.7863 78.9696 41.6758 78.9344 41.5761 78.8775L27.9052 71.5415C27.8018 71.4886 27.7098 71.4154 27.6348 71.3263C27.5598 71.2371 27.5032 71.1337 27.4684 71.0222C27.4335 70.9107 27.4211 70.7932 27.4319 70.6768C27.4426 70.5604 27.4763 70.4473 27.531 70.3442C29.15 67.6086 26.6964 63.458 26.6964 63.458L8.45648 70.453V72.6299L48.7498 88.5936L59.5067 81.3591Z" fill="#070C13"/>
<path d="M45.6166 66.5817C46.1149 66.5295 46.621 66.5295 47.1193 66.5817C47.7926 66.6391 48.4358 66.8164 48.9913 67.0979C49.6096 67.389 50.0897 67.8105 50.3666 68.3054C50.5347 68.6351 50.5915 68.9891 50.5321 69.3378C50.4499 69.8006 50.2695 70.2515 49.9973 70.6744C49.8517 70.8893 49.6768 71.0932 49.4752 71.2828C49.3028 71.4398 49.1063 71.5821 48.8894 71.7069C48.337 71.9659 47.758 72.1939 47.1575 72.389C46.5897 72.6714 45.9411 72.8574 45.2601 72.9328C44.0307 72.9973 42.8026 72.7951 41.7327 72.3521C41.0093 72.0639 40.4316 71.6162 40.0835 71.0742C39.7355 70.5322 39.6351 69.924 39.797 69.3378C39.9213 68.831 40.2289 68.3571 40.6884 67.9644C41.0758 67.6299 41.5361 67.3434 42.051 67.1163C42.5349 66.8951 43.0952 66.849 43.5027 66.5448C43.6173 66.4434 43.7829 66.2959 44.0885 66.8121C44.4545 67.4406 44.7567 68.0876 44.9927 68.7479C45.1455 69.1811 45.0945 69.1996 44.9927 69.2088C44.8908 69.218 44.687 69.301 44.5342 69.3286C44.4044 69.3538 44.2769 69.3846 44.1522 69.4208H43.9739C43.9739 69.4208 43.8848 69.4208 43.8211 69.4208C43.7574 69.4208 43.5537 69.4945 43.4773 69.5775C43.3906 69.6811 43.3383 69.7979 43.3244 69.9186C43.3244 70.1582 43.7065 70.0937 43.8211 70.2412C43.8774 70.2807 43.9286 70.3239 43.9739 70.3702C44.3559 70.8127 45.0181 70.5454 45.4511 70.3702C46.0211 70.2325 46.5613 70.0369 47.0556 69.7895C47.2611 69.6944 47.4118 69.5484 47.4797 69.3789C47.5477 69.2093 47.5282 69.0277 47.4249 68.8677C47.2212 68.7018 47.0174 68.499 46.6609 68.582C46.3043 68.6649 45.7822 68.6557 45.3874 68.7479C45.2601 68.7479 45.0309 68.4529 44.7125 67.8261C44.3941 67.1993 44.2923 66.766 44.5215 66.7199C44.8773 66.6413 45.2451 66.5949 45.6166 66.5817Z" fill="#070C13"/>
<path d="M93.4849 42.7027C93.8171 42.6679 94.1545 42.6679 94.4867 42.7027C94.9356 42.741 95.3644 42.8592 95.7347 43.0469C96.1469 43.2409 96.467 43.5219 96.6516 43.8519C96.7637 44.0717 96.8015 44.3076 96.7619 44.5402C96.7071 44.8487 96.5868 45.1493 96.4054 45.4312C96.3083 45.5745 96.1917 45.7104 96.0573 45.8368C95.9424 45.9415 95.8114 46.0363 95.6668 46.1195C95.2985 46.2922 94.9125 46.4442 94.5122 46.5743C94.1337 46.7626 93.7012 46.8865 93.2472 46.9368C92.4276 46.9798 91.6089 46.845 90.8956 46.5497C90.4134 46.3575 90.0283 46.0591 89.7962 45.6977C89.5642 45.3364 89.4973 44.9309 89.6052 44.5402C89.6881 44.2023 89.8931 43.8864 90.1995 43.6245C90.4577 43.4015 90.7646 43.2106 91.1079 43.0591C91.4305 42.9117 91.804 42.8809 92.0757 42.6781C92.1521 42.6105 92.2624 42.5122 92.4662 42.8563C92.7102 43.2753 92.9117 43.7067 93.069 44.1469C93.1708 44.4357 93.1369 44.448 93.069 44.4541C93.001 44.4603 92.8652 44.5156 92.7633 44.534C92.6768 44.5508 92.5918 44.5713 92.5086 44.5955H92.3898C92.3898 44.5955 92.3304 44.5955 92.2879 44.5955C92.2455 44.5955 92.1096 44.6446 92.0587 44.6999C92.0009 44.769 91.966 44.8468 91.9568 44.9273C91.9568 45.0871 92.2115 45.0441 92.2879 45.1424C92.3255 45.1687 92.3596 45.1976 92.3898 45.2284C92.6445 45.5234 93.0859 45.3452 93.3746 45.2284C93.7546 45.1366 94.1147 45.0062 94.4443 44.8413C94.5812 44.7779 94.6817 44.6806 94.727 44.5675C94.7723 44.4545 94.7593 44.3334 94.6905 44.2268C94.5546 44.1161 94.4188 43.9809 94.1811 44.0362C93.9434 44.0916 93.5953 44.0854 93.3321 44.1469C93.2472 44.1469 93.0944 43.9502 92.8822 43.5323C92.6699 43.1145 92.602 42.8256 92.7548 42.7949C92.992 42.7425 93.2373 42.7115 93.4849 42.7027Z" fill="#070C13"/>
<path d="M104.426 51.8846C100.735 48.9168 101.822 45.949 102.735 44.5123C102.807 44.4004 102.853 44.2736 102.869 44.1414C102.886 44.0092 102.872 43.875 102.83 43.7488C102.788 43.6225 102.718 43.5075 102.626 43.4123C102.533 43.3171 102.421 43.2441 102.296 43.1989L94.1946 40.2311C94.0598 40.1833 93.9155 40.169 93.774 40.1892C93.6326 40.2094 93.4979 40.2636 93.3815 40.3472C88.8485 43.4383 79.8041 40.3472 79.8041 40.3472L90.4819 34.1721L116.385 42.154L104.426 51.8846Z" fill="#070C13"/>
<path d="M92.9694 14.9265L91.729 25.3198" stroke="#070C13" stroke-width="2.16667" stroke-linecap="round"/>
<path d="M96.0097 26.873L101.633 19.7833" stroke="#070C13" stroke-width="2.16667" stroke-linecap="round"/>
<path d="M86.1768 27.1986L82.9077 20.3776" stroke="#070C13" stroke-width="2.16667" stroke-linecap="round"/>
<path d="M13.6802 11.6414L13.6725 11.6567L13.6802 11.6414Z" fill="#070C13"/>
<path d="M48.7488 108.911C48.7488 108.911 51.9242 111.116 55.5218 109.665C59.1194 108.214 80.7051 90.799 80.7051 90.799C80.7051 90.799 80.7051 91.5246 82.8637 90.799C85.0223 90.0734 105.169 76.2865 105.169 76.2865C105.169 76.2865 107.328 74.1096 107.328 73.384C107.328 72.6584 126.388 58.1041 127.11 55.2152C126.749 53.7707 124.944 52.3613 121.694 52.3613C121.306 53.1449 124.583 53.0836 122.14 55.2152C121.421 55.9408 99.835 71.9045 99.835 71.9045L99.1155 74.0814L76.8103 87.1426L74.4358 88.2891L48.7488 108.911Z" fill="#070C13"/>
<path d="M43.0211 125.068L46.7876 115.302" stroke="#070C13" stroke-width="2.16667" stroke-linecap="round"/>
<path d="M43.0219 112.741L35.8233 118.224" stroke="#070C13" stroke-width="2.16667" stroke-linecap="round"/>
<path d="M52.6306 114.851L54.1157 122.268" stroke="#070C13" stroke-width="2.16667" stroke-linecap="round"/>
<path d="M49.8282 109.107C50.0225 109.027 50.0513 108.94 49.9433 108.766C49.9093 108.714 49.8872 108.654 49.8786 108.592C49.7995 108.113 49.7633 107.627 49.7706 107.141C49.7706 106.604 49.7706 106.06 49.7706 105.523C49.7706 104.797 49.7706 104.129 49.7059 103.433C49.7215 103.147 49.6899 102.86 49.6123 102.584C49.6987 102.504 49.6699 102.402 49.6699 102.308C49.6699 102.047 49.6699 101.793 49.6699 101.532C49.6329 101.291 49.6329 101.047 49.6699 100.806C49.7491 100.545 49.526 100.305 49.6699 100.08C49.6123 99.5145 49.6051 98.9485 49.5692 98.3825C49.5332 97.8166 49.5692 97.2433 49.5116 96.6773C49.4756 96.3363 49.5116 95.9952 49.4469 95.6542C49.3821 95.3131 49.3893 94.7617 49.3461 94.3118C49.267 93.5862 49.231 92.8025 49.2022 92.0478C49.2022 91.4238 49.1087 90.7925 49.1015 90.1612C49.0835 89.8277 49.0835 89.4934 49.1015 89.1599C49.1015 89.0365 49.0583 89.0002 48.936 89.0075H48.8712C48.0222 89.0075 47.6624 89.4066 47.7919 90.154C47.8542 90.6984 47.8878 91.2458 47.8927 91.7939C47.8927 92.1131 47.943 92.4397 47.943 92.759C47.9859 93.2414 48.0027 93.7259 47.9934 94.2102C47.9363 94.4486 47.9363 94.6974 47.9934 94.9358C48.0485 95.124 48.068 95.3209 48.051 95.5163C48.051 96.2419 48.1373 97.0256 48.1373 97.7803C48.1841 98.2871 48.1841 98.7972 48.1373 99.3041C48.1234 99.3857 48.1234 99.4692 48.1373 99.5508C48.1373 99.8701 48.1373 100.189 48.2021 100.509C48.274 101.234 48.1517 102.011 48.2812 102.765C48.3244 103.048 48.2812 103.36 48.2812 103.658C48.2812 103.781 48.1661 103.861 48.2093 103.97C48.2524 104.079 48.2093 104.376 48.2093 104.587C48.2093 105.007 48.2093 105.428 48.2093 105.856C48.2093 106.285 48.2668 106.618 48.2524 106.996C48.2297 107.705 48.2537 108.415 48.3244 109.122C48.33 109.169 48.3506 109.212 48.3831 109.246C48.4155 109.28 48.4581 109.303 48.5043 109.31C48.9558 109.381 49.4179 109.31 49.8282 109.107Z" fill="#070C13"/>
<path d="M64.3533 2.06393C63.6983 1.82262 62.9717 2.15797 62.7304 2.81296L58.798 13.4866C58.5567 14.1416 58.8921 14.8682 59.5471 15.1095C60.2021 15.3508 60.9286 15.0155 61.17 14.3605L64.6654 4.87278L74.1531 8.36824C74.8081 8.60955 75.5347 8.2742 75.776 7.6192C76.0173 6.96422 75.682 6.23762 75.027 5.99631L64.3533 2.06393ZM25.0342 63.8843C23.4064 58.913 23.2917 55.3765 24.0823 52.8155C24.8586 50.3007 26.5662 48.5409 29.0188 47.2224C31.5066 45.8851 34.6985 45.0383 38.3014 44.3699C41.9494 43.6931 45.726 43.2433 49.634 42.5939C53.4585 41.9583 57.2614 41.1502 60.5701 39.7877C63.8883 38.4211 66.7932 36.4628 68.7192 33.4786C72.5858 27.4877 72.1274 18.0243 65.0639 2.72024L62.7688 3.77954C69.7887 18.9893 69.6915 27.3107 66.5954 32.1079C65.0401 34.5178 62.6327 36.2045 59.6075 37.4503C56.5727 38.7001 53.0011 39.4719 49.2197 40.1003C45.5219 40.7147 41.4612 41.2128 37.8404 41.8845C34.1745 42.5646 30.6662 43.467 27.8219 44.996C24.9425 46.5438 22.6863 48.7675 21.6669 52.07C20.6618 55.3263 20.9195 59.4409 22.6319 64.6709L25.0342 63.8843Z" fill="#070C13"/>
<path d="M61.3886 105.805C85.2219 141.555 95.6942 64.9998 120.611 91.7221" stroke="#070C13" stroke-width="2.52778" stroke-linecap="round"/>
</svg>
