<svg width="130" height="130" viewBox="0 0 130 130" fill="none" xmlns="http://www.w3.org/2000/svg">
<path d="M24.4345 31.1016C24.6875 31.2085 24.9288 31.3414 25.1545 31.4981L25.7521 31.873L26.7025 32.4786L28.697 33.7402L33.0674 36.5085C33.1397 36.5719 33.2307 36.6099 33.3266 36.6166C33.4228 36.6003 33.5169 36.5737 33.6074 36.5373L34.9538 36.1192L37.8987 35.2108C37.9913 35.195 38.0781 35.1552 38.1507 35.0955C38.1831 35.0594 38.208 35.0173 38.2241 34.9715C38.2402 34.9257 38.247 34.8772 38.2443 34.8287L38.3883 33.6248L38.7699 30.4456C39.0579 28.1531 39.3531 25.7164 39.6771 23.0995C39.6999 22.797 39.7861 22.5026 39.93 22.2356C40.0739 21.9685 40.2723 21.7348 40.5123 21.5496C40.7615 21.3748 41.0471 21.2589 41.3475 21.2108C41.6808 21.1582 42.0185 21.1389 42.3555 21.1531H45.07L50.4268 21.0594H51.3701C51.7184 21.0338 52.0687 21.0655 52.4069 21.1531C52.7225 21.2287 53.0149 21.3806 53.2584 21.5955C53.5019 21.8104 53.6891 22.0818 53.8037 22.3858C53.992 23.0534 54.0674 23.7479 54.0269 24.4404V25.7092L54.0773 30.7556V33.3004V34.872C54.0773 34.9152 54.0773 34.9585 54.0773 34.9945C54.0773 35.0306 54.2141 35.1027 54.2861 35.1243L54.6317 35.2324L55.2365 35.4199L57.4757 36.1408C57.4995 36.1513 57.5253 36.1568 57.5513 36.1568C57.5774 36.1568 57.6031 36.1513 57.6269 36.1408L58.1381 35.8957L59.715 35.1748L62.8686 33.6753L69.4423 30.5826C69.8388 30.3929 70.2789 30.3132 70.7167 30.3519C71.1979 30.4192 71.6526 30.6132 72.0343 30.9142L72.8551 31.4621L74.2087 32.3704L77.3048 34.425C77.716 34.6983 78.0406 35.0835 78.2408 35.5352C78.4322 35.9913 78.4701 36.4975 78.3488 36.9771C78.1847 37.4794 77.9675 37.9627 77.7008 38.4189L77.276 39.2335L75.6704 42.355L72.5959 48.3458C72.5807 48.3667 72.5725 48.392 72.5725 48.4179C72.5725 48.4438 72.5807 48.469 72.5959 48.49V48.5332L72.7543 48.8216L73.0639 49.4055L74.1583 51.4673C74.1583 51.4673 74.2016 51.5322 74.2375 51.525H74.2952H74.7416L76.9952 51.5755L82.0353 51.7124C82.369 51.7179 82.6982 51.7903 83.0036 51.9253C83.3089 52.0603 83.5842 52.2551 83.813 52.4984C84.0419 52.7417 84.2197 53.0284 84.3361 53.3416C84.4525 53.6549 84.505 53.9883 84.4905 54.3221V56.0812V58.5899V61.1059V62.8217C84.505 63.016 84.505 63.2112 84.4905 63.4056C84.444 63.7762 84.3134 64.1313 84.1089 64.4437C83.8915 64.7415 83.6113 64.9877 83.2881 65.1646L82.4169 65.6332L81.308 66.2244L79.0976 67.3994L74.9072 69.7208C74.9072 69.7208 74.8496 69.7208 74.8424 69.7857L74.7632 70.0236L74.3168 71.3645L73.2871 74.4644C73.2742 74.4893 73.2715 74.5183 73.2796 74.5452C73.2876 74.5721 73.3058 74.5948 73.3303 74.6085L74.2592 75.7404L78.86 81.3491C79.0815 81.63 79.2476 81.9505 79.3496 82.2934C79.4424 82.6303 79.4673 82.9823 79.4228 83.3288C79.3783 83.6754 79.2653 84.0096 79.0904 84.312C78.8756 84.6272 78.6348 84.9239 78.3704 85.1987L76.6784 87.1091L73.1791 91.0309C72.8401 91.3997 72.4069 91.6689 71.9263 91.8095C71.5509 91.9111 71.158 91.9308 70.7743 91.8671C70.3902 91.7962 70.025 91.6465 69.7015 91.4274L68.2111 90.3604L66.1158 88.8681L62.2134 86.0782L61.8102 86.2585L59.7798 87.1596L56.0285 88.8321L55.8413 90.3388L55.4381 93.5829L54.5741 100.583C54.5311 100.932 54.4184 101.269 54.2428 101.574C54.0671 101.878 53.8321 102.144 53.5517 102.356C53.2786 102.558 52.9676 102.703 52.6373 102.782C52.2682 102.859 51.8906 102.888 51.5141 102.868H43.2267C42.8523 102.868 42.4131 102.868 42.0243 102.868C41.6521 102.83 41.2931 102.709 40.9731 102.515C40.6611 102.318 40.3938 102.058 40.1883 101.751C39.9767 101.42 39.8255 101.054 39.7419 100.669L39.4971 99.8116L39.1515 98.6221L36.5019 89.38C36.5019 89.38 36.5019 89.38 36.4515 89.3295L34.9106 88.7744L32.225 87.8156C32.225 87.8156 32.1602 87.8156 32.1386 87.8156L30.8426 89.4953L28.1785 92.8043L26.4865 94.9166C26.2863 95.1714 26.0426 95.3887 25.7665 95.5582C25.5321 95.7148 25.271 95.8272 24.9961 95.8898C24.4287 96.0311 23.8293 95.9593 23.3113 95.688C22.7608 95.3328 22.2637 94.9007 21.8353 94.4047L21.0289 93.5829L19.5312 92.0762L16.6512 89.1926L15.9312 88.4716L15.5136 88.0535C15.2904 87.8228 15.0456 87.5993 14.8512 87.3326C14.6628 87.1057 14.5165 86.8469 14.4192 86.5684C14.319 86.2841 14.275 85.9829 14.2896 85.6817C14.3052 85.3891 14.371 85.1014 14.484 84.8311C14.6209 84.5448 14.7723 84.2657 14.9376 83.9948L18.9696 77.0741C18.9867 77.0498 18.9958 77.0208 18.9958 76.9912C18.9958 76.9615 18.9867 76.9325 18.9696 76.9083V76.865L18.9192 76.7496L18.66 76.2234L17.6376 74.0607L15.6864 70.0308C15.6752 69.9923 15.6527 69.958 15.6219 69.9323C15.5912 69.9066 15.5534 69.8907 15.5136 69.8866L14.5128 69.6631L12.0719 69.1296L6.88062 68.0194C6.50998 67.9431 6.16082 67.7855 5.85821 67.558C5.56052 67.3257 5.33154 67.0167 5.1958 66.6641C5.08059 66.2986 5.03659 65.9144 5.0662 65.5323V64.5519L5.1166 59.5055V56.8093C5.02456 56.1195 5.20543 55.421 5.6206 54.8628C5.83917 54.6119 6.11614 54.4187 6.42701 54.3005C6.7606 54.1762 7.10541 54.0844 7.45663 54.0266L12.4967 52.9452L14.9736 52.3829L15.5424 52.2459C15.5943 52.2311 15.6449 52.2118 15.6936 52.1882C15.7344 52.15 15.7664 52.1032 15.7872 52.0513L15.8736 51.9143L16.0464 51.6548C17.148 49.9606 18.552 47.7258 19.6464 47.3293C19.956 47.214 20.2728 47.0914 20.5824 46.9905C20.6477 46.9668 20.7153 46.9499 20.7841 46.94C20.8505 46.9327 20.9145 46.9105 20.9713 46.8751C21.0939 46.8018 21.1975 46.7006 21.2737 46.5796C21.4393 46.3273 21.4897 46.0389 21.6553 45.9163C21.8209 45.7938 22.1737 45.8082 22.4977 46.4858C22.6117 46.7641 22.6466 47.0685 22.5985 47.3654C22.5689 47.5626 22.5107 47.7545 22.4257 47.9349L22.3537 48.0863C22.3537 48.0863 22.3537 48.1223 22.3537 48.1439L22.3177 48.2449C22.1906 48.5697 22.0365 48.8832 21.8569 49.1821C21.4681 49.8525 20.9497 50.6239 20.4744 51.2727L19.3224 52.8875L18.7464 53.7238L18.3144 54.351C18.1185 54.6196 17.8743 54.8494 17.5944 55.0286C17.3159 55.2102 17.0057 55.3374 16.68 55.4035L15.96 55.5549L14.9664 55.764L12.9864 56.1893L9.01905 57.0544L8.52224 57.1553H8.42864V57.6888V62.4973V64.8618C8.42864 64.8618 8.42864 64.9556 8.47184 64.9628L12.9071 65.9432L15.3408 66.4839L16.7808 66.8083C17.1567 66.8824 17.5101 67.0436 17.8126 67.2789C18.1152 67.5143 18.3585 67.8173 18.5232 68.1636L21.6265 74.8825L21.8713 75.3943C22.0229 75.6891 22.1576 75.9924 22.2745 76.3027C22.373 76.6169 22.4035 76.9486 22.3637 77.2756C22.324 77.6026 22.215 77.9173 22.0441 78.1987L19.3728 82.7332L18.1128 84.8959L17.76 85.5015C17.7413 85.519 17.7263 85.5402 17.7161 85.5638C17.7059 85.5874 17.7006 85.6128 17.7006 85.6385C17.7006 85.6642 17.7059 85.6896 17.7161 85.7131C17.7263 85.7367 17.7413 85.7579 17.76 85.7754L24.0529 92.1771C24.1537 92.2853 24.2761 92.4727 24.4489 92.3862C24.5742 92.2731 24.6875 92.1475 24.7873 92.0113L26.8825 89.4305L28.9706 86.8424L30.2666 85.2852C30.538 84.9363 30.914 84.6836 31.3394 84.5643C31.7656 84.4743 32.2088 84.5119 32.6138 84.6724L35.9258 85.8908L37.4595 86.4531C37.8702 86.5696 38.2593 86.7522 38.6115 86.9938C38.937 87.2699 39.1644 87.6443 39.2595 88.0607L39.5331 89.0772C40.0515 90.9804 40.5771 92.8836 41.1243 94.7868L41.9379 97.6272L42.3555 99.069L42.4923 99.5232C42.511 99.6283 42.5502 99.7288 42.6075 99.8188C42.7587 99.9918 43.0107 99.8981 43.2123 99.9197H44.6524H47.6116H51.3557C51.4069 99.9141 51.4558 99.8952 51.4975 99.8649C51.5392 99.8345 51.5722 99.7938 51.5933 99.7467C51.6176 99.6496 51.6345 99.5508 51.6437 99.4511L52.1405 95.7312C52.3997 93.8064 52.6517 91.8743 52.9613 89.9639L53.2205 88.2986C53.2429 87.9175 53.3486 87.5459 53.5301 87.2101C53.7405 86.881 54.051 86.6283 54.4157 86.4891L58.6493 84.6869L60.6798 83.8001L61.227 83.5622C61.4604 83.4504 61.7009 83.3541 61.947 83.2739C62.1826 83.2092 62.4314 83.2092 62.667 83.2739C62.9033 83.3514 63.1249 83.4684 63.3222 83.6199L67.9735 86.9001L70.2487 88.4933L70.6231 88.7528C70.7316 88.8293 70.8446 88.8991 70.9615 88.9619C71.0254 88.984 71.0938 88.9896 71.1606 88.9783C71.2273 88.9669 71.29 88.939 71.3431 88.897C71.4398 88.8036 71.5311 88.705 71.6167 88.6014L74.5688 85.2276L76.0592 83.519C76.1743 83.3532 76.3544 83.2306 76.412 83.036C76.4696 82.8413 76.2896 82.6611 76.1672 82.5097L75.2888 81.4428L72.9703 78.5591L71.8111 77.1173L71.2351 76.3964L70.8391 75.9062C70.6956 75.7297 70.5747 75.5359 70.4791 75.3295C70.31 74.9035 70.31 74.4289 70.4791 74.003L70.8319 72.9577L71.4367 71.2203L72.0343 69.4757C72.2215 69.0792 72.3871 67.8032 73.3015 67.4571L78.0968 64.9844L80.4296 63.7444L81.4736 63.1893C81.5721 63.1427 81.6661 63.0872 81.7545 63.0235C81.7932 62.9853 81.823 62.939 81.8416 62.8879C81.8603 62.8368 81.8674 62.7822 81.8625 62.728V57.7609V54.8917C81.8752 54.7763 81.8578 54.6595 81.812 54.5528C81.7839 54.5027 81.7445 54.4596 81.6971 54.4271C81.6497 54.3946 81.5954 54.3735 81.5384 54.3654H81.1928L76.1384 54.1707L74.3168 54.1131C73.8769 54.137 73.4361 54.0858 73.0135 53.9617C72.6138 53.7801 72.2955 53.4564 72.1207 53.0533L70.8247 50.5662L70.1047 49.2614C69.9352 48.9914 69.8455 48.679 69.8455 48.3602C69.8455 48.0414 69.9352 47.7291 70.1047 47.4591L73.4311 41.1151L75.0584 38.008L75.6776 36.8329C75.7197 36.766 75.7422 36.6885 75.7422 36.6094C75.7422 36.5303 75.7197 36.4528 75.6776 36.3859C75.5984 36.2489 75.4399 36.1913 75.3176 36.0975L72.4951 34.216L70.9831 33.2067C70.7959 33.0913 70.7023 33.012 70.5439 32.9327C70.3855 32.8534 70.2271 32.9327 70.0831 33.0265L63.9126 35.9461L60.7662 37.4456L59.1894 38.2026L58.8005 38.39C58.6565 38.4549 58.4189 38.5775 58.2317 38.6496C57.8292 38.8086 57.3814 38.8086 56.9789 38.6496L55.2221 38.1017L53.5229 37.5898C53.0901 37.4825 52.6736 37.3176 52.2845 37.0996C52.1075 36.9751 51.958 36.8155 51.8453 36.6307C51.7326 36.4459 51.6591 36.2399 51.6293 36.0254C51.5902 35.8042 51.5733 35.5796 51.5789 35.355V31.9884V24.7793V24.1593C51.5932 24.0227 51.5932 23.8849 51.5789 23.7484C51.5544 23.6837 51.5112 23.6278 51.4547 23.588C51.3982 23.5481 51.3311 23.5262 51.2621 23.5249H50.8444H47.3956H43.7956H42.4635C42.4007 23.5146 42.3363 23.5212 42.2768 23.544C42.2174 23.5668 42.165 23.605 42.1251 23.6546C42.0757 23.7708 42.0511 23.896 42.0531 24.0223L41.6931 27.1366L41.0667 32.0532L40.7787 34.4827L40.6923 35.2036C40.6665 35.5393 40.6013 35.8708 40.4979 36.1913C40.3901 36.5001 40.2011 36.7741 39.9507 36.9843C39.6956 37.1915 39.4019 37.3459 39.0867 37.4384L35.8899 38.4261L34.4498 38.873L33.8666 39.0316C33.6641 39.0967 33.4529 39.1307 33.2402 39.1326C32.8094 39.1335 32.3882 39.0055 32.0306 38.7649L27.0985 35.6145L24.7153 34.0862L23.9953 33.6464C23.8873 33.5599 23.7505 33.6464 23.6713 33.7257L19.8264 36.8905L18.0264 38.3972C17.9472 38.4693 17.8248 38.527 17.832 38.6496C17.8392 38.7721 17.94 38.8442 17.9904 38.9379L18.7104 40.0481C18.9408 40.4302 19.164 40.8051 19.3584 41.1655C19.7616 41.8864 20.0784 42.5353 20.3592 43.1264C20.8169 43.9653 21.064 44.9029 21.0793 45.8587C20.9281 47.1491 19.9416 46.4786 18.1992 43.8185L16.4352 41.1079L15.9888 40.387C15.8088 40.0914 15.5064 39.666 15.3192 39.3128C15.1142 38.9524 15.038 38.5329 15.1032 38.1233C15.1912 37.7078 15.417 37.3343 15.744 37.0636L22.5985 31.4621C22.8156 31.2866 23.0585 31.1455 23.3185 31.044C23.6855 30.9294 24.0812 30.9499 24.4345 31.1016Z" fill="#070C13"/>
<path d="M59.6423 67.998C58.9514 69.6924 57.9502 71.2426 56.6903 72.5686C54.7946 74.536 52.4165 75.9709 49.7935 76.73C47.1705 77.489 44.3946 77.5456 41.7429 76.8941C40.026 76.4427 38.3823 75.7485 36.8612 74.8323C35.3214 73.9005 33.9785 72.676 32.9084 71.2277C31.5752 69.3478 30.6729 67.1963 30.266 64.927C29.7347 62.5615 29.834 60.0977 30.554 57.7827C31.8095 54.2231 34.3078 51.2377 37.5885 49.3769C39.4674 48.2929 41.5468 47.6023 43.7003 47.347C45.8539 47.0918 48.0368 47.2771 50.1166 47.8919C53.8037 48.9812 56.9581 51.3975 58.9727 54.6756C59.9475 56.4217 60.6608 58.3017 61.0896 60.2555C61.2696 60.825 61.4136 61.6252 60.7728 61.9208C60.0587 62.347 59.214 62.4982 58.3967 62.3461C57.8711 62.2091 57.8423 61.7766 57.8279 61.4017C57.6581 59.7571 57.1586 58.1637 56.3594 56.7169C55.5602 55.2701 54.4777 53.9996 53.1767 52.9815C51.7903 51.8622 50.1637 51.08 48.4246 50.6962C46.7861 50.3258 45.0979 50.2284 43.4277 50.4078C42.2957 50.5342 41.1957 50.8639 40.1805 51.3811C39.1654 51.8774 38.2008 52.4713 37.3005 53.1545C36.926 53.4429 36.5372 53.7312 36.1772 54.0412C35.0322 54.9148 34.142 56.0799 33.5996 57.4151C33.066 58.7336 32.7757 60.1381 32.7428 61.5603C32.6743 63.2487 32.9184 64.9352 33.4628 66.5346C34.0177 68.1506 34.9168 69.6265 36.098 70.86C37.4168 72.2506 39.0303 73.3273 40.8196 74.011C42.6089 74.6947 44.5286 74.968 46.4374 74.8106C47.1042 74.7552 47.7676 74.6638 48.4246 74.5367C49.0742 74.3897 49.7139 74.2019 50.3398 73.9744C51.5914 73.53 52.7489 72.8552 53.7527 71.9847C56.084 70.0089 57.6485 67.2764 58.1735 64.2637C58.2018 64.05 58.26 63.8413 58.3463 63.6437C58.4034 63.462 58.4911 63.2913 58.6055 63.1391C58.8388 62.8283 59.1677 62.6028 59.5415 62.4975C60.384 62.2308 60.8304 62.4975 60.7944 63.4491C60.6839 65.022 60.2938 66.5625 59.6423 67.998Z" fill="#070C13"/>
<path d="M85.2891 31.8223L90.0268 29.5875L90.3148 29.4578L90.4588 29.3929C90.4951 29.3741 90.5248 29.3448 90.5441 29.3088C90.5634 29.2727 90.5713 29.2317 90.5668 29.191V29.1333V28.8954L90.61 28.398C90.6676 27.7348 90.7396 27.0715 90.8332 26.4155C91.0708 24.8511 91.114 23.2651 91.33 21.6936L91.4956 20.641L91.582 20.1075V20.0499V19.9994C91.582 19.9562 91.582 19.9129 91.582 19.8985C91.582 19.8841 91.4308 19.9345 91.4164 19.9778L91.3372 20.0138L91.1572 20.1003L90.4372 20.4103C88.9323 21.0159 87.4059 21.5782 85.9083 22.2126L84.5979 22.7605C84.5979 22.7605 84.5979 22.7605 84.5547 22.8038L84.1371 25.6297L83.3091 30.6761L83.0787 31.9954C83.0427 32.2116 83.0139 32.4351 82.9923 32.6586V32.7956H82.8411H82.8267C82.8267 32.7956 82.8267 32.7956 82.8267 32.8604C82.8637 33.118 82.9571 33.3642 83.1003 33.5814C83.2756 33.8022 83.3674 34.0779 83.3595 34.3599C83.3595 34.5474 83.1435 34.706 82.8555 34.7564C82.5487 34.7963 82.237 34.7409 81.9627 34.5978C81.5132 34.3816 81.1594 34.0068 80.969 33.5453C80.8803 33.315 80.8316 33.0712 80.825 32.8244V32.6442V32.5216V32.3846C80.8754 32.0314 80.9258 31.6637 80.9834 31.3249C81.1778 30.1642 81.3579 28.9964 81.6243 27.8429C81.8475 26.8913 81.9699 25.9181 82.1427 24.9593L82.3731 23.6112L82.4955 22.9407L82.5603 22.6019C82.5868 22.4241 82.6253 22.2483 82.6755 22.0756C82.7485 21.8512 82.8723 21.6466 83.0371 21.4778C83.2019 21.309 83.4034 21.1806 83.6259 21.1024L84.1299 20.8933L84.5475 20.7059C85.1022 20.4516 85.6693 20.2254 86.2467 20.0282C86.4823 19.9401 86.7227 19.8655 86.9667 19.8048C87.7108 19.644 88.4351 19.4022 89.1268 19.0839L90.1492 18.5936L90.6532 18.3485L91.3732 18.0097C91.6289 17.8926 91.9057 17.8289 92.1868 17.8223C92.4635 17.8248 92.7318 17.9186 92.95 18.089C93.1672 18.2583 93.3238 18.4936 93.3964 18.7594C93.4604 19.0335 93.4726 19.3171 93.4324 19.5957L92.9716 22.7965C92.7124 24.8079 92.41 26.8048 92.2516 28.8233L92.2156 29.2775V29.5659C92.204 29.68 92.1848 29.7932 92.158 29.9047C92.1016 30.1265 91.9912 30.3308 91.8367 30.4994C91.6821 30.668 91.4882 30.7956 91.2724 30.8707L90.0628 31.3898C89.6956 31.5556 89.3428 31.7358 88.9611 31.9233C87.4779 32.7018 85.9371 33.329 84.4035 33.9779C84.1893 34.0803 83.9447 34.0994 83.7172 34.0314C83.4897 33.9635 83.2955 33.8134 83.1723 33.6102C82.8411 33.1488 82.8627 32.81 83.2443 32.6442C83.8563 32.3486 84.4323 32.1323 85.2891 31.8223Z" fill="#070C13"/>
<path d="M97.5663 18.9037L108.482 22.119L111.794 23.0922L113.45 23.5752L115.43 24.1735L116.107 25.0603L116.589 25.673L117.561 26.8914C118.526 28.0881 119.541 29.2415 120.607 30.3229C121.139 30.8708 121.679 31.3899 122.234 31.8873C122.515 32.118 122.788 32.3775 123.069 32.6082L123.494 32.9326L124.012 33.2786C124.277 33.4328 124.5 33.6494 124.661 33.9095C124.823 34.1695 124.919 34.4653 124.941 34.7709V35.1458C124.948 35.249 124.948 35.3526 124.941 35.4558L124.905 35.91C124.862 36.2127 124.84 36.5155 124.775 36.8111C124.678 37.4033 124.534 37.9867 124.343 38.5557C123.988 39.6929 123.505 40.7861 122.903 41.8142C121.624 43.9473 119.822 45.7187 117.669 46.9615C117.013 47.3404 116.335 47.6798 115.639 47.978L115.048 48.2303L114.58 48.4394L114.458 48.4898H114.335L114.076 48.4033L112.816 48.1077L107.841 46.9255L107.733 45.8657C107.733 45.6927 107.69 45.5197 107.661 45.3539L107.618 45.0871C107.56 44.7772 107.481 44.4599 107.394 44.15C106.97 42.3566 106.052 40.7183 104.745 39.4208C104.079 38.8382 103.306 38.3925 102.468 38.1092C101.63 37.826 100.745 37.7107 99.8631 37.7699C98.1507 37.8714 96.4659 38.2487 94.8734 38.8873L94.2614 39.1396L93.3326 39.5361L93.0446 39.6587C92.9464 39.6327 92.852 39.5939 92.7638 39.5433L92.2022 39.2766L91.5254 38.945L89.0414 37.7339C87.2917 36.8904 85.5853 35.9604 83.7637 35.2683C83.2237 35.0665 82.5037 34.8214 82.4461 34.3095C82.3885 33.7977 82.2589 33.0768 82.7485 32.6875C83.0437 32.4424 83.5549 32.6875 83.9869 32.8821C85.4269 33.5382 86.8093 34.1942 88.199 34.8718L91.655 36.566L92.5118 36.9913L92.9438 37.2076H93.0014C93.0014 37.2076 93.0374 37.2076 93.059 37.2076L93.2678 37.1211C93.5774 37.0057 93.8798 36.8688 94.2038 36.775C96.3269 35.9486 98.5944 35.5588 100.871 35.6288C101.967 35.7126 103.038 35.996 104.032 36.4651C105.022 36.9416 105.902 37.6192 106.617 38.4548C107.506 39.5011 108.225 40.681 108.748 41.9512C108.999 42.5661 109.208 43.1971 109.374 43.84C109.454 44.1572 109.526 44.4816 109.583 44.806V44.979V45.0799V45.2818C109.619 45.2818 109.684 45.2818 109.734 45.3395L109.907 45.3971L110.274 45.4981C110.541 45.5702 110.807 45.6422 111.074 45.7288C111.851 45.9883 112.643 46.2118 113.435 46.4136L114.004 46.5578L114.184 46.6083C114.249 46.6083 114.299 46.565 114.364 46.5506L115.408 46.0748C116.82 45.3604 118.116 44.4368 119.253 43.3353C120.5 42.126 121.498 40.6833 122.191 39.0892C122.517 38.2877 122.758 37.454 122.911 36.602C122.992 36.1783 123.045 35.7496 123.069 35.3188C123.088 35.1849 123.088 35.049 123.069 34.9151C123.024 34.8041 122.939 34.714 122.831 34.6628L122.5 34.4321C122.369 34.3531 122.246 34.2614 122.133 34.1581C120.605 32.9008 119.195 31.5061 117.921 29.9913C117.28 29.2704 116.654 28.5062 116.027 27.7493L114.321 25.5865L113.068 25.2405C110.094 24.3682 107.15 23.3661 104.169 22.5587C100.67 21.6143 97.2135 20.5185 93.7502 19.4372C92.6774 19.1056 92.0294 18.6009 91.9286 17.9953C91.8278 17.3898 92.2166 17.1807 93.0806 17.4475L97.5663 18.9037Z" fill="#070C13"/>
<path d="M92.7714 48.0573C91.785 53.2479 90.6114 59.4549 89.409 65.6619C88.4154 70.8453 87.4938 76.043 86.3562 81.1903C85.1825 86.489 84.2897 91.8238 83.1377 97.1152L81.9929 102.162L81.4745 104.505C81.471 104.533 81.471 104.562 81.4745 104.591L81.5249 104.656V104.699L81.6977 104.901L82.0721 105.29C82.6034 105.798 83.2018 106.229 83.8505 106.574C84.165 106.737 84.4925 106.875 84.8297 106.984C85.1601 107.098 85.4998 107.183 85.8449 107.237C87.2847 107.454 88.7562 107.282 90.1074 106.739C90.3942 106.648 90.6734 106.535 90.9426 106.401V106.343V106.22L91.2018 105.204L92.2314 101.16C92.9514 98.4633 93.6066 95.7671 94.2546 93.0637C95.7883 86.7197 97.4299 80.4045 99.0643 74.0822L103.528 57.2705C104.291 54.322 105.206 51.4023 105.732 48.3817C105.89 47.4806 106.056 46.2983 106.797 46.0388C107.539 45.7792 108.568 45.3683 109.274 45.9883C109.713 46.3776 109.504 47.2355 109.324 47.9636C108.734 50.3354 108.151 52.7144 107.524 55.079C106.488 58.9719 105.472 62.8864 104.327 66.7433C103.377 69.9658 102.563 73.2315 101.699 76.454C100.886 79.4602 100.101 82.488 99.2299 85.4725C98.0635 89.488 97.3075 93.6044 96.1699 97.6199C95.9251 98.4633 95.7019 99.314 95.4499 100.136C95.0419 101.361 94.6675 102.599 94.3267 103.849L93.8442 105.723L93.333 107.821L93.2538 108.152L93.2178 108.318L93.0666 108.39L92.4474 108.679L91.4178 109.162C91.1022 109.293 90.7802 109.409 90.453 109.508C90.1314 109.633 89.8019 109.736 89.4666 109.818C88.0898 110.168 86.6553 110.227 85.2545 109.991C83.5511 109.662 81.9685 108.878 80.6753 107.72C80.3593 107.436 80.0589 107.135 79.7753 106.819C79.6169 106.653 79.5089 106.509 79.3433 106.307C79.1777 106.105 78.9977 105.831 78.8393 105.586L78.6088 105.211C78.5584 105.081 78.6089 104.93 78.6449 104.793C78.6881 104.505 78.7601 104.216 78.8177 103.928L79.0697 102.789L81.0785 93.6909C82.5185 86.9216 84.0161 80.1594 85.3121 73.3685C86.2193 68.5744 87.321 63.8092 88.1346 59.0151C89.0922 53.3848 90.2946 47.805 91.425 42.2107C91.785 40.4733 92.4474 39.3776 93.3114 39.118C94.1755 38.8585 94.5643 39.428 94.2762 40.8338C93.8802 42.9172 93.4338 44.979 92.7714 48.0573Z" fill="#070C13"/>
<path d="M93.6851 30.0418L102.692 32.7812C104.399 33.3147 109.338 35.5063 111.153 36.3858L111.491 36.5732L114.436 38.4476C114.883 38.735 115.389 38.9197 115.916 38.9883C116.443 39.0569 116.979 39.0078 117.485 38.8445C117.991 38.6811 118.454 38.4076 118.842 38.0436C119.23 37.6795 119.532 37.234 119.728 36.739C119.981 36.1027 120.047 35.4074 119.92 34.7346C119.792 34.0618 119.476 33.4392 119.008 32.9398L113.493 26.9779C113.07 26.5203 112.537 26.18 111.945 25.9903L98.0196 21.499C97.5054 21.3311 96.96 21.2813 96.424 21.3534C95.8879 21.4254 95.375 21.6175 94.9232 21.9154C94.4715 22.2132 94.0926 22.6091 93.8147 23.0737C93.5368 23.5383 93.367 24.0596 93.3179 24.5989L92.9075 28.7658C92.8809 29.0342 92.9424 29.304 93.0827 29.5343C93.223 29.7646 93.4345 29.9427 93.6851 30.0418Z" fill="#070C13"/>
<path d="M22.3473 94.5414C22.3473 94.5414 23.7873 97.425 26.6673 97.425C30.2674 97.425 33.1474 90.9368 33.1474 90.9368L37.4675 91.6577L41.7875 102.471C41.7875 102.471 56.1877 103.192 57.6277 102.471C59.0677 101.75 60.5078 88.7741 60.5078 88.7741L64.1078 86.6114L69.8679 91.6577C69.8679 91.6577 73.4679 94.5414 75.628 92.3786C77.788 90.2159 84.2681 83.7277 83.5481 82.2859C82.828 80.8441 77.5792 74.8677 77.068 74.3559C76.348 73.635 76.348 69.3095 77.788 68.5886C79.228 67.8677 84.2681 64.9841 84.2681 63.5422C84.2681 62.1004 80.5816 64.7534 80.5816 64.7534L73.4679 68.5886L71.3079 74.3559L77.068 83.0068L72.0279 89.495L71.3079 90.2159L62.6678 84.4486L54.7477 87.3323L51.8676 101.03L42.5075 101.75L38.9075 91.0882L36.8842 87.5413L30.9874 85.8904L25.2273 93.8205L22.3473 94.5414Z" fill="#070C13"/>
<path d="M32.2395 66.0657C32.2395 66.0657 35.6956 47.596 54.9414 52.3251C54.9414 52.3251 31.3251 41.1943 32.2395 66.0657Z" fill="#070C13"/>
<path d="M79.9473 104.634C79.9473 104.634 73.4672 108.96 87.8674 112.564C87.8674 112.564 95.0675 114.006 97.2275 106.076C99.3876 98.1461 111.628 49.1242 111.628 49.1242C111.628 49.1242 124.638 51.8925 121.708 43.3569L114.508 46.9615L108.028 46.2406L107.149 49.0521L91.8275 107.878C91.8275 107.878 83.1874 110.041 79.9473 104.634Z" fill="#070C13"/>
<path d="M46.1068 42.9967C46.9021 42.9967 47.5467 42.1091 47.5467 41.0142C47.5467 39.9193 46.9021 39.0317 46.1068 39.0317C45.3115 39.0317 44.6667 39.9193 44.6667 41.0142C44.6667 42.1091 45.3115 42.9967 46.1068 42.9967Z" fill="#070C13"/>
<path d="M48.1296 41.8431C48.0974 42.1159 48.0271 42.3828 47.9208 42.6361C47.759 42.9935 47.5117 43.3055 47.2008 43.5444C46.9422 43.7746 46.6248 43.9281 46.284 43.988C45.9432 44.0478 45.5925 44.0116 45.2712 43.8833C44.9523 43.7557 44.6558 43.578 44.3928 43.357C44.2569 43.23 44.1339 43.09 44.0256 42.9389C43.9323 42.8118 43.8549 42.6738 43.7951 42.5279C43.6942 42.1702 43.6149 41.8067 43.5575 41.4394C43.4374 41.0674 43.4029 40.6731 43.4567 40.2859C43.6054 39.6052 43.9509 38.9833 44.4504 38.4981C44.7766 38.1677 45.199 37.9493 45.6569 37.8741C46.1148 37.799 46.5847 37.8711 46.9992 38.0799C47.3574 38.2638 47.6624 38.5369 47.8848 38.8729C48.0694 39.1422 48.2104 39.4391 48.3024 39.7524C48.332 40.0647 48.3997 40.3722 48.504 40.668C48.5544 40.7545 48.6408 40.8771 48.2016 40.9275C47.6737 40.9901 47.1417 41.0117 46.6104 40.9924C46.2648 40.9924 46.2576 40.9491 46.2576 40.9203C46.2576 40.8915 46.2576 40.7329 46.2576 40.6392C46.2576 40.5454 46.2576 40.495 46.2576 40.4157C46.254 40.3797 46.254 40.3435 46.2576 40.3075C46.2576 40.3075 46.2576 40.2643 46.2576 40.2354C46.2736 40.1958 46.2767 40.1522 46.2663 40.1107C46.256 40.0693 46.2327 40.0322 46.2 40.0048C46.1291 39.9404 46.049 39.8869 45.9624 39.8462C45.7896 39.7813 45.7752 40.0192 45.6456 40.0552C45.6036 40.0751 45.5603 40.092 45.516 40.1057C45.1272 40.2138 45.228 40.6392 45.3 40.9059C45.3141 41.2489 45.3746 41.5885 45.48 41.9152C45.5431 42.0462 45.637 42.16 45.7536 42.2468C45.8077 42.2874 45.872 42.3123 45.9393 42.3186C46.0066 42.325 46.0744 42.3126 46.1352 42.2828C46.2936 42.2107 46.4808 42.1387 46.4736 41.9296C46.4664 41.7205 46.5528 41.4394 46.56 41.2087C46.56 41.1294 46.8408 41.0789 47.3736 41.0501C47.9064 41.0212 48.2664 41.0285 48.2664 41.1943C48.2503 41.4157 48.2043 41.634 48.1296 41.8431Z" fill="#070C13"/>
<path d="M67.0153 62.5456C67.7673 62.2867 68.0887 61.2374 67.733 60.202C67.3773 59.1666 66.4794 58.5372 65.7273 58.7962C64.9752 59.0552 64.6539 60.1045 65.0095 61.1399C65.3652 62.1752 66.2632 62.8046 67.0153 62.5456Z" fill="#070C13"/>
<path d="M68.5565 60.7885C68.6167 61.0678 68.6385 61.354 68.6213 61.6392C68.5934 62.0208 68.4722 62.3896 68.2685 62.7133C68.056 63.0745 67.7399 63.3634 67.3613 63.5424C67.1078 63.6533 66.8304 63.6979 66.5549 63.6721C66.1908 63.6414 65.8336 63.5538 65.4965 63.4126C65.3276 63.3394 65.166 63.25 65.0141 63.1459C64.8889 63.0517 64.7731 62.9454 64.6685 62.8287C64.454 62.5232 64.2615 62.2028 64.0925 61.8699C63.8571 61.5592 63.6947 61.1995 63.6173 60.8173C63.5385 60.1261 63.6636 59.4268 63.9773 58.806C64.1129 58.5311 64.3028 58.2865 64.5355 58.087C64.7681 57.8875 65.0387 57.7373 65.3309 57.6453C65.6744 57.5485 66.0359 57.5339 66.3862 57.6028C66.7364 57.6717 67.0655 57.8221 67.3469 58.0418C67.6269 58.2385 67.8706 58.4824 68.0669 58.7628C68.2613 59.0295 68.3045 59.3467 68.5565 59.563C68.6357 59.6278 68.7581 59.7144 68.3621 59.9018C67.883 60.1389 67.3843 60.3343 66.8717 60.4857C66.5405 60.5867 66.5261 60.5578 66.5189 60.529C66.5117 60.5001 66.4397 60.3632 66.4109 60.2767C66.3889 60.203 66.3624 60.1308 66.3317 60.0604C66.3317 60.0604 66.3317 59.9955 66.3317 59.9595C66.3317 59.9234 66.3317 59.909 66.3317 59.8802C66.3317 59.8513 66.2669 59.7288 66.1949 59.6855C66.1581 59.6603 66.1164 59.6431 66.0725 59.6351H65.9285C65.7413 59.6351 65.7989 59.8585 65.6909 59.9378C65.66 59.9697 65.6263 59.9987 65.5901 60.0243C65.2517 60.255 65.4821 60.6227 65.6405 60.8606C65.7653 61.1773 65.9324 61.4756 66.1373 61.7473C66.3389 61.9492 66.6197 62.0789 66.8573 61.9203C66.9797 61.7978 67.1381 61.6752 67.0661 61.4806C66.9941 61.2859 66.9797 60.9832 66.8933 60.7597C66.8933 60.6804 67.1237 60.5434 67.6133 60.3415C68.1029 60.1397 68.4269 60.0676 68.4773 60.1974C68.5236 60.3912 68.5501 60.5893 68.5565 60.7885Z" fill="#070C13"/>
<path d="M47.4232 85.7488C48.4725 85.4403 49.1415 84.5709 48.9175 83.8069C48.6935 83.0428 47.6613 82.6735 46.612 82.9819C45.5628 83.2903 44.8938 84.1597 45.1178 84.9237C45.3418 85.6878 46.374 86.0572 47.4232 85.7488Z" fill="#070C13"/>
<path d="M47.237 82.1927C47.5187 82.1518 47.8049 82.1518 48.0866 82.1927C48.4673 82.2375 48.831 82.3763 49.145 82.5964C49.4946 82.8241 49.7661 83.1537 49.9226 83.5408C50.0177 83.7986 50.0498 84.0754 50.0162 84.3482C49.9697 84.7101 49.8677 85.0627 49.7138 85.3935C49.6315 85.5616 49.5326 85.721 49.4186 85.8693C49.3212 85.9921 49.21 86.1033 49.0874 86.2009C48.7751 86.4035 48.4477 86.5819 48.1082 86.7344C47.7872 86.9553 47.4204 87.1007 47.0354 87.1597C46.3403 87.2102 45.6459 87.052 45.0409 86.7055C44.6319 86.4801 44.3053 86.1301 44.1085 85.7061C43.9117 85.2822 43.855 84.8066 43.9465 84.3482C44.0168 83.9518 44.1907 83.5812 44.4505 83.274C44.6696 83.0124 44.9298 82.7884 45.221 82.6108C45.4946 82.4378 45.8114 82.4017 46.0418 82.1638C46.1066 82.0845 46.2002 81.9692 46.373 82.3729C46.5799 82.8644 46.7508 83.3704 46.8842 83.8868C46.9706 84.2256 46.9418 84.24 46.8842 84.2472C46.8266 84.2545 46.7114 84.3193 46.625 84.341C46.5516 84.3607 46.4795 84.3847 46.409 84.4131H46.3082C46.3082 84.4131 46.2578 84.4131 46.2218 84.4131C46.1858 84.4131 46.0706 84.4707 46.0274 84.5356C45.9784 84.6166 45.9488 84.7079 45.941 84.8023C45.941 84.9898 46.157 84.9393 46.2218 85.0547C46.2536 85.0856 46.2825 85.1194 46.3082 85.1556C46.5242 85.5016 46.8986 85.2926 47.1434 85.1556C47.4657 85.0478 47.7711 84.8949 48.0506 84.7014C48.1668 84.627 48.252 84.5129 48.2904 84.3803C48.3288 84.2477 48.3178 84.1056 48.2594 83.9805C48.1442 83.8507 48.029 83.6921 47.8274 83.757C47.6258 83.8219 47.3306 83.8147 47.1074 83.8868C47.0354 83.8868 46.9058 83.6561 46.7258 83.1659C46.5458 82.6757 46.4882 82.3368 46.6178 82.3008C46.8189 82.2393 47.0269 82.203 47.237 82.1927Z" fill="#070C13"/>
<path d="M24.9049 63.8344C25.9542 63.526 26.6232 62.6566 26.3992 61.8926C26.1752 61.1285 25.143 60.7592 24.0937 61.0676C23.0444 61.376 22.3754 62.2454 22.5995 63.0094C22.8235 63.7735 23.8557 64.1428 24.9049 63.8344Z" fill="#070C13"/>
<path d="M24.7152 60.2765C24.9966 60.232 25.2833 60.232 25.5648 60.2765C25.9438 60.3234 26.3065 60.4593 26.6232 60.673C26.9615 60.9001 27.2266 61.2207 27.3864 61.5958C27.4823 61.8534 27.5144 62.1304 27.48 62.4032C27.4324 62.7658 27.3279 63.1186 27.1704 63.4485C27.0908 63.6158 26.9917 63.7731 26.8752 63.9171C26.7858 64.0444 26.6763 64.1564 26.5512 64.2487C26.2373 64.4509 25.9102 64.6315 25.572 64.7894C25.2469 65.0064 24.8782 65.1491 24.4919 65.2075C23.7999 65.26 23.1079 65.1044 22.5047 64.7606C22.0975 64.5373 21.7702 64.192 21.5688 63.7731C21.3674 63.3543 21.3019 62.8828 21.3815 62.4248C21.4653 62.0374 21.6462 61.6776 21.9071 61.3795C22.1241 61.1159 22.3847 60.8916 22.6775 60.7163C22.9511 60.536 23.2679 60.5072 23.4983 60.2621C23.5631 60.19 23.6567 60.0747 23.8295 60.4784C24.0376 60.9695 24.2085 61.4755 24.3407 61.9923C24.4271 62.3239 24.3983 62.3383 24.3407 62.3455C24.2564 62.3842 24.1698 62.4179 24.0815 62.4464C24.0083 62.4638 23.9362 62.4854 23.8655 62.5113H23.7647H23.6783C23.5631 62.5113 23.5271 62.5618 23.4839 62.6339C23.4342 62.7151 23.4022 62.8061 23.3903 62.9006C23.3903 63.0808 23.6135 63.0304 23.6783 63.1529C23.7102 63.1838 23.7391 63.2176 23.7647 63.2539C23.9807 63.5999 24.3551 63.3836 24.5999 63.2539C24.9301 63.1527 25.2449 63.0072 25.536 62.8213C25.7448 62.6267 25.8888 62.3527 25.7448 62.1004C25.6296 61.9706 25.5072 61.8048 25.3128 61.8697C25.1184 61.9346 24.816 61.9346 24.5927 62.0067C24.5135 62.0067 24.3911 61.7688 24.2111 61.2858C24.0311 60.8028 23.9735 60.4567 24.1031 60.4135C24.3007 60.3428 24.5063 60.2968 24.7152 60.2765Z" fill="#070C13"/>
<path d="M103.038 44.734C102.534 46.94 101.937 49.5785 101.325 52.2171C100.813 54.3798 100.36 56.6362 99.7549 58.8134C99.1501 60.9905 98.6677 63.3263 98.0917 65.5611C97.7029 67.0029 97.2493 68.4015 96.9253 69.8361C96.6013 71.2707 96.3061 72.8423 95.9173 74.3202C95.3053 76.6271 94.6501 78.9123 94.0669 81.2265C93.3469 83.9371 92.6269 86.6261 91.9068 89.3151C91.2372 91.7013 90.51 94.0803 89.8332 96.4665C89.4238 97.7087 89.092 98.9751 88.8396 100.258C88.782 100.648 88.7316 101.16 88.2636 101.225C87.725 101.379 87.1487 101.33 86.6436 101.088C86.3412 100.893 86.4348 100.525 86.5212 100.215C86.7804 99.1987 87.0468 98.1895 87.3348 97.1802C87.8172 95.5221 88.2852 93.8568 88.8396 92.2203C89.3004 90.8578 89.6676 89.4737 90.0708 88.0967C90.474 86.7198 90.7908 85.5303 91.23 84.2615C91.7916 82.5602 92.0797 80.7939 92.6197 79.0854C92.7349 78.7249 92.8357 78.3645 92.9797 78.0184C93.7135 75.9313 94.2769 73.7879 94.6645 71.6095C95.2477 69.0143 96.0397 66.4767 96.7165 63.903C97.4725 61.0194 98.2645 58.1862 98.9197 55.2953C99.3805 53.2624 99.971 51.251 100.36 49.2037C100.828 46.803 101.44 44.4384 102.045 42.0739C102.232 41.3529 102.635 40.906 103.189 40.8627C103.744 40.8195 104.017 41.1006 103.866 41.6918C103.636 42.5641 103.384 43.4364 103.038 44.734Z" fill="#070C13"/>
<path d="M74.1875 52.0077C74.1875 52.0077 84.9876 50.5659 85.7077 51.2868C86.4277 52.0077 86.4277 58.4959 86.4277 58.4959C86.4277 58.4959 86.4277 65.0778 82.8276 65.395L83.5476 61.3796L82.8276 54.1705V52.7286L74.1875 52.0077Z" fill="#070C13"/>
<path d="M73.6615 48.1944L79.4216 37.8494C79.5776 37.564 79.6326 37.2342 79.5777 36.9135C79.5228 36.5929 79.3612 36.3002 79.1192 36.0832C78.9752 35.9678 78.8312 35.8381 78.6728 35.7155C78.4619 35.5507 78.2093 35.448 77.9434 35.4189C77.6774 35.3898 77.4087 35.4355 77.1672 35.5508C76.9257 35.666 76.7211 35.8464 76.5763 36.0716C76.4314 36.2968 76.3521 36.5579 76.3472 36.8257V38.5991C76.345 38.8807 76.2626 39.1559 76.1096 39.3921L71.2351 46.7094C71.0549 46.9851 70.9744 47.3144 71.0072 47.6423C71.0399 47.9703 71.1839 48.2771 71.4151 48.5116C71.5725 48.6636 71.7624 48.7776 71.9704 48.8451C72.1784 48.9126 72.399 48.9318 72.6155 48.9012C72.832 48.8707 73.0387 48.7911 73.22 48.6687C73.4012 48.5462 73.5522 48.384 73.6615 48.1944Z" fill="#070C13"/>
<path d="M37.6471 116.699C38.0792 117.247 38.8739 117.341 39.4221 116.909L48.3555 109.868C48.9037 109.436 48.9978 108.641 48.5657 108.093C48.1336 107.544 47.3389 107.45 46.7907 107.882L38.8499 114.142L32.5906 106.201C32.1585 105.653 31.3638 105.559 30.8156 105.991C30.2674 106.423 30.1733 107.217 30.6054 107.766L37.6471 116.699ZM56.0705 54.098C43.5652 69.6844 39.6007 78.2995 38.4707 86.5862C37.913 90.6759 38.0536 94.6505 38.1207 99.1888C38.1881 103.749 38.1874 108.988 37.3845 115.768L39.8948 116.065C40.7169 109.123 40.7162 103.755 40.6482 99.1515C40.5799 94.5266 40.4497 90.7825 40.9753 86.9277C42.012 79.3255 45.6309 71.149 58.0422 55.6798L56.0705 54.098Z" fill="#070C13"/>
<path d="M48.8312 3.02144C49.1038 2.37885 48.8039 1.63693 48.1613 1.36432C47.5187 1.0917 46.7768 1.39163 46.5042 2.03422L48.8312 3.02144ZM75.1473 33.8109C76.5645 31.1182 77.133 28.8014 76.8427 26.7906C76.5448 24.7279 75.3767 23.2049 73.7963 22.0682C72.2481 20.9546 70.2541 20.1714 68.1461 19.5386C66.0309 18.9036 63.6821 18.3873 61.4029 17.8622C59.0986 17.3313 56.8511 16.7885 54.8345 16.0916C52.8121 15.3926 51.1092 14.5669 49.857 13.5159C48.632 12.4878 47.8409 11.2493 47.5904 9.64974C47.3345 8.01544 47.6226 5.87037 48.8312 3.02144L46.5042 2.03422C45.1851 5.14363 44.7396 7.78327 45.0931 10.0408C45.452 12.3331 46.6132 14.0935 48.2319 15.4521C49.8234 16.7878 51.8559 17.7366 54.0088 18.4807C56.1675 19.2268 58.5355 19.7955 60.8354 20.3254C63.1603 20.8611 65.4043 21.3547 67.4193 21.9597C69.4416 22.5667 71.1152 23.2534 72.3203 24.1203C73.4934 24.964 74.1647 25.9321 74.3408 27.1519C74.5244 28.4235 74.2015 30.1805 72.9104 32.6336L75.1473 33.8109Z" fill="#070C13"/>
<path d="M17.3756 13.3716L22.7608 22.347" stroke="#070C13" stroke-width="2.16667" stroke-linecap="round"/>
<path d="M16.6772 20.8581L23.7467 14.3777" stroke="#070C13" stroke-width="2.16667" stroke-linecap="round"/>
<path d="M117.744 86.4547L110.982 83.0652" stroke="#070C13" stroke-width="2.16667" stroke-linecap="round"/>
<path d="M117.641 82.4189L112.029 87.4694" stroke="#070C13" stroke-width="2.16667" stroke-linecap="round"/>
</svg>
