<svg width="130" height="130" viewBox="0 0 130 130" fill="none" xmlns="http://www.w3.org/2000/svg">
<path d="M122.316 112.473C122.275 112.405 122.205 112.339 122.209 112.273C122.266 111.787 122.357 111.306 122.481 110.833C122.564 110.443 122.453 110.064 122.236 110.049C121.857 107.598 121.75 103.296 121.683 95.886C121.612 88.099 121.705 80.351 121.714 72.648C121.728 60.155 121.755 47.574 121.945 35.075C122.016 30.433 121.875 25.765 121.857 21.094L121.846 16.605C121.851 16.5765 121.848 16.5473 121.839 16.52C121.829 16.4928 121.813 16.4684 121.791 16.449C121.77 16.43 121.743 16.4179 121.714 16.414H121.671H121.358L112.325 16.396L94.2655 16.403C89.7945 16.427 85.2595 16.577 80.8775 16.503C69.8895 16.31 58.8085 16.781 48.1885 16.547C36.9775 16.301 25.9885 16.747 14.8095 16.402C12.8505 16.342 10.8545 16.302 8.83548 16.28L7.31748 16.267H6.73948C6.70423 16.2635 6.66872 16.2635 6.63348 16.267C6.56306 16.2818 6.5011 16.3232 6.46063 16.3827C6.42016 16.4422 6.40434 16.5151 6.41648 16.586L6.48148 22.546L6.61048 28.646C6.71048 32.546 6.57248 36.146 6.53748 39.894L6.33248 68.424L6.10248 105.249L6.06748 109.5C6.04721 109.603 6.05367 109.709 6.08623 109.809C6.11878 109.908 6.17635 109.998 6.25342 110.069C6.33049 110.14 6.42448 110.19 6.52639 110.214C6.6283 110.238 6.73473 110.236 6.83548 110.207L15.4745 110.161C20.5245 110.115 25.3575 110.425 30.0745 110.304C35.0675 110.176 39.8875 110.18 44.7685 110.272C54.3215 110.452 63.9095 110.218 73.3345 110.284C86.0975 110.373 98.8165 109.949 111.54 110.316C118.103 110.504 122.38 111.216 122.202 112.234C122.072 112.972 120.39 113.234 115.686 113.451C108.853 113.771 101.812 113.616 94.9445 113.66C83.0675 113.738 71.2775 114.014 59.3995 114.008L30.1635 113.946L15.5445 113.916L8.23548 113.908L6.14748 113.901C5.63525 113.892 5.12988 113.782 4.66083 113.576C4.19179 113.37 3.76844 113.072 3.41548 112.701C2.70477 111.947 2.32241 110.942 2.35248 109.907V107.907L2.52748 15.346C2.62615 14.8223 2.83498 14.3256 3.14013 13.8888C3.44528 13.4519 3.83977 13.0849 4.29748 12.812C4.75988 12.5422 5.2735 12.3719 5.80548 12.312C6.07448 12.286 6.34948 12.282 6.62448 12.282H7.17148L11.0715 12.263L18.8795 12.235L34.5005 12.204L65.7515 12.146L97.3515 12.071L113.151 12.028L121.044 12H122.328C122.907 12.014 123.476 12.1503 123.998 12.4C124.515 12.6517 124.971 13.0101 125.339 13.4516C125.706 13.8931 125.975 14.4076 126.128 14.961C126.26 15.5175 126.312 16.0899 126.282 16.661V17.647L126.292 19.619C126.412 44.893 126.361 70.191 126.573 95.443C126.634 99.453 126.695 103.453 126.757 107.443C126.77 108.162 126.775 108.803 126.767 109.369L126.758 109.779L126.732 110.312C126.692 110.824 126.559 111.325 126.341 111.79C126.02 112.484 125.494 113.063 124.834 113.45C124.466 113.684 124.034 113.798 123.597 113.776C123.41 113.769 123.227 113.714 123.068 113.614C122.908 113.515 122.778 113.376 122.689 113.21C122.556 112.974 122.482 112.726 122.316 112.473Z" fill="black"/>
<path d="M110.795 103.902C110.763 103.846 110.705 103.79 110.709 103.732C110.745 103.321 110.839 102.916 110.99 102.532C111.119 102.253 111.141 101.935 111.05 101.641C110.924 101.19 110.862 100.724 110.867 100.256C110.814 99.5391 110.767 98.7111 110.737 97.7561C110.668 95.8431 110.632 93.4171 110.604 90.3461C110.545 83.8901 110.622 77.4681 110.63 71.0831C110.642 60.7271 110.664 50.2981 110.823 39.9381C110.881 36.0891 110.764 32.2201 110.749 28.3481L110.74 24.6741C110.741 24.6501 110.736 24.6264 110.725 24.6049C110.715 24.5835 110.699 24.565 110.679 24.5511C110.661 24.5359 110.64 24.5252 110.616 24.5201H110.58H110.159L102.671 24.5051L87.7015 24.5111C83.9955 24.5311 80.2355 24.6561 76.6015 24.5921C67.4935 24.4321 58.3085 24.8231 49.5015 24.6291C40.2075 24.4241 31.0955 24.7921 21.8325 24.5081C20.2085 24.4581 18.5535 24.4251 16.8805 24.4081L14.7705 24.3951C14.7121 24.4046 14.6584 24.4331 14.6178 24.4761C14.5771 24.5191 14.5517 24.5742 14.5455 24.6331L14.5975 29.3961L14.7095 34.4461C14.7925 37.6761 14.6775 40.6651 14.6485 43.7701L14.4775 67.4191L14.2865 97.9461L14.2575 101.433C14.2531 101.515 14.2676 101.598 14.2998 101.674C14.3321 101.749 14.3812 101.817 14.4435 101.871C14.5366 101.955 14.6562 102.003 14.7815 102.008H15.0735L22.2345 101.969C26.4195 101.931 30.4265 102.189 34.3345 102.088C38.4735 101.982 42.4695 101.988 46.5155 102.062C54.4345 102.211 62.3815 102.017 70.1945 102.072C80.7745 102.146 91.3175 101.793 101.864 102.098C107.304 102.255 110.849 102.85 110.702 103.698C110.594 104.314 109.202 104.53 105.302 104.713C99.6395 104.979 93.8025 104.85 88.1095 104.887C78.2645 104.952 68.4915 105.187 58.6455 105.177L34.4095 105.127L22.2915 105.102L16.2325 105.095H14.6325C13.7586 105.075 12.923 104.733 12.286 104.134C11.6491 103.536 11.2557 102.723 11.1815 101.852C11.1475 101.337 11.1725 101.184 11.1645 100.912V100.155L11.2645 62.0071L11.3055 42.9311L11.2945 33.3901L11.2785 28.6181L11.2665 26.2321L11.2605 25.0381V24.7381C11.2605 24.6511 11.2605 24.4261 11.2745 24.2771C11.2953 23.9443 11.3675 23.6168 11.4885 23.3061C11.7301 22.6688 12.1547 22.1172 12.7089 21.7205C13.2632 21.3239 13.9223 21.1001 14.6035 21.0771L15.5115 21.0681L18.7465 21.0531L25.2095 21.0281L38.1585 21.0031L64.0585 20.9631L90.2505 20.9001L103.343 20.8641L109.886 20.8411H110.811C111.301 20.8512 111.784 20.9604 112.23 21.1621C113.129 21.5674 113.83 22.3126 114.179 23.2341C114.35 23.6942 114.433 24.1823 114.424 24.6731V25.4921L114.432 27.1261C114.532 48.0771 114.49 69.0461 114.667 89.9791C114.718 93.3031 114.769 96.6194 114.82 99.9281C114.831 100.528 114.835 101.055 114.828 101.528C114.826 102.365 114.555 103.178 114.055 103.849C113.811 104.234 113.47 104.547 113.067 104.758C112.663 104.968 112.211 105.069 111.755 105.049C111.607 105.026 111.467 104.967 111.347 104.877C111.226 104.787 111.13 104.669 111.066 104.533C110.989 104.317 110.899 104.107 110.795 103.902Z" fill="black"/>
<path d="M8.66043 46.806C8.2761 47.9848 8.10212 49.222 8.14643 50.461C8.06843 51.861 7.99943 53.2644 7.93943 54.671C7.8221 57.395 7.7411 60.1207 7.69643 62.848C7.65343 65.487 7.65743 68.128 7.68943 70.767C7.70543 72.167 7.73143 73.569 7.76743 74.973C7.79943 76.245 7.55143 77.902 8.26743 78.995C8.35443 79.127 9.20643 78.659 9.25243 78.527C9.56983 77.3273 9.65704 76.0782 9.50943 74.846C9.4721 73.442 9.44443 72.0374 9.42643 70.632C9.39043 67.904 9.39543 65.177 9.42643 62.45C9.45543 59.81 9.50843 57.171 9.59943 54.532C9.64877 53.132 9.70677 51.732 9.77343 50.332C9.82943 49.145 10.2735 47.355 9.70743 46.288C9.63143 46.144 8.72143 46.68 8.66443 46.812L8.66043 46.806Z" fill="black"/>
<path d="M118.572 61.6619C118.544 61.5848 118.496 61.5164 118.433 61.4637C118.37 61.411 118.294 61.3757 118.213 61.3614C118.132 61.3472 118.049 61.3544 117.971 61.3824C117.894 61.4103 117.826 61.4581 117.772 61.5209C117.538 61.8266 117.39 62.1901 117.345 62.5729C117.223 63.0538 117.189 63.5529 117.245 64.0459C117.326 64.5319 117.616 64.9939 117.996 65.0459C118.376 65.0979 118.712 64.7359 118.915 64.3209C119.154 63.7962 119.252 63.2187 119.201 62.6448C119.149 62.0708 118.95 61.5199 118.622 61.0459" fill="#020202"/>
<path d="M118.943 61.6041C118.96 61.5291 118.971 61.4528 118.976 61.3761L118.915 61.5471C118.999 61.4186 119.056 61.2743 119.081 61.1231C119.097 60.9751 118.954 60.8851 118.842 60.8381C118.59 60.7704 118.324 60.7649 118.069 60.8222C117.813 60.8795 117.575 60.9978 117.375 61.1671C116.983 61.4791 116.709 61.9159 116.598 62.4051C116.3 63.2159 116.29 64.1046 116.569 64.9221C116.642 65.088 116.749 65.2364 116.884 65.3572C117.018 65.478 117.178 65.5683 117.35 65.6221C117.667 65.6737 117.992 65.6494 118.298 65.5512C118.604 65.453 118.882 65.2836 119.109 65.0571C119.69 64.4958 120.033 63.7329 120.066 62.9261C120.157 62.1461 119.959 61.3598 119.509 60.7161C119.254 60.4031 118.775 60.5031 118.455 60.6741C118.216 60.8021 117.655 61.1941 117.861 61.5461C117.987 61.7602 118.094 61.9851 118.179 62.2181C118.258 62.4281 118.306 62.6483 118.322 62.8721C118.35 63.1365 118.347 63.4032 118.315 63.6671C118.308 63.7251 118.3 63.7831 118.289 63.8401C118.307 63.7461 118.269 63.9151 118.262 63.9401C118.229 64.0687 118.187 64.1947 118.135 64.3171C118.125 64.3411 118.065 64.4681 118.089 64.4231C118.122 64.3611 118.069 64.4551 118.067 64.4591L117.995 64.5671C117.913 64.6931 118.067 64.5001 117.966 64.6041C117.945 64.6251 117.866 64.6791 117.966 64.6101C118.034 64.5582 118.109 64.5155 118.187 64.4831C118.221 64.4701 118.501 64.3721 118.541 64.4431C118.541 64.4431 118.397 64.3581 118.5 64.4431C118.461 64.4121 118.419 64.3821 118.379 64.3521C118.315 64.3051 118.336 64.3141 118.36 64.3411C118.336 64.3122 118.314 64.2819 118.294 64.2501C118.028 63.7262 117.971 63.1201 118.137 62.5561C118.162 62.4201 118.194 62.2661 118.231 62.1241C118.253 62.0391 118.277 61.9541 118.307 61.8711C118.318 61.8411 118.329 61.8111 118.342 61.7821C118.342 61.7691 118.402 61.6581 118.368 61.7181C118.334 61.7781 118.385 61.6951 118.389 61.6891C118.463 61.5801 118.36 61.7131 118.322 61.7441C118.268 61.7889 118.208 61.8278 118.145 61.8601C118.254 61.8031 118.065 61.8921 118.045 61.8981C117.99 61.9173 117.931 61.9291 117.872 61.9331C117.844 61.9411 117.814 61.9411 117.785 61.9331C117.695 61.9151 117.736 61.9211 117.909 61.9511C118.105 61.9468 118.297 61.9033 118.475 61.8231L118.124 61.8451C118.166 61.8578 118.206 61.8767 118.242 61.9011C118.374 61.9496 118.52 61.9464 118.65 61.8923C118.779 61.8382 118.884 61.737 118.942 61.6091L118.943 61.6041Z" fill="#020202"/>
<path d="M124.747 110.021C124.813 110 124.88 109.983 124.947 109.969C125.412 109.87 125.894 109.892 126.347 110.033C126.562 110.127 126.748 110.277 126.885 110.467C127.021 110.658 127.104 110.881 127.123 111.115C127.238 112.004 127.027 112.904 126.529 113.649C125.808 114.722 124.809 115.579 123.637 116.127C122.386 116.724 121.048 117.118 119.673 117.295C119.022 117.387 118.366 117.444 117.708 117.464C117.382 117.475 117.044 117.464 116.723 117.47L115.876 117.455C112.216 117.401 108.53 117.335 104.87 117.106C103.511 117.021 102.142 117.148 100.77 117.151C97.2385 117.16 93.7125 117.008 90.1845 117.037C88.8745 117.048 87.5445 117.183 86.2615 117.093C83.0445 116.866 79.7925 117.302 76.6835 117.035C73.4015 116.754 70.1765 117.162 66.9055 116.786C64.535 116.556 62.1483 116.549 59.7765 116.765C58.6753 116.797 57.5732 116.76 56.4765 116.656L48.1205 116.362C44.5285 116.221 40.9285 116.202 37.3335 116.017C35.6915 115.933 33.9575 115.933 32.2895 115.967C30.8095 115.997 29.3975 115.673 28.0135 115.779C26.5799 115.884 25.1404 115.879 23.7075 115.765C20.9075 115.555 18.0995 115.759 15.3385 115.665C13.4695 115.6 11.6015 115.665 9.73847 115.693L8.33847 115.706C7.7568 115.706 7.17668 115.646 6.60747 115.526C5.44585 115.3 4.35125 114.812 3.40747 114.098C2.86906 113.69 2.44591 113.149 2.17947 112.528C1.95561 112.024 1.93483 111.454 2.12147 110.935C2.20852 110.754 2.31623 110.583 2.44247 110.427C2.56131 110.307 2.70001 110.208 2.85247 110.135C3.08905 110.019 3.35945 109.992 3.61447 110.058C3.73398 110.082 3.84744 110.129 3.948 110.198C4.04856 110.267 4.13411 110.355 4.19947 110.458C4.27247 110.551 4.29947 110.652 4.38947 110.765C4.45496 110.881 4.55067 110.978 4.66647 111.044C5.2411 111.415 5.86438 111.704 6.51847 111.903C6.90648 112.029 7.30512 112.119 7.70947 112.173C7.90181 112.199 8.09543 112.215 8.28947 112.22H9.04547C12.5255 112.18 15.9825 111.94 19.4625 111.983L36.5945 112.259C45.5855 112.34 54.5645 112.749 63.5655 112.652C69.6655 112.586 75.7655 112.694 81.8725 112.698L100.384 112.715L111.495 112.727L117.011 112.721C118.545 112.709 120.058 112.377 121.455 111.746C122.24 111.376 122.663 110.808 122.613 110.629C122.626 110.566 122.605 110.518 122.713 110.482C122.859 110.389 123.023 110.33 123.194 110.309C123.723 110.191 124.236 110.146 124.747 110.021Z" fill="black"/>
<path d="M45.5 80.5455C45.5 81.4677 44.9763 82.439 43.9894 83.2346C43.0045 84.0285 41.7264 84.5 40.5833 84.5C39.5149 84.5 38.8116 84.0935 38.3375 83.4827C37.8282 82.8265 37.5 81.816 37.5 80.5455C37.5 79.6002 37.9284 78.9004 38.6874 78.3808C39.4916 77.8303 40.6659 77.5 41.9583 77.5C43.2437 77.5 44.1125 77.8251 44.6384 78.2788C45.1309 78.7036 45.5 79.3925 45.5 80.5455Z" fill="black" stroke="black" stroke-width="3"/>
<path d="M81.5 77.4545C81.5 76.3584 81.9494 75.3442 82.6186 74.6024C83.3076 73.8387 84.0964 73.5 84.6667 73.5C85.104 73.5 85.4959 73.6979 85.8555 74.335C86.2433 75.0219 86.5 76.1039 86.5 77.4545C86.5 78.5853 86.1131 79.3134 85.6336 79.7647C85.1345 80.2346 84.432 80.5 83.6667 80.5C82.9312 80.5 82.4633 80.2597 82.1518 79.8901C81.8116 79.4866 81.5 78.7382 81.5 77.4545Z" fill="black" stroke="black" stroke-width="3"/>
<path d="M85.4963 74.1153L86.6141 74.6839L85.4963 74.1153ZM103.193 41.6185C102.979 40.9637 102.271 40.6037 101.612 40.8144L90.8746 44.248C90.2157 44.4587 89.8552 45.1604 90.0693 45.8152C90.2834 46.47 90.9912 46.83 91.6501 46.6193L101.195 43.5671L104.296 53.0521C104.511 53.7069 105.218 54.0669 105.877 53.8562C106.536 53.6455 106.897 52.9439 106.683 52.2891L103.193 41.6185ZM20.752 95.3225C20.1958 95.7311 20.0799 96.5109 20.493 97.0643C20.9062 97.6177 21.6919 97.7351 22.2481 97.3265L20.752 95.3225ZM39.2109 83.3141L38.4628 82.3121L39.2109 83.3141ZM43.2177 81.7912L43.3397 83.0311L43.2177 81.7912ZM79.123 78.4119L79.245 79.6519L79.123 78.4119ZM86.6141 74.6839L103.118 42.5686L100.882 41.4314L84.3785 73.5467L86.6141 74.6839ZM22.2481 97.3265L39.9589 84.3161L38.4628 82.3121L20.752 95.3225L22.2481 97.3265ZM43.3397 83.0311L79.245 79.6519L79.0011 77.172L43.0958 80.5513L43.3397 83.0311ZM39.9589 84.3161C40.9465 83.5906 42.1153 83.1464 43.3397 83.0311L43.0958 80.5513C41.4178 80.7092 39.8162 81.3179 38.4628 82.3121L39.9589 84.3161ZM84.3785 73.5467C83.3291 75.5887 81.3018 76.9555 79.0011 77.172L79.245 79.6519C82.3979 79.3551 85.176 77.4822 86.6141 74.6839L84.3785 73.5467Z" fill="black"/>
<path d="M70.4086 39.3062C70.4336 38.9527 70.3712 38.5985 70.2267 38.275C70.038 37.9967 69.816 37.7425 69.5657 37.518C69.0448 37.0311 68.4797 36.5938 67.8776 36.2119C66.7394 35.4777 65.4858 34.9405 64.1693 34.6226C61.114 33.9026 57.9046 34.245 55.0699 35.5932C52.2617 36.8271 49.9588 38.9825 48.5422 41.703C47.3543 44.0952 47.0347 47.1978 48.2985 49.6335C49.6776 52.2905 52.8555 52.8349 55.5661 53.0092C59.3479 53.2528 63.0739 53.0162 66.851 52.9009C67.6195 52.8631 68.385 53.022 69.075 53.3624C69.7651 53.7028 70.357 54.2135 70.7947 54.8462C71.7883 56.0659 72.5357 57.4668 72.9956 58.9712C73.8196 62.0468 71.6418 65.0128 69.1955 66.6621C69.0448 66.7633 68.8882 66.8575 68.7322 66.9511C68.6487 67.0011 68.2125 67.2454 68.3061 67.1983C68.1766 67.266 68.043 67.329 67.9105 67.3908C67.9188 67.3867 67.3154 67.6492 67.6044 67.5315C67.0385 67.7748 66.4478 67.9558 65.8427 68.0712C64.2329 68.3815 62.5844 68.4375 60.9572 68.2372C59.0082 68.005 57.0923 67.5489 55.2477 66.8781C53.2829 66.1794 51.4558 65.19 49.385 64.8597C49.0178 64.8009 46.6668 65.5661 47.04 66.1282C47.9235 67.4673 49.7983 67.9971 51.2504 68.5268C52.8238 69.1105 54.4426 69.5633 56.0906 69.8806C59.3358 70.4969 62.679 70.364 65.8651 69.4921C71.4157 67.9617 79.4851 62.7819 76.2565 55.977C75.6096 54.5136 74.6828 53.1909 73.5283 52.0833C72.2739 50.9649 70.7512 50.7883 69.129 50.8472C65.5189 51.0378 61.9011 51.0344 58.2914 50.8372C56.8841 50.8033 55.4971 50.494 54.2087 49.9266C53.5744 49.6081 53.0157 49.1573 52.5702 48.6047C52.1248 48.052 51.803 47.4103 51.6265 46.7228C51.2896 45.4336 51.2461 44.0853 51.4992 42.7771C51.7524 41.4689 52.2957 40.2342 53.0892 39.1638C53.7864 38.1452 54.7204 37.311 55.811 36.7328C56.1924 36.548 55.9528 36.6792 55.8645 36.7104C56.1153 36.6221 56.2106 36.5927 56.293 36.5727C56.5989 36.4919 56.91 36.4329 57.2242 36.3961C57.9534 36.3104 58.6901 36.3082 59.4198 36.3896C60.981 36.5731 62.4953 37.0418 63.8873 37.7723C64.5687 38.1203 65.2186 38.5268 65.8298 38.9872C66.1535 39.2315 66.4773 39.4757 66.801 39.7218C67.2379 40.0047 67.7125 40.2249 68.2107 40.3757C68.7163 40.58 70.461 39.9825 70.4063 39.3086L70.4086 39.3062Z" fill="black"/>
<path d="M60.2905 76.2902C60.5713 74.7529 60.6175 73.1819 60.4276 71.6307C60.3346 70.1174 60.161 68.6064 60.0285 67.0984C59.7596 64.0323 59.4111 60.9727 59.1162 57.909C58.5276 51.7915 58.0172 45.6581 57.3574 39.5483C56.9936 36.1767 56.87 32.6297 55.5409 29.4753C55.2902 28.8797 54.1371 29.4594 54.0394 29.9144C53.3819 32.9847 53.5803 36.0643 53.7627 39.1804C53.9393 42.233 54.2254 45.2791 54.4991 48.324C55.0453 54.4063 55.6877 60.4779 56.4262 66.5386C56.6369 68.2668 56.8971 69.9921 57.1508 71.7143C57.3957 73.3695 57.5717 75.2013 58.4157 76.6675C58.7754 77.2926 60.1304 76.9618 60.2905 76.292V76.2902Z" fill="black"/>
<path d="M60.891 29.7054C60.6093 29.9252 60.3859 30.2108 60.2402 30.537C60.0944 30.8632 60.0309 31.2202 60.0552 31.5766C60.0276 32.4093 60.0557 33.2429 60.1393 34.0718C60.2712 35.6875 60.3877 37.3056 60.542 38.919C60.8533 42.1823 61.1618 45.4473 61.5143 48.7065C62.2128 55.1644 62.9119 61.6223 63.6116 68.0802C63.7846 69.6824 63.9581 71.2846 64.1319 72.8868C64.2347 73.8388 64.3379 74.7906 64.4415 75.7422C64.4863 76.1607 64.4821 76.4579 64.8777 76.6946C65.241 76.9021 65.6684 76.9678 66.0773 76.8788C66.4592 76.786 66.8103 76.5951 67.0958 76.3249C67.3813 76.0547 67.5912 75.7147 67.7048 75.3384C67.7086 74.9636 67.6675 74.5897 67.5824 74.2247L67.434 72.9056C67.2516 71.2736 67.0693 69.6414 66.8872 68.0089C66.1566 61.4612 65.4253 54.9138 64.6935 48.3669C64.2897 44.7598 63.8694 41.1487 63.3908 37.5505C63.1495 35.7346 62.8776 33.9223 62.6445 32.1052C62.5927 31.702 62.5268 31.3006 62.4744 30.8974C62.4853 30.5258 62.4413 30.1547 62.3437 29.7961C62.0447 29.2693 61.2701 29.3776 60.8886 29.7031L60.891 29.7054Z" fill="black"/>
<path d="M20 126C21.6569 126 23 124.657 23 123C23 121.343 21.6569 120 20 120C18.3431 120 17 121.343 17 123C17 124.657 18.3431 126 20 126Z" stroke="black" stroke-width="3" stroke-miterlimit="10"/>
<path d="M114 9C115.657 9 117 7.65685 117 6C117 4.34315 115.657 3 114 3C112.343 3 111 4.34315 111 6C111 7.65685 112.343 9 114 9Z" stroke="black" stroke-width="3" stroke-miterlimit="10"/>
</svg>
