<svg width="130" height="130" viewBox="0 0 130 130" fill="none" xmlns="http://www.w3.org/2000/svg">
<path d="M73.6153 79.0524C73.8417 78.2004 74.439 77.4569 75.2763 76.9848C75.6554 76.7532 76.082 76.5906 76.5306 76.5067C76.9792 76.4227 77.4409 76.4191 77.8881 76.4961C78.8437 76.6314 79.7116 77.0558 80.3444 77.6975C80.6846 78.1459 80.9369 78.6426 81.0912 79.1672C81.3088 79.7157 81.3491 80.3094 81.2077 80.8823C80.9287 81.7665 80.3167 82.5442 79.4739 83.0852C78.9886 83.4011 78.4304 83.6167 77.8414 83.7156C77.2524 83.8146 76.6479 83.7944 76.0735 83.6565C75.0876 83.4097 74.2519 82.8371 73.7374 82.0559C73.4645 81.6545 73.4015 81.2099 73.1362 80.8008C73.0541 80.676 72.9354 80.4959 73.4277 80.39C74.0284 80.2506 74.644 80.1724 75.2625 80.1568C75.6538 80.1302 75.6663 80.1945 75.6688 80.2305C75.6712 80.2666 75.743 80.4789 75.7767 80.6142C75.8643 80.8419 75.9864 81.0577 76.1397 81.2556C76.2929 81.4417 76.5164 81.5727 76.7708 81.6254C77.0214 81.6859 77.2792 81.7218 77.5396 81.7324C77.9419 81.7485 78.1827 81.4353 78.4913 81.2768C78.5621 81.2374 78.6365 81.2033 78.7136 81.1748C78.8379 81.1364 78.9488 81.0693 79.0349 80.9808C79.121 80.8922 79.1792 80.7852 79.2035 80.671C79.2375 80.4512 79.2224 80.2283 79.1589 80.0152C79.1312 79.4992 78.92 79.0068 78.5557 78.6082C78.3386 78.3954 78.06 78.2392 77.7489 78.1559C77.4378 78.0726 77.1057 78.0653 76.7875 78.1346C76.5728 78.1659 76.3666 78.2345 76.1809 78.3366C75.9952 78.4388 75.8338 78.5723 75.706 78.7294C75.4709 79.0799 75.3242 79.4704 75.276 79.8735C75.2834 79.9816 74.9617 80.0686 74.3538 80.1606C73.7459 80.2526 73.3838 80.2265 73.3696 80.0175C73.3877 79.6865 73.4708 79.3599 73.6153 79.0524Z" fill="#070C13"/>
<path d="M82.1792 82.6144C82.7941 83.1918 83.5308 83.8797 84.264 84.5747C84.8625 85.1492 85.5069 85.709 86.0868 86.3321C86.6667 86.9553 87.3306 87.5411 87.9371 88.1584C88.3241 88.5653 88.6803 88.998 89.0811 89.3715C89.4819 89.7451 89.936 90.1246 90.3351 90.5368C90.9568 91.1828 91.5604 91.847 92.1917 92.4797C92.922 93.2392 93.645 93.9954 94.3681 94.7517C95.002 95.438 95.619 96.1519 96.2512 96.8418C96.5659 97.2293 96.9083 97.5819 97.2762 97.8975C97.3926 97.9838 97.5519 98.0846 97.4564 98.3269C97.3734 98.6175 97.2126 98.8968 97.0046 99.112C96.8634 99.2335 96.7634 99.1326 96.6809 99.0437C96.4043 98.7643 96.132 98.4823 95.865 98.1897C95.4288 97.7042 94.9866 97.2249 94.5757 96.7069C94.2334 96.276 93.8604 95.8884 93.4988 95.484C93.1372 95.0796 92.8169 94.7459 92.5007 94.3396C92.0698 93.8084 91.5486 93.4036 91.1099 92.8821C91.0176 92.7714 90.9218 92.6679 90.8416 92.5451C90.3242 91.8711 89.7453 91.2735 89.1106 90.7582C88.3848 90.0839 87.7306 89.3142 87.0355 88.5966C86.2562 87.7936 85.5027 86.9802 84.6957 86.2263C84.1281 85.6961 83.6003 85.1046 83.0099 84.6081C82.3206 84.0198 81.6795 83.3653 81.0366 82.7144C80.8413 82.5146 80.7922 82.2479 80.9165 81.9659C81.0409 81.6838 81.2039 81.5895 81.3646 81.7522C81.5999 81.9959 81.8299 82.2504 82.1792 82.6144Z" fill="#070C13"/>
<path d="M94.4034 99.5852C93.7511 99.0456 92.9697 98.4028 92.1915 97.7526C91.5557 97.2148 90.875 96.6944 90.2545 96.1069C89.6341 95.5195 88.9323 94.9742 88.2856 94.3941C87.8722 94.0111 87.4877 93.6005 87.0627 93.2514C86.6376 92.9024 86.1591 92.5505 85.7332 92.1629C85.0694 91.5551 84.4226 90.9281 83.7501 90.3341C82.9704 89.6196 82.1982 88.9078 81.426 88.196C80.7474 87.5487 80.0838 86.8729 79.4068 86.2219C79.0668 85.8539 78.7015 85.5224 78.3131 85.2293C78.1912 85.1501 78.0254 85.0588 78.1046 84.8115C78.1683 84.5167 78.3103 84.2286 78.5037 84.0017C78.6366 83.8722 78.7432 83.967 78.8315 84.0508C79.1262 84.3133 79.4169 84.5785 79.7029 84.8547C80.1707 85.3132 80.6441 85.7653 81.0888 86.2579C81.4593 86.6675 81.8575 87.0322 82.2454 87.4143C82.6333 87.7964 82.9753 88.1104 83.3181 88.497C83.7836 89.0015 84.331 89.3746 84.8037 89.869C84.9032 89.974 85.0057 90.0716 85.094 90.1894C85.6553 90.8312 86.2731 91.3932 86.9412 91.8699C87.7107 92.4998 88.415 93.229 89.1568 93.904C89.9884 94.659 90.7947 95.4261 91.6507 96.1306C92.2527 96.626 92.819 97.1849 93.4416 97.6455C94.1689 98.1917 94.8526 98.8068 95.5378 99.4182C95.746 99.6061 95.8128 99.8692 95.7074 100.158C95.6019 100.446 95.4454 100.55 95.2741 100.397C95.023 100.168 94.7765 99.9278 94.4034 99.5852Z" fill="#070C13"/>
<path d="M71.9413 73.1618C72.7934 71.9224 73.486 70.3968 72.9885 69.0418C72.6773 68.3148 72.1302 67.6996 71.424 67.2826C71.0361 67.0326 70.6266 66.8132 70.1998 66.6264C69.9722 66.5313 69.7514 66.4289 69.51 66.3485C69.0984 66.2002 68.6788 66.0719 68.2527 65.9641C67.8704 65.8297 67.5122 65.6421 67.1902 65.4075C67.0437 65.289 66.9284 65.1404 66.8531 64.9731C66.7779 64.8057 66.7446 64.6241 66.756 64.4421C66.7582 64.2552 66.8058 64.0708 66.8954 63.9031C66.9849 63.7353 67.114 63.5886 67.2726 63.4742L67.4977 63.3138L67.6099 63.2302L67.7823 63.1632C68.0198 63.078 68.2261 62.9672 68.5012 62.8933L69.3041 62.666L70.03 62.4992C70.3859 62.4198 70.7564 62.3393 71.1058 62.2741C71.8531 62.1422 72.6076 62.0517 73.3655 62.0032C75.0036 61.8827 76.6449 62.1363 78.1488 62.7423C79.7221 63.4682 80.9453 64.7202 81.5796 66.2541C82.2319 67.9186 82.5106 69.6942 82.3984 71.4703C82.3609 72.3296 82.2785 73.1782 82.1589 74.0223L81.9494 75.2803L81.7008 76.3957C81.6863 76.4217 81.6797 76.4508 81.6817 76.48C81.6836 76.5091 81.6942 76.5371 81.7121 76.5608L82.2255 77.0648L83.5362 78.3439L86.0814 80.8656L91.1209 85.9195C93.4794 88.2973 95.8523 90.6696 98.2395 93.0362L105.219 99.9482C105.234 99.9584 105.253 99.9633 105.272 99.962C105.29 99.9608 105.308 99.9534 105.322 99.9412L105.57 99.8L106.16 99.4766C106.956 99.046 107.779 98.6624 108.626 98.328C110.024 97.746 111.515 97.39 113.036 97.2753C113.871 97.2227 114.707 97.3158 115.503 97.5499C116.345 97.7926 117.108 98.2302 117.72 98.8226C118.268 99.4079 118.7 100.08 118.997 100.809C119.255 101.49 119.434 102.196 119.531 102.914C119.712 104.273 119.742 105.646 119.618 107.013C119.642 107.363 119.555 107.708 119.519 108.056L119.479 108.445C119.49 108.604 119.449 108.765 119.408 108.92C119.351 109.203 119.223 109.47 119.034 109.699C118.843 109.931 118.592 110.113 118.305 110.227C118.018 110.341 117.705 110.383 117.397 110.349L116.914 110.292L116.443 110.192L115.942 110.095C114.654 109.84 113.333 109.748 112.016 109.823C111.455 109.859 110.905 109.987 110.391 110.203L110.099 110.361C110.028 110.429 109.951 110.492 109.869 110.549C109.816 110.62 109.759 110.689 109.698 110.754L109.513 111.071C109.302 111.508 109.201 111.985 109.218 112.463C109.235 112.941 109.37 113.408 109.612 113.828C109.855 114.272 110.207 114.656 110.639 114.946C110.849 115.085 111.075 115.202 111.312 115.295C111.428 115.343 111.549 115.381 111.673 115.408C111.858 115.457 112.048 115.488 112.24 115.501C112.683 115.528 113.104 115.691 113.436 115.966C113.773 116.231 113.993 116.605 114.053 117.015L114.096 117.648L114.127 118.102C114.143 118.343 114.101 118.594 114.081 118.838C114.001 119.87 113.709 120.88 113.221 121.812C112.689 122.866 111.794 123.723 110.681 124.244C109.637 124.701 108.489 124.903 107.344 124.83C106.818 124.809 106.295 124.754 105.778 124.667C105.271 124.59 104.821 124.476 104.343 124.384C103.38 124.171 102.433 123.901 101.509 123.575C99.4829 122.928 97.7389 121.685 96.5345 120.03C95.9107 119.082 95.4887 118.029 95.2917 116.929C95.2735 116.661 95.1814 116.39 95.1417 116.131L95.0875 115.333C95.0466 114.811 95.0431 114.288 95.0768 113.765C95.0815 113.25 95.1204 112.735 95.1933 112.223L95.2744 111.465L95.4006 110.717C95.4995 110.219 95.5608 109.711 95.6826 109.226L95.9906 107.899L83.2541 96.438L73.258 87.4439L70.7916 85.2139C70.7779 85.1894 70.7577 85.1686 70.733 85.1534C70.7083 85.1383 70.6799 85.1292 70.6504 85.1271C70.6209 85.1249 70.5912 85.1298 70.5641 85.1413C70.537 85.1527 70.5133 85.1704 70.4953 85.1926L69.9242 85.5768C69.663 85.7466 69.4003 85.8957 69.1313 86.0591C68.0492 86.6896 66.8692 87.1568 65.635 87.4436C64.3487 87.7438 63.0091 87.7663 61.7174 87.5093C60.3705 87.1859 59.1309 86.5586 58.1061 85.6818C57.6169 85.2604 57.1664 84.801 56.7595 84.3085C56.3475 83.8345 55.9801 83.3278 55.6613 82.794L55.1737 82.0187L55.0413 81.8066C54.9907 81.6991 54.9463 81.5891 54.9084 81.4771C54.8463 81.3004 54.8042 81.118 54.7829 80.9328C54.6815 80.3288 54.6204 79.7192 54.5999 79.1074C54.4964 77.7895 54.7624 76.4662 55.3713 75.2686C55.6148 74.8432 55.945 74.4663 56.3428 74.1593C56.7629 73.8459 57.2516 73.6238 57.7731 73.5094C58.1161 73.4164 58.4748 73.3885 58.8281 73.4274C59.1815 73.4662 59.5224 73.5711 59.8307 73.7358C60.1997 73.9866 60.5118 74.3034 60.7492 74.6684C60.798 74.7294 60.8308 74.8004 60.8449 74.8758C60.859 74.9512 60.854 75.0287 60.8303 75.1022C60.8066 75.1758 60.7649 75.2432 60.7085 75.2991C60.6521 75.3551 60.5826 75.3979 60.5057 75.4242C60.0477 75.6281 58.8241 75.4141 58.2001 75.6707C57.9282 75.7763 57.687 75.9419 57.4972 76.1533C57.3074 76.3648 57.1747 76.6157 57.1104 76.8847C56.8814 77.632 56.7896 78.4093 56.8389 79.1833C56.867 79.5959 56.8955 80.0155 56.9235 80.4281L56.9515 80.8408L57.2241 81.2714C57.4621 81.6283 57.6653 82.0153 57.924 82.3501L58.7284 83.3387C59.6036 84.321 60.7702 85.0371 62.0826 85.3979C63.4187 85.6926 64.8241 85.5778 66.093 85.0702C66.8098 84.8326 67.4982 84.5241 68.1464 84.1499C68.4659 83.9693 68.7693 83.769 69.0727 83.5688C69.3761 83.3685 69.6291 83.1855 69.9201 83.0206C70.2471 82.879 70.6104 82.8303 70.9649 82.8806C71.3213 82.9251 71.6544 83.0685 71.9218 83.2923C72.0623 83.4071 72.1964 83.5362 72.3369 83.651L72.5578 83.864L73.422 84.6483L75.1372 86.2384C78.9446 89.7592 82.829 93.2194 86.6781 96.7028C90.2507 99.9148 93.8486 103.173 97.3805 106.437C97.6386 106.628 97.8447 106.875 97.9823 107.156C98.1049 107.444 98.1265 107.762 98.0439 108.064L97.7752 109.208C97.6963 109.566 97.5944 109.911 97.5453 110.274C97.4233 110.973 97.2718 111.674 97.2186 112.41C97.0299 113.803 97.0685 115.212 97.333 116.59C97.5719 117.904 98.2386 119.114 99.2418 120.053C100.318 120.964 101.594 121.643 102.982 122.044C103.616 122.257 104.276 122.426 104.937 122.603L105.94 122.831L106.902 122.994C107.784 123.144 108.693 123.097 109.554 122.855C110.382 122.591 111.08 122.052 111.516 121.34C111.961 120.586 112.231 119.752 112.308 118.896C112.338 118.68 112.337 118.459 112.36 118.243L112.338 117.92C112.333 117.844 112.328 117.775 112.323 117.706C112.33 117.637 112.32 117.567 112.294 117.501C112.268 117.436 112.226 117.377 112.172 117.33C112.05 117.249 111.902 117.208 111.752 117.213L111.605 117.223C111.529 117.214 111.455 117.201 111.381 117.183L110.938 117.068C110.65 116.985 110.371 116.876 110.105 116.745C109.309 116.337 108.639 115.745 108.157 115.024C107.675 114.304 107.396 113.48 107.348 112.627C107.295 111.758 107.507 110.89 107.96 110.126C108.185 109.722 108.495 109.365 108.871 109.076C109.246 108.787 109.68 108.572 110.146 108.444C110.714 108.263 111.303 108.151 111.9 108.11C113.199 108.028 114.502 108.102 115.778 108.331C116.098 108.378 116.412 108.44 116.718 108.502L117.264 108.617C117.338 108.626 117.414 108.612 117.479 108.578C117.545 108.543 117.597 108.49 117.628 108.426C117.662 108.286 117.684 108.143 117.694 108C117.843 106.872 117.904 105.737 117.876 104.602C117.875 103.507 117.672 102.422 117.275 101.395C117.08 100.913 116.801 100.465 116.448 100.07C116.096 99.7068 115.664 99.4202 115.182 99.23C114.117 98.8988 112.971 98.8616 111.879 99.1227C110.713 99.3691 109.58 99.7429 108.504 100.236C107.953 100.481 107.411 100.746 106.885 101.037L106.005 101.532C105.826 101.657 105.617 101.74 105.397 101.773C105.177 101.806 104.952 101.788 104.742 101.722C104.504 101.632 104.292 101.49 104.124 101.308L92.9127 90.047C89.2195 86.3273 85.4954 82.6213 81.7402 78.9288L80.7289 77.9335L80.4603 77.6684C80.3306 77.5451 80.2152 77.4094 80.1158 77.2634C79.9335 76.9606 79.8853 76.6018 79.9815 76.2638L80.2442 75.0299C80.3139 74.6451 80.3758 74.254 80.4381 73.8698C80.5614 73.0969 80.6414 72.3189 80.6779 71.5388C80.8019 70.0204 80.6107 68.4965 80.115 67.0514C79.8764 66.3797 79.4884 65.7641 78.9767 65.2452C78.465 64.7262 77.841 64.3156 77.1458 64.0403C75.6633 63.5398 74.0642 63.4103 72.5052 63.6646C71.9291 63.7325 71.3574 63.8313 70.7928 63.9606L70.364 64.0519L70.0889 64.1258L69.7927 64.2151L69.5117 64.3102C69.4697 64.3341 69.4366 64.3696 69.417 64.4118C69.3974 64.454 69.3923 64.5008 69.4023 64.5456C69.4173 64.7657 69.7397 64.7369 69.8989 64.802L70.0871 64.8584L70.2835 64.9279L70.5937 65.045C71.0154 65.2253 71.4254 65.4281 71.8219 65.6525C72.6659 66.1022 73.3982 66.7139 73.9713 67.4481C74.5817 68.2438 74.8911 69.2096 74.8508 70.1935C74.785 71.0904 74.5234 71.9666 74.082 72.7677L73.7754 73.3551L73.4064 73.8914L73.0373 74.4278L72.6288 74.9254C72.3411 75.2489 72.0994 75.597 71.781 75.9019C71.4625 76.2069 71.1451 76.5255 70.811 76.8177C70.477 77.1098 70.1113 77.3696 69.6763 77.5857L69.0428 77.9189L68.7219 78.0789L68.3688 78.1996C67.4165 78.5589 66.3768 78.6559 65.3725 78.4792C64.0188 78.2396 62.8056 77.5523 61.9528 76.542C61.679 76.2323 61.4544 75.8868 61.286 75.5163C61.2225 75.377 61.1732 75.2323 61.1387 75.0841C61.1289 74.9397 61.1261 74.8984 61.1191 74.7952C61.1121 74.6921 61.0081 74.4642 61.0534 74.3713C61.0987 74.2784 61.2711 74.2114 61.5818 74.3354C61.6659 74.3812 61.7439 74.4362 61.8141 74.4993L61.9619 74.6136C62.0639 74.7034 62.1883 74.7986 62.3141 74.9144C62.5804 75.1451 62.8955 75.4415 63.2926 75.7531C63.86 76.2251 64.5206 76.5886 65.2379 76.8232C65.972 77.0302 66.757 77.0274 67.4933 76.8151C68.3536 76.545 69.1434 76.1049 69.809 75.5246C70.61 74.8125 71.3251 74.0201 71.9413 73.1618Z" fill="#070C13"/>
<path d="M107.36 112.422C107.36 112.422 113.046 110.719 116.236 113.246C116.236 113.246 120.037 113.674 118.869 107.58C118.869 107.58 118.284 110.075 114.821 108.74C111.358 107.405 108.24 110.929 107.36 112.422Z" fill="#070C13"/>
<path d="M67.4187 65.1619C67.4187 65.1619 67.7735 70.385 69.1649 70.9464C70.5562 71.5078 72.0806 74.0279 72.0806 74.0279C72.0806 74.0279 79.1342 68.3015 67.4187 65.1619Z" fill="#070C13"/>
<path d="M55.6777 81.5701C55.6777 81.5701 57.7916 91.7006 62.802 92.0023C67.8124 92.3041 76.3948 89.1525 76.3948 89.1525L71.5488 84.3447C71.5488 84.3447 66.4218 87.3642 63.7069 86.8552C60.992 86.3461 55.6777 81.5701 55.6777 81.5701Z" fill="#070C13"/>
<path d="M95.9142 117.404C95.9142 117.404 93.6114 122.197 96.7553 124.633C99.8993 127.069 110.41 128.342 114.027 126.771C117.643 125.201 113.31 116.222 113.31 116.222L112.052 119.62C112.052 119.62 112.276 122.916 110.838 123.676C109.4 124.436 99.019 124.525 95.9142 117.404Z" fill="#070C13"/>
<path d="M98.1247 103.321C98.0322 103.211 97.9487 103.095 97.8748 102.975C97.8299 102.909 97.7931 102.843 97.7563 102.777C97.707 102.689 97.6656 102.598 97.6327 102.504C97.4641 102.109 97.4101 101.682 97.4754 101.261C97.5245 100.903 97.6953 100.562 97.9667 100.281C98.2468 100.003 98.6327 99.8158 99.0548 99.7548C99.5031 99.6912 99.9597 99.7021 100.399 99.7868C100.636 99.8291 100.865 99.894 101.083 99.9803C101.287 100.053 101.479 100.148 101.652 100.264C102.008 100.493 102.247 100.799 102.561 101.025C102.903 101.255 103.196 101.534 103.426 101.85C103.834 102.508 104.037 103.247 104.016 103.997C104 104.483 103.786 104.953 103.411 105.327C103.032 105.683 102.516 105.913 101.959 105.974C101.457 106.016 100.953 105.939 100.505 105.751C100.092 105.59 99.7138 105.373 99.3861 105.107C99.1047 104.893 98.9555 104.601 98.5993 104.475C98.4995 104.434 98.3343 104.383 98.6945 104.091C99.1272 103.735 99.5916 103.408 100.083 103.113C100.41 102.926 100.445 102.965 100.48 102.996C100.514 103.028 100.704 103.207 100.801 103.317C100.878 103.407 100.963 103.493 101.053 103.575C101.053 103.625 101.056 103.675 101.063 103.725C101.071 103.841 101.194 103.867 101.302 103.907C101.422 103.927 101.547 103.919 101.664 103.883C101.768 103.876 101.777 103.765 101.756 103.691C101.722 103.623 101.717 103.546 101.741 103.473C101.749 103.434 101.768 103.397 101.798 103.366C101.85 103.286 101.873 103.195 101.867 103.104C101.861 103.014 101.825 102.927 101.764 102.854C101.629 102.705 101.476 102.569 101.307 102.447C101.119 102.295 100.962 102.127 100.798 101.967C100.651 101.81 100.478 101.672 100.285 101.556C100.136 101.47 99.9669 101.411 99.7881 101.384C99.7022 101.366 99.6106 101.373 99.5287 101.404C99.4469 101.436 99.3799 101.491 99.3391 101.559C99.2764 101.645 99.2464 101.746 99.2532 101.846C99.26 101.946 99.3033 102.041 99.3771 102.119C99.5517 102.189 99.7423 102.615 99.9876 102.893C100.066 102.983 99.8631 103.203 99.4087 103.535C98.9542 103.868 98.634 104.034 98.5295 103.924C98.3687 103.737 98.2329 103.535 98.1247 103.321Z" fill="#070C13"/>
<path d="M32.2007 104.236C35.7281 104.903 39.1281 102.584 39.7949 99.0564C40.4617 95.529 38.1427 92.129 34.6153 91.4622C31.0879 90.7954 27.6879 93.1144 27.0211 96.6418C26.3543 100.169 28.6733 103.569 32.2007 104.236Z" stroke="#070C13" stroke-width="3"/>
<path d="M63.715 98.4287L68.9287 107.118" stroke="black" stroke-width="2.5" stroke-linecap="round"/>
<path d="M62.7975 105.623L69.6213 99.3674" stroke="black" stroke-width="2.5" stroke-linecap="round"/>
<path d="M44.6029 108.616C45.9596 108.872 47.2673 107.98 47.5237 106.623C47.7802 105.267 46.8883 103.959 45.5316 103.703C44.1749 103.446 42.8672 104.338 42.6107 105.695C42.3543 107.051 43.2462 108.359 44.6029 108.616Z" fill="#070C13" stroke="#070C13" stroke-width="3"/>
<path d="M119 68.5C120.381 68.5 121.5 67.3807 121.5 66C121.5 64.6193 120.381 63.5 119 63.5C117.619 63.5 116.5 64.6193 116.5 66C116.5 67.3807 117.619 68.5 119 68.5Z" stroke="#070C13" stroke-width="3"/>
<path d="M99.5565 56.2297C100.783 56.4793 102.027 56.6397 103.277 56.7097C103.277 57.0997 103.267 57.4797 103.267 57.8697C103.237 59.2597 103.207 60.6597 103.177 62.0497C102.907 72.0597 102.957 82.0797 102.957 92.0997V94.3797C102.547 94.7997 102.177 95.2397 101.807 95.6797C101.567 95.9597 101.327 96.2397 101.067 96.4997L101.017 96.5497C100.645 96.7462 100.215 96.7995 99.8065 96.6997C99.6865 96.6297 99.5565 96.5597 99.4365 96.4897C99.4265 96.5097 99.4265 96.5197 99.4165 96.5397V96.1697L99.4365 93.8897V93.8097L99.6865 69.7297L99.6665 69.7697C99.9166 65.6996 99.8965 61.6173 99.6065 57.5497C99.5865 57.1097 99.5665 56.6697 99.5565 56.2297Z" fill="black"/>
<path d="M103.367 39.4298V39.7398C103.367 41.8998 103.363 44.0565 103.357 46.2098C103.367 46.5898 103.367 46.9698 103.357 47.3498C103.357 48.4698 103.347 49.5898 103.337 50.7098C103.347 50.7995 103.347 50.8901 103.337 50.9798C103.337 51.5398 103.337 52.0998 103.327 52.6598C103.327 53.1898 103.317 53.7098 103.307 54.2398C102.027 53.9898 100.747 53.6398 99.5265 53.2798C99.5265 52.9198 99.5265 52.5598 99.5365 52.1998C99.5465 51.9898 99.5465 51.7698 99.5565 51.5598C99.5665 50.9798 99.5865 50.4098 99.5965 49.8298V49.6598C99.6165 48.9498 99.6365 48.2398 99.6465 47.5298C99.6565 47.1598 99.6665 46.7798 99.6765 46.4098L99.7965 41.5798C99.8165 40.5498 99.8465 39.5198 99.8665 38.4898C99.8665 38.3898 99.8665 38.2798 99.8765 38.1798C99.8765 37.8798 99.8865 37.5798 99.8865 37.2798C99.8915 37.1899 99.8915 37.0997 99.8865 37.0098C99.8865 36.8598 99.8965 36.7198 99.8965 36.5698C99.9065 36.3898 99.9065 36.2098 99.9065 36.0298V35.9698C99.9165 35.6698 99.9165 35.3698 99.9165 35.0698C99.9365 34.3098 99.9465 33.5498 99.9565 32.7998C99.9565 32.3898 99.9665 31.9898 99.9665 31.5898V31.2498C99.9665 30.9598 99.9765 30.6698 99.9665 30.3898C99.9765 30.0198 99.9765 29.6498 99.9765 29.2798C99.9865 28.8598 99.9865 28.4498 99.9865 28.0398V27.5198C99.9865 26.6098 99.9865 25.7098 99.9665 24.7998V24.0298C99.9665 23.7298 99.9665 23.4398 99.9565 23.1398V22.6398L99.9465 21.8298L99.9365 21.0798C99.9468 20.8354 99.9301 20.5906 99.8865 20.3498C99.8578 20.1602 99.804 19.9752 99.7265 19.7998V19.7898C99.5824 19.4715 99.3708 19.1883 99.1065 18.9598C98.7793 18.671 98.3773 18.4803 97.9465 18.4098C97.381 18.3664 96.8135 18.353 96.2465 18.3698H93.8965L92.8065 18.3598H92.2065L90.8065 18.3498H90.2965C89.3165 18.3398 88.3465 18.3298 87.3665 18.3098C83.0565 18.2698 78.7465 18.2065 74.4365 18.1198C63.8765 17.9298 53.3065 17.6698 42.7365 17.5598C36.7165 17.4998 30.7032 17.4765 24.6965 17.4898L15.6765 17.5498L13.4465 17.5798C12.8548 17.6023 12.2821 17.7943 11.7963 18.1329C11.3106 18.4715 10.9323 18.9425 10.7065 19.4898C10.5891 19.7564 10.5148 20.0399 10.4865 20.3298C10.4665 20.4798 10.4765 20.6098 10.4665 20.7798L10.4765 21.3398C10.6665 33.3598 11.0032 45.3765 11.4865 57.3898C12.0365 71.2698 10.8965 85.1798 10.9765 99.0898L11.0565 113.66L11.0765 117.31L11.0865 118.22V118.67L11.1065 118.98C11.1696 119.535 11.4217 120.052 11.8204 120.443C12.2191 120.834 12.7403 121.077 13.2965 121.13L13.5865 121.14H14.0465L14.9565 121.13L16.7765 121.12C26.4965 121.03 36.2065 120.89 45.9065 120.65C59.6865 120.29 73.4265 121.13 87.1765 120.63C88.9182 120.593 90.6554 120.439 92.3765 120.17C95.3165 119.66 96.8265 120.76 97.4265 121.97C98.0665 123.28 96.0765 123.62 94.0365 123.64C85.5865 123.72 77.1265 123.68 68.6865 123.85C57.6765 124.07 46.6632 124.243 35.6465 124.37L19.1265 124.52L14.9965 124.54L13.9665 124.55C13.7665 124.55 13.6665 124.56 13.3965 124.55C13.1487 124.541 12.9016 124.518 12.6565 124.48C11.6592 124.331 10.718 123.924 9.92653 123.3C9.13412 122.67 8.51756 121.847 8.13653 120.91C7.94472 120.446 7.81689 119.958 7.75653 119.46C7.72527 119.211 7.70858 118.961 7.70653 118.71V118.2L7.69653 114.07C7.68653 102.58 8.06653 91.0998 7.83653 79.5998C7.53653 65.1498 7.49653 50.6798 7.25653 36.2198L7.05653 24.7698L7.01653 21.8998L7.00653 21.1898C7.00653 20.9398 6.98653 20.7598 7.01653 20.3098C7.05575 19.5264 7.2388 18.7569 7.55653 18.0398C8.19105 16.5812 9.33598 15.4043 10.7765 14.7298C11.4946 14.3953 12.2668 14.1921 13.0565 14.1298L13.6065 14.0998H13.9665L14.6765 14.0898C22.3165 14.0098 29.9565 14.0198 37.6165 14.1998C48.0865 14.4398 58.5665 14.5798 69.0565 14.6798L84.7765 14.8098H85.4065L88.4965 14.8298L89.2565 14.8398L90.0665 14.8498L91.6765 14.8598H91.9665L92.6465 14.8698L96.5765 14.8998L97.5665 14.9098C98.0427 14.9133 98.5164 14.9771 98.9765 15.0998C99.6913 15.2782 100.362 15.6015 100.947 16.0498H100.967C101.141 16.169 101.305 16.3028 101.457 16.4498C101.837 16.7994 102.166 17.1999 102.437 17.6398C102.557 17.8288 102.664 18.026 102.757 18.2298C102.937 18.589 103.075 18.9683 103.167 19.3598C103.219 19.5601 103.255 19.764 103.277 19.9698C103.3 20.1355 103.313 20.3025 103.317 20.4698L103.327 20.7198V29.4098L103.337 30.3098V32.1598L103.347 34.8498L103.357 35.8398V38.8198L103.367 39.4298Z" fill="black"/>
<path d="M22.3934 37.0388C23.919 37.1606 25.4538 37.0982 26.9644 36.8528C28.6064 36.6928 30.2434 36.4628 31.8814 36.2608C35.0544 35.8688 38.2264 35.4608 41.4114 35.1778C44.4654 34.9038 47.5214 34.7948 50.5874 34.7978C52.1954 34.7978 53.7944 34.8978 55.3984 35.0038C57.1594 35.1228 58.8064 35.4258 60.5194 34.8568C61.0444 34.6828 61.9694 34.1708 61.7354 33.4658C61.2974 32.1478 59.5154 32.0728 58.3464 31.8428C56.7306 31.5441 55.096 31.3574 53.4544 31.2838C50.1364 31.1535 46.8133 31.2873 43.5164 31.6838C40.2964 32.0178 37.0924 32.4838 33.8894 32.9558C32.1444 33.2098 30.3974 33.4498 28.6544 33.7198C26.8771 33.9119 25.123 34.2784 23.4174 34.8138C22.8022 35.0022 22.2868 35.4269 21.9844 35.9948C21.8354 36.3778 21.8514 36.9568 22.3934 37.0368V37.0388Z" fill="black"/>
<path d="M25.4094 25.6529C25.3895 25.408 25.2811 25.1787 25.1044 25.0079C24.9277 24.8371 24.6949 24.7365 24.4494 24.7249C24.0418 24.7242 23.6388 24.811 23.2677 24.9796C22.8966 25.1481 22.5661 25.3945 22.2984 25.7019C22.0034 26.0349 21.5514 26.9269 22.3614 26.9779C26.6984 27.2509 31.1554 26.5269 35.4664 26.0599C39.7324 25.5969 44.2044 24.7119 48.5054 24.9989C50.4644 25.1289 52.6464 25.8559 54.4744 24.8289C55.2244 24.4069 55.8474 23.5289 55.0894 22.7289C54.3056 22.1916 53.3825 21.8939 52.4324 21.8719C48.2214 21.3569 43.8734 22.1489 39.6894 22.5949C34.3894 23.1599 28.9554 23.5189 23.7714 24.7949L24.8814 25.4269L24.9084 25.3409L23.6464 26.5049L23.7574 26.6749C24.2094 26.9369 25.5324 26.2229 25.4104 25.6529H25.4094Z" fill="black"/>
<path d="M23.1465 43.9018L24.4395 44.0448L22.2925 44.8188C23.7625 44.8068 25.2535 44.5188 26.7165 44.3838C28.4225 44.2218 30.1295 44.0638 31.8385 43.9308C35.2239 43.6675 38.6142 43.5048 42.0095 43.4428C45.2885 43.3808 48.5665 43.4238 51.8445 43.5318C53.6105 43.5898 55.3785 43.6318 57.1445 43.6788C58.8352 43.8087 60.5355 43.6436 62.1695 43.1908C62.3635 43.1268 63.0425 42.8498 63.0265 42.5688C62.9615 41.4688 60.5835 41.4878 59.7615 41.4008C58.1745 41.2338 56.5745 41.1008 54.9795 41.0348C51.4535 40.8838 47.9185 40.8668 44.3905 40.9398C40.9779 41.0105 37.5685 41.1771 34.1625 41.4398C32.4345 41.5718 30.7105 41.7298 28.9905 41.9308C27.2256 41.9772 25.4774 42.2862 23.8035 42.8478C23.2525 43.0978 22.2035 43.5558 21.9595 44.1938C21.7595 44.7088 22.1065 44.9058 22.6355 44.7998L23.1215 44.6998C23.3395 44.6558 25.3355 43.7208 24.6905 43.3998L24.6185 43.3648C24.2085 43.1648 23.4245 43.6568 23.1465 43.8968V43.9018Z" fill="black"/>
<path d="M22.3535 62.3388L22.4895 62.2438L23.8385 62.3968C23.8925 62.4268 24.0245 62.6198 23.8825 62.4468C23.9595 62.5408 23.9305 62.6378 23.8885 62.4608C23.8675 62.3728 23.8395 62.2868 23.8235 62.1978C23.8805 62.5038 23.8955 61.8538 23.8235 62.1748C23.8667 62.0109 23.924 61.851 23.9945 61.6968C24.4515 60.6188 24.9495 59.5578 25.4765 58.5128C26.5195 56.4538 27.6883 54.461 28.9765 52.5458C29.1773 52.2024 29.2334 51.7932 29.1325 51.4084C29.0316 51.0236 28.782 50.6946 28.4385 50.4938C28.0951 50.2931 27.6859 50.237 27.3011 50.3379C26.9163 50.4388 26.5873 50.6884 26.3865 51.0318C24.6634 53.5956 23.1559 56.2978 21.8795 59.1108C21.2795 60.4368 20.5325 61.7678 21.0035 63.2578C21.1784 63.9183 21.5972 64.4879 22.1755 64.8518C22.5501 65.0475 22.9784 65.1151 23.395 65.0443C23.8117 64.9736 24.1936 64.7683 24.4825 64.4598C25.8695 63.1118 23.7475 60.9918 22.3615 62.3388H22.3535Z" fill="black"/>
<path d="M34.1365 54.0399C33.0865 54.1199 32.0265 54.1899 30.9765 54.2599C29.8965 54.3299 28.8165 54.3999 27.7365 54.4799L27.2165 54.5099C25.2865 54.6399 25.2965 51.6399 27.2165 51.5099C27.8465 51.4699 28.4765 51.4299 29.1065 51.3799L30.1065 51.3199L33.1065 51.1099C33.3445 52.1204 33.6898 53.1027 34.1365 54.0399Z" fill="black"/>
<path d="M52.3265 51.8097C52.2439 52.1145 52.0668 52.3851 51.8206 52.5828C51.5744 52.7804 51.272 52.8949 50.9566 52.9097L49.5765 52.9997C49.0365 53.0397 48.4865 53.0797 47.9465 53.1097C46.9065 53.1897 45.8765 53.2597 44.8365 53.3197C45.1193 52.324 45.3233 51.3075 45.4465 50.2797C46.4465 50.2197 47.4566 50.1497 48.4566 50.0797C49.2866 50.0197 50.1266 49.9697 50.9566 49.9097C51.1905 49.8937 51.4247 49.9375 51.637 50.0371C51.8492 50.1367 52.0326 50.2888 52.1697 50.479C52.3068 50.6691 52.3932 50.8912 52.4207 51.124C52.4481 51.3569 52.4157 51.5929 52.3265 51.8097Z" fill="black"/>
<path d="M49.4745 53.7888C51.0524 57.2239 52.9163 60.5202 55.0465 63.6428C55.2541 63.9788 55.5829 64.2221 55.9649 64.3222C56.3469 64.4224 56.7528 64.3718 57.0985 64.1808C57.4394 63.9775 57.6869 63.6484 57.7877 63.2645C57.8885 62.8806 57.8345 62.4724 57.6375 62.1278C55.5076 59.0053 53.6443 55.709 52.0675 52.2738C51.8645 51.9328 51.5356 51.6852 51.1517 51.5846C50.7678 51.4839 50.3597 51.5383 50.0155 51.7358C49.6787 51.9429 49.4348 52.2719 49.3346 52.6544C49.2343 53.0368 49.2856 53.4432 49.4775 53.7888H49.4745Z" fill="black"/>
<path d="M20.8325 64.2888C22.339 65.2193 24.0693 65.7246 25.8398 65.751C27.6103 65.7774 29.3549 65.324 30.8885 64.4388L28.6885 62.7448C27.7905 68.4399 27.9366 74.251 29.1195 79.8938C29.2115 80.2075 29.4015 80.4835 29.6617 80.6815C29.9219 80.8794 30.2386 80.9889 30.5655 80.9938C37.0768 81.56 43.6274 81.4967 50.1265 80.8048C50.5214 80.7954 50.8975 80.6344 51.1768 80.3551C51.4561 80.0758 51.6171 79.6997 51.6265 79.3048C51.6476 74.0688 51.0502 68.8486 49.8465 63.7528L48.4005 65.6528L55.5325 65.7398C55.9304 65.7398 56.3119 65.5818 56.5932 65.3005C56.8745 65.0192 57.0325 64.6376 57.0325 64.2398C57.0325 63.842 56.8745 63.4605 56.5932 63.1791C56.3119 62.8978 55.9304 62.7398 55.5325 62.7398L48.4005 62.6528C48.1705 62.6562 47.9443 62.7117 47.7389 62.8154C47.5335 62.919 47.3544 63.0679 47.215 63.2509C47.0756 63.4339 46.9796 63.6462 46.9343 63.8718C46.8891 64.0973 46.8956 64.3302 46.9535 64.5528C48.0903 69.3883 48.6499 74.3416 48.6205 79.3088L50.1205 77.8088C43.6214 78.5007 37.0708 78.564 30.5595 77.9978L32.0065 79.0978C30.926 73.9816 30.78 68.712 31.5755 63.5438C31.6435 63.2584 31.6276 62.9595 31.5297 62.683C31.4317 62.4064 31.256 62.1641 31.0235 61.9851C30.7911 61.8061 30.5119 61.6981 30.2195 61.6741C29.9271 61.6501 29.634 61.7111 29.3755 61.8498C28.3027 62.4709 27.0798 62.7853 25.8404 62.7587C24.601 62.732 23.3927 62.3654 22.3475 61.6988C20.7035 60.6758 19.1955 63.2708 20.8335 64.2898L20.8325 64.2888Z" fill="black"/>
<path d="M48.4564 50.0798C48.3417 51.0984 48.1714 52.1099 47.9464 53.1098C47.7113 54.1703 47.3731 55.2052 46.9364 56.1998C45.1464 60.1598 40.4864 63.0698 36.2464 60.9898C34.2798 59.8546 32.7196 58.13 31.7864 56.0598C31.4864 55.4698 31.2164 54.8698 30.9764 54.2598C30.6079 53.3048 30.317 52.3216 30.1064 51.3198L33.1064 51.1098C33.3444 52.1204 33.6897 53.1027 34.1364 54.0398C34.4196 54.6625 34.7471 55.2641 35.1164 55.8398C36.1264 57.4198 37.6964 58.9598 39.7264 58.6798C40.7045 58.4715 41.6186 58.0324 42.3927 57.3992C43.1667 56.7661 43.7783 55.9572 44.1764 55.0398C44.4463 54.4869 44.6671 53.9114 44.8364 53.3198C45.1192 52.3241 45.3232 51.3076 45.4464 50.2798C46.4464 50.2198 47.4564 50.1498 48.4564 50.0798Z" fill="black"/>
<path d="M102.8 125.303C102.9 125.564 103 125.826 103 126C102.098 126 101.196 125.913 100.394 125.913C96.0854 125.739 91.676 125.652 87.367 125.739C81.6549 125.826 75.9428 125.739 70.2308 125.564C61.4122 125.39 52.6937 125.042 43.8751 124.955C35.6577 124.867 27.3402 124.78 19.1228 124.867L12.9097 124.955H11.2061C11.1059 124.955 11.0057 124.955 11.0057 124.955C10.3042 124.867 9.70291 124.606 9.20185 124.258C8.70079 123.822 8.29995 123.212 8.29995 122.515L8.19973 121.034C7.99931 117.462 7.8991 113.891 7.69867 110.319C7.19762 102.043 8.19976 93.7666 8.09954 85.4904C8.09954 82.5285 8.09954 79.6536 7.99933 76.6916C7.99933 75.472 7.99933 74.3394 7.99933 73.1198C7.89912 65.6277 7.7989 58.2227 7.49827 50.7306C7.19763 42.5416 7.89912 34.3526 7.49827 26.1636C7.39806 25.1181 7.39806 24.0727 7.09743 23.1144C6.69658 21.3721 7.59849 20.5009 8.6006 20.0653C8.90124 19.9782 9.10164 19.9782 9.30207 20.0653C9.80312 20.3267 9.90335 21.1979 10.0036 22.069C10.1038 27.1218 10.0035 32.1746 10.204 37.1403C10.5046 48.9012 10.705 60.662 10.8052 72.4228C10.8052 73.1198 10.8052 73.8167 10.8052 74.6008V76.5174C10.8052 83.3996 10.5046 90.1948 10.705 97.077C10.8052 101.346 10.9055 105.702 11.0057 109.97L11.1059 116.417L11.2061 119.64V121.296V122.08C11.2061 122.167 11.2061 122.167 11.2061 122.254C11.2061 122.341 11.3063 122.428 11.4065 122.428H12.7093H12.8095H16.6175L24.434 122.341C29.645 122.341 34.9563 122.341 40.1673 122.515C43.1736 122.602 46.18 122.69 49.1863 122.777C60.5102 123.038 71.9343 123.125 83.3585 123.299C88.7699 123.386 94.2815 123.386 99.693 123.386C100.495 123.386 101.397 123.386 102.198 123.386C102.399 123.996 102.599 124.693 102.8 125.303Z" fill="#070C13"/>
<path d="M84.4576 11.5788C84.4856 13.8148 86.1845 16.1178 87.2165 18.0328C88.3325 20.1038 89.4795 22.1548 90.6315 24.2068C91.7835 26.2588 92.9505 28.2978 94.1315 30.3348C95.2875 32.3348 96.3316 34.4668 97.6376 36.3738C97.8091 36.5721 98.0344 36.7163 98.2863 36.789C98.5382 36.8616 98.8059 36.8594 99.0566 36.7828C99.8314 36.6972 100.557 36.3624 101.126 35.8288C101.451 35.5228 101.973 34.9938 101.737 34.4838C100.755 32.3668 99.3946 30.3688 98.2116 28.3558C97.0003 26.3011 95.7786 24.2525 94.5465 22.2098C93.3135 20.1678 92.0775 18.1288 90.8095 16.1098C89.6335 14.2298 88.4665 11.5958 86.5095 10.4298C85.8935 10.0638 84.4496 10.8488 84.4576 11.5778V11.5788Z" fill="black"/>
<path d="M85.8617 10.8137C85.5817 9.59973 87.7257 9.53473 89.1067 9.96373C96.3934 12.2304 103.619 14.6934 110.783 17.3527C113.183 18.2437 115.883 19.4417 116.693 21.5527C116.948 22.3737 116.926 23.2563 116.628 24.0631C116.33 24.8699 115.774 25.5557 115.047 26.0137C113.481 26.9959 111.76 27.7059 109.958 28.1137C100.637 30.854 91.7222 34.8207 83.4467 39.9097C82.1257 40.7287 80.6987 41.9787 81.3587 43.4267C81.8428 44.2143 82.553 44.8377 83.3967 45.2157C89.0767 48.4227 95.4477 50.3397 101.729 52.2157C104.683 53.0997 108.202 53.9157 110.348 52.3497C111.052 51.7478 111.547 50.9385 111.762 50.0377C111.978 49.137 111.903 48.1911 111.548 47.3357C110.793 45.4582 109.72 43.7251 108.376 42.2127L96.8687 27.5947L85.8617 10.8137Z" fill="black"/>
<path d="M111.937 15.8996C106.507 13.8896 101.027 12.0196 95.4966 10.2896C93.1966 9.56964 90.5466 8.38964 88.0866 8.53964C87.1683 8.65468 86.2871 8.97233 85.5066 9.46964C85.2664 9.58926 85.0627 9.77111 84.9167 9.99624C84.7708 10.2214 84.6878 10.4816 84.6766 10.7496C84.6787 10.8352 84.6957 10.9198 84.7266 10.9996C84.7805 11.118 84.8441 11.2317 84.9166 11.3396C85.1766 11.6896 85.7266 11.5596 86.1666 11.2796C86.297 11.1967 86.4178 11.0994 86.5266 10.9896C86.7759 10.958 87.0283 10.9613 87.2766 10.9996H87.2866C87.3104 10.998 87.3342 11.0014 87.3566 11.0096C88.5537 11.3242 89.7294 11.715 90.8766 12.1796C93.3866 13.0596 95.9066 13.8996 98.4166 14.7796C100.857 15.6396 103.307 16.4996 105.747 17.3796C108.009 18.0709 110.205 18.9645 112.307 20.0496C113.857 20.9596 115.687 22.6996 114.567 24.6596C113.567 26.4196 110.467 26.7396 108.707 27.2896C106.897 27.8496 105.107 28.4596 103.327 29.0996C102.717 29.3296 102.107 29.5496 101.497 29.7796C101.017 29.1796 100.517 28.5896 99.9866 28.0396C99.9391 27.9903 99.8891 27.9436 99.8366 27.8996C99.8353 27.8996 99.834 27.8994 99.8328 27.8989C99.8316 27.8984 99.8305 27.8976 99.8295 27.8967C99.8286 27.8958 99.8279 27.8947 99.8274 27.8935C99.8269 27.8923 99.8266 27.891 99.8266 27.8896C99.3794 27.4188 98.9017 26.9778 98.3966 26.5696C98.3358 26.5176 98.264 26.4799 98.1866 26.4596C97.83 26.3575 97.4513 26.361 97.0966 26.4696H97.0866C96.8231 26.5417 96.5683 26.6423 96.3266 26.7696C95.5266 27.1596 94.8966 27.8096 95.1666 28.4196C95.6857 29.5409 96.3334 30.598 97.0966 31.5696C96.4866 31.8296 95.8766 32.0996 95.2666 32.3696H95.2566C95.0566 32.4596 94.8666 32.5496 94.6666 32.6396C90.2674 34.5529 86.036 36.8309 82.0166 39.4496C80.5266 40.4596 78.4166 42.2796 79.3166 44.3196C80.1366 46.1896 82.9766 47.1596 84.6766 47.9796C89.2493 50.0443 93.9772 51.7462 98.8166 53.0696C99.0466 53.1396 99.2866 53.2096 99.5266 53.2796C100.747 53.6396 102.027 53.9896 103.307 54.2396C106.297 54.7996 109.337 54.7596 111.897 52.7796C116.597 49.1696 112.347 43.7296 109.727 40.3796C107.957 38.1196 106.193 35.863 104.437 33.6096C104.067 33.1396 103.697 32.6496 103.337 32.1596L102.947 31.6496L103.337 31.4996C104.487 31.0796 105.647 30.6796 106.807 30.2996C110.637 29.0396 116.567 28.1496 118.427 24.0196C118.507 23.8506 118.577 23.677 118.637 23.4996C118.707 23.3081 118.761 23.1106 118.797 22.9096C119.677 18.9896 114.967 17.0196 111.937 15.8996ZM105.117 41.6296C106.583 43.2445 107.858 45.0229 108.917 46.9296C109.467 48.0296 110.447 51.0796 108.847 51.8696C108.164 52.0111 107.458 51.9871 106.787 51.7996C105.618 51.6116 104.465 51.3376 103.337 50.9796C103.265 50.9518 103.191 50.9284 103.117 50.9096C101.937 50.5596 100.767 50.1996 99.5966 49.8296C98.4266 49.4596 97.2466 49.0896 96.0766 48.6896C93.7566 47.9096 91.4566 47.0496 89.2166 46.0596C88.1466 45.5796 87.0866 45.0796 86.0566 44.5196C85.1966 44.0596 83.8166 43.4996 83.4066 42.5396C83.0266 41.6496 83.7566 41.1096 84.4266 40.6696C85.3966 40.0296 86.4166 39.4596 87.4266 38.8796C89.4266 37.7296 91.4666 36.653 93.5466 35.6496C94.4766 35.1996 95.4166 34.7596 96.3666 34.3396C97.0966 34.0096 97.8266 33.6896 98.5566 33.3796C98.9066 33.8096 99.2666 34.2396 99.6066 34.6696C99.7166 34.7996 99.8166 34.9396 99.9166 35.0696C100.207 35.4196 100.487 35.7796 100.757 36.1296L101.237 36.7296L101.247 36.7396L103.367 39.4296L104.607 40.9996L105.107 41.6196C105.107 41.621 105.107 41.6223 105.107 41.6235C105.108 41.6247 105.109 41.6258 105.11 41.6267C105.11 41.6276 105.112 41.6284 105.113 41.6289C105.114 41.6294 105.115 41.6296 105.117 41.6296Z" fill="black"/>
<path d="M98.5156 35.7356C98.5156 35.7356 86.2466 41.2936 85.5916 43.0706C84.9366 44.8476 105.13 52.3276 106.91 50.9706C108.69 49.6136 104.785 36.0376 98.5156 35.7356Z" fill="#FFF6E3"/>
<path d="M99.3086 27.7296C99.3086 27.7296 90.3016 18.1076 95.4706 16.8796C100.64 15.6516 112.563 21.6396 112.563 21.6396C112.563 21.6396 106.217 30.2926 99.3086 27.7296Z" fill="#FFF6E3"/>
<path d="M87.3564 8.79171C86.7724 8.54469 87.0054 8.0977 86.7334 7.7397C86.4721 7.46481 86.2301 7.1721 86.0094 6.86369C85.8454 6.57369 85.4704 5.7637 85.7944 5.4707C86.2039 5.38529 86.6238 5.36104 87.0404 5.39871C89.0148 5.39034 90.9804 5.6641 92.8774 6.21169C96.8774 7.20369 100.836 8.40669 104.725 9.77971C108.306 10.9386 111.796 12.3625 115.165 14.0397C116.735 14.8296 118.179 15.8465 119.451 17.0577C120.346 17.9577 121.916 20.7947 119.651 20.9297C119.422 20.9437 118.779 21.1397 118.845 21.4707C119.089 22.6787 121.245 21.6447 121.805 21.2367C122.383 20.8416 122.794 20.2474 122.96 19.5679C123.126 18.8884 123.035 18.1715 122.705 17.5547C121.705 15.9387 120.298 14.6135 118.624 13.7117C116.902 12.6565 115.092 11.7505 113.214 11.0037C109.225 9.34806 105.153 7.89882 101.014 6.6617C96.9344 5.4297 92.4464 3.82969 88.1344 4.01469C86.6054 4.07969 84.3574 4.3937 83.7804 6.0957C83.6703 6.43476 83.6483 6.79627 83.7166 7.14617C83.7848 7.49607 83.941 7.82284 84.1704 8.09571C85.0894 9.16171 86.0324 8.4867 87.1564 8.9297C87.2274 8.9577 87.4224 8.8187 87.3564 8.7907V8.79171Z" fill="black"/>
<path d="M110.428 52.5986C111.162 53.3745 111.803 54.2333 112.339 55.1576C112.515 55.412 112.634 55.7017 112.688 56.0066C112.741 56.3115 112.728 56.6244 112.649 56.9236C112.391 57.4696 111.812 57.3236 111.267 57.3396C108.416 57.2576 105.593 56.7642 102.884 55.8746C97.5595 54.4146 92.2705 52.7746 87.0225 51.0586C86.5324 50.9899 86.0333 51.0242 85.5572 51.1594C85.0811 51.2946 84.6384 51.5276 84.2575 51.8436C83.7855 52.2016 83.1375 52.9616 84.0215 53.2486C90.8785 55.4766 97.8935 57.7596 105.044 58.8086C108.168 59.2666 112.576 59.7976 115.153 57.5306C117.69 55.2986 114.802 52.1996 112.461 51.4306C111.995 51.2776 109.821 51.8976 110.428 52.5966V52.5986Z" fill="black"/>
<path d="M80.8036 49.8497C80.7036 49.6877 80.8236 49.5087 80.7596 49.3687C80.7086 49.2567 80.5516 49.1687 80.4596 49.0927C80.2116 48.9037 79.9366 48.7537 79.6796 48.5767C79.1758 48.2216 78.6992 47.8295 78.2536 47.4037C77.3572 46.6099 76.7284 45.5581 76.4536 44.3927C76.3242 43.8707 76.3076 43.3272 76.4049 42.7984C76.5021 42.2695 76.711 41.7675 77.0176 41.3257C77.0516 41.2827 77.2826 41.1197 77.1536 41.1717C76.9106 41.2717 76.7336 41.4597 76.4696 41.5587C76.4076 41.5817 76.0696 41.6657 76.4356 41.5797C76.5455 41.5504 76.6575 41.53 76.7706 41.5187C77.4847 41.4287 78.2099 41.5096 78.8866 41.7547C79.173 41.8886 79.4726 41.9922 79.7806 42.0637C80.2407 42.1149 80.7064 42.0742 81.1506 41.9437C81.5934 41.839 82.0048 41.6302 82.3506 41.3347C82.5966 41.1007 82.9936 40.6537 82.7126 40.3097C82.2536 39.9475 81.7005 39.7243 81.1186 39.6667C80.3079 39.5151 79.4742 39.5373 78.6726 39.7317C77.77 39.9512 76.9011 40.2916 76.0896 40.7437C75.1838 41.1868 74.3741 41.8038 73.7066 42.5597C72.9745 43.4788 72.6236 44.6441 72.7266 45.8147C72.8835 47.1077 73.5206 48.2945 74.5116 49.1397C75.0147 49.5906 75.584 49.9616 76.1996 50.2397C76.5647 50.4233 76.9486 50.5668 77.3446 50.6677C77.9145 50.735 78.4898 50.7444 79.0616 50.6957C79.2786 50.6957 81.0056 50.1607 80.8056 49.8497H80.8036Z" fill="black"/>
</svg>
