<svg width="131" height="130" viewBox="0 0 131 130" fill="none" xmlns="http://www.w3.org/2000/svg">
<path d="M115.375 101.483L120.76 110.458" stroke="#070C13" stroke-width="2.16667" stroke-linecap="round"/>
<path d="M114.678 108.969L121.747 102.489" stroke="#070C13" stroke-width="2.16667" stroke-linecap="round"/>
<path d="M118.814 55.6564C115.553 64.0423 109.186 70.835 101.047 74.6101C97.4424 76.256 93.5902 77.2879 89.6482 77.6637C88.6608 77.714 87.6733 77.829 86.6787 77.8146L83.7092 77.6925C82.7217 77.5991 81.7414 77.4194 80.7611 77.2829L80.0456 77.168L79.33 76.9811L77.8989 76.6003C73.9627 75.4995 70.2294 73.7672 66.8437 71.4703C63.4358 69.1706 60.491 66.2454 58.164 62.8485C55.2446 58.4904 53.2924 53.553 52.4397 48.371C51.4156 42.9879 51.678 37.4377 53.2053 32.1762C55.8102 24.008 61.2191 17.0338 68.468 12.4968C72.6894 9.84748 77.4327 8.14874 82.3711 7.51772C89.201 6.61837 96.1429 7.78239 102.311 10.8613C108.479 13.9402 113.594 18.7944 117.004 24.8045C119.2 28.841 120.73 33.2087 121.533 37.7373C121.891 39.0594 122.07 40.8771 121.24 41.5309C120.281 42.2925 119.258 43.0973 118.113 42.5081C117.397 42.1488 117.347 41.0065 117.304 40.0221C116.982 36.8306 116.221 33.6993 115.043 30.7177C112.992 25.7763 109.76 21.4183 105.633 18.0292C102.159 15.1922 98.0835 13.1916 93.7197 12.1807C89.6344 11.233 85.4071 11.0721 81.262 11.7065C78.468 12.1388 75.7633 13.0271 73.255 14.3362C71.9971 14.9856 70.7764 15.7052 69.5985 16.4916L67.8955 17.7131L67.0369 18.3382L66.2354 19.0566L64.8902 20.1919C64.4609 20.6014 64.053 21.0325 63.6165 21.4348C61.057 23.8966 59.041 26.8706 57.6989 30.1645C56.4231 33.4667 55.6979 36.9574 55.5523 40.4963C55.333 44.7312 55.8983 48.9703 57.2195 52.998C58.5506 57.0339 60.6912 60.7532 63.5092 63.9262C66.6563 67.4756 70.5498 70.2782 74.9079 72.1314C79.2843 73.9305 84.0154 74.6903 88.7323 74.3515C89.5602 74.3226 90.385 74.2362 91.201 74.0928C92.0167 73.9491 92.8396 73.8485 93.6481 73.6761L96.0452 73.0367C96.8395 72.8283 97.598 72.4834 98.3779 72.2104C101.46 71.0083 104.312 69.28 106.807 67.1019C112.622 62.0309 116.469 55.0619 117.669 47.4226C117.749 46.8816 117.864 46.3464 118.013 45.8203C118.091 45.3711 118.213 44.9307 118.377 44.5055C118.607 43.835 119.059 43.2642 119.658 42.8889C120.789 42.2423 121.368 42.9464 121.268 45.0444C121.054 48.6956 120.224 52.2839 118.814 55.6564Z" fill="#070C13"/>
<path d="M98.7216 78.3612C84.5661 82.1168 79.1012 78.2409 78.1383 75.8335C104.499 74.7501 98.7216 73.6668 109.194 67.1668C117.572 61.9668 119.425 51.7594 119.305 47.3057L121.111 43.6946C125.083 49.8335 116.416 73.6668 98.7216 78.3612Z" fill="#070C13"/>
<path d="M86.7149 45.5472C88.4933 45.5472 89.9349 44.0997 89.9349 42.314C89.9349 40.5284 88.4933 39.0808 86.7149 39.0808C84.9366 39.0808 83.495 40.5284 83.495 42.314C83.495 44.0997 84.9366 45.5472 86.7149 45.5472Z" fill="#070C13"/>
<path d="M90.3279 43.7944C90.0056 44.7933 89.3071 45.6261 88.3816 46.1151C87.5333 46.5953 86.5312 46.7217 85.591 46.4671C84.6016 46.2256 83.7265 45.6466 83.1152 44.829C82.769 44.2767 82.5265 43.6655 82.3996 43.0256C82.2135 42.3607 82.2135 41.6571 82.3996 40.9922C82.7417 39.9637 83.4332 39.0888 84.3531 38.5206C84.8803 38.1867 85.4755 37.976 86.0947 37.9038C86.714 37.8317 87.3414 37.9001 87.9308 38.1039C88.9495 38.4702 89.7928 39.2093 90.2921 40.1732C90.5569 40.6689 90.6213 41.2078 90.8359 41.7251C90.9075 41.876 90.9934 42.0987 90.564 42.1849C90.0457 42.3029 89.5129 42.3441 88.9827 42.3071C88.6392 42.3071 88.632 42.2137 88.632 42.149C88.6035 41.945 88.5605 41.7433 88.5032 41.5455C88.3882 41.2007 88.2165 40.8777 87.9952 40.5899C87.787 40.3314 87.5047 40.1433 87.1866 40.051C86.8777 39.9566 86.5577 39.9035 86.235 39.893C85.7627 39.893 85.4121 40.2235 85.04 40.4462C84.9574 40.4998 84.8714 40.5478 84.7824 40.5899C84.6467 40.6506 84.5254 40.7397 84.4267 40.8512C84.328 40.9627 84.2541 41.0941 84.21 41.2365C84.1294 41.5237 84.1051 41.8238 84.1384 42.1203C84.1213 42.8168 84.3409 43.4984 84.7609 44.053C85.008 44.3585 85.3296 44.5946 85.6945 44.7381C86.0595 44.8817 86.4552 44.9278 86.8432 44.8721C87.1143 44.8597 87.3802 44.7936 87.6258 44.6777C87.8714 44.5618 88.0918 44.3983 88.2743 44.1967C88.6417 43.7525 88.8883 43.2203 88.9898 42.652C88.9898 42.4867 89.2832 42.3789 89.8199 42.3214C90.3565 42.264 90.6714 42.3214 90.6642 42.5729C90.6292 42.9976 90.5151 43.4119 90.3279 43.7944Z" fill="#070C13"/>
<path d="M87.624 17.8354C87.8959 17.8354 87.9317 17.778 87.7957 17.7205C87.7628 17.7088 87.735 17.6859 87.717 17.6558C87.5954 17.4834 87.6526 17.3109 87.6455 17.1385C87.6383 16.9661 87.6884 16.7577 87.6455 16.5709C87.6656 16.3318 87.6656 16.0915 87.6455 15.8524C87.6455 15.7518 87.7099 15.6512 87.5596 15.5506C87.6813 15.5506 87.6455 15.486 87.6526 15.4501C87.6598 15.4141 87.6526 15.2704 87.6526 15.177C87.6526 15.0836 87.5525 14.9974 87.6526 14.9112C87.7528 14.825 87.4881 14.7316 87.6884 14.6525C87.6611 14.4524 87.6444 14.2509 87.6383 14.049C87.6491 13.848 87.6491 13.6465 87.6383 13.4455C87.6383 13.3233 87.6383 13.2012 87.6383 13.0862C87.6016 12.9301 87.5753 12.7717 87.5596 12.612C87.5031 12.3475 87.4744 12.0778 87.4737 11.8073C87.4737 11.5846 87.4165 11.3619 87.4308 11.1391C87.4269 11.0178 87.4514 10.8972 87.5024 10.7871C87.5024 10.744 87.4451 10.7296 87.2806 10.7296H87.2018C86.0713 10.7296 85.5775 10.8517 85.7135 11.1176C85.7721 11.3056 85.7916 11.5037 85.7707 11.6996C85.785 11.8141 85.785 11.9299 85.7707 12.0444C85.7707 12.2097 85.8709 12.3749 85.7707 12.5474C85.6706 12.7198 85.6849 12.7198 85.7707 12.806C85.7997 12.8296 85.8202 12.8619 85.8293 12.8982C85.8383 12.9345 85.8353 12.9727 85.8208 13.0072C85.7421 13.2802 85.8638 13.5461 85.8208 13.8119C85.7779 14.0777 85.8924 14.1712 85.735 14.3508C85.7266 14.3636 85.7222 14.3786 85.7222 14.3939C85.7222 14.4092 85.7266 14.4242 85.735 14.437C85.7244 14.5493 85.7244 14.6624 85.735 14.7747C85.7922 15.0405 85.5919 15.3064 85.735 15.5722C85.785 15.6728 85.735 15.7806 85.735 15.8883C85.735 15.9961 85.5704 15.9602 85.6205 15.9961C85.6706 16.032 85.6205 16.1398 85.6205 16.2188C85.6201 16.3702 85.596 16.5205 85.5489 16.6643C85.5489 16.8008 85.5489 16.9373 85.5489 17.0667C85.4847 17.314 85.4847 17.5737 85.5489 17.8211C85.5489 17.857 85.6205 17.8785 85.7707 17.8857C86.3888 17.9227 87.0089 17.9058 87.624 17.8354Z" fill="#070C13"/>
<path d="M87.624 73.8773C87.8959 73.8773 87.9317 73.8198 87.7957 73.7624C87.7628 73.7507 87.735 73.7278 87.717 73.6977C87.5954 73.5253 87.6526 73.3528 87.6455 73.1804C87.6383 73.008 87.6884 72.7996 87.6455 72.6128C87.6656 72.3737 87.6656 72.1334 87.6455 71.8943C87.6455 71.7937 87.7099 71.6931 87.5596 71.5925C87.6813 71.5925 87.6455 71.5279 87.6526 71.492C87.6598 71.456 87.6526 71.3123 87.6526 71.2189C87.6526 71.1255 87.5525 71.0393 87.6526 70.9531C87.7528 70.8669 87.4881 70.7735 87.6884 70.6944C87.6611 70.4943 87.6444 70.2928 87.6383 70.0909C87.6491 69.8899 87.6491 69.6884 87.6383 69.4874C87.6383 69.3652 87.6383 69.2431 87.6383 69.1281C87.6016 68.972 87.5753 68.8136 87.5596 68.6539C87.5031 68.3894 87.4744 68.1197 87.4737 67.8492C87.4737 67.6265 87.4165 67.4038 87.4308 67.181C87.4269 67.0597 87.4514 66.9391 87.5024 66.829C87.5024 66.7859 87.4451 66.7715 87.2806 66.7715H87.2018C86.0713 66.7715 85.5775 66.8936 85.7135 67.1595C85.7721 67.3475 85.7916 67.5456 85.7707 67.7414C85.785 67.856 85.785 67.9718 85.7707 68.0863C85.7707 68.2516 85.8709 68.4168 85.7707 68.5893C85.6706 68.7617 85.6849 68.7617 85.7707 68.8479C85.7997 68.8715 85.8202 68.9038 85.8293 68.9401C85.8383 68.9764 85.8353 69.0146 85.8208 69.0491C85.7421 69.3221 85.8638 69.588 85.8208 69.8538C85.7779 70.1196 85.8924 70.213 85.735 70.3927C85.7266 70.4055 85.7222 70.4205 85.7222 70.4358C85.7222 70.4511 85.7266 70.4661 85.735 70.4789C85.7244 70.5912 85.7244 70.7043 85.735 70.8166C85.7922 71.0824 85.5919 71.3483 85.735 71.6141C85.785 71.7147 85.735 71.8225 85.735 71.9302C85.735 72.038 85.5704 72.0021 85.6205 72.038C85.6706 72.0739 85.6205 72.1817 85.6205 72.2607C85.6201 72.4121 85.596 72.5624 85.5489 72.7062C85.5489 72.8427 85.5489 72.9792 85.5489 73.1085C85.4847 73.3559 85.4847 73.6156 85.5489 73.863C85.5489 73.863 85.6205 73.9204 85.7707 73.9276C86.3888 73.9646 87.0089 73.9477 87.624 73.8773Z" fill="#070C13"/>
<path d="M61.6205 41.4017C61.6205 41.1287 61.5633 41.0929 61.506 41.2294C61.4944 41.2624 61.4716 41.2903 61.4416 41.3083C61.2699 41.4305 61.0982 41.373 60.9264 41.3802C60.7547 41.3874 60.5472 41.3371 60.3611 41.3442C60.123 41.324 59.8837 41.324 59.6456 41.3442C59.5454 41.3442 59.4452 41.2796 59.3451 41.4305C59.3451 41.3083 59.2807 41.3442 59.2449 41.3371H58.973C58.8871 41.3371 58.7941 41.4376 58.7082 41.3371C58.6224 41.2365 58.5293 41.5023 58.4506 41.3371C58.2513 41.3645 58.0507 41.3814 57.8496 41.3875C57.6494 41.3767 57.4487 41.3767 57.2485 41.3875C57.1269 41.3875 57.0052 41.3875 56.8907 41.3875C56.7352 41.4244 56.5775 41.4507 56.4185 41.4664C56.1551 41.5231 55.8865 41.552 55.617 41.5526C55.3952 41.5526 55.1734 41.6101 54.9516 41.5957C54.8307 41.5996 54.7106 41.575 54.601 41.5239C54.558 41.5239 54.5437 41.5813 54.5437 41.7466V41.8256C54.5437 42.9608 54.6654 43.4566 54.9301 43.3201C55.1174 43.2612 55.3146 43.2417 55.5097 43.2626C55.6238 43.2483 55.7391 43.2483 55.8532 43.2626C56.0178 43.2626 56.1823 43.162 56.3541 43.2626C56.5258 43.3632 56.5258 43.3488 56.6117 43.2626C56.6351 43.2335 56.6673 43.2129 56.7035 43.2038C56.7396 43.1948 56.7777 43.1977 56.812 43.2123C57.0839 43.2913 57.3487 43.1692 57.6134 43.2123C57.8782 43.2554 57.9712 43.1405 58.1501 43.2985C58.1629 43.3069 58.1778 43.3113 58.193 43.3113C58.2083 43.3113 58.2232 43.3069 58.236 43.2985C58.3489 43.2973 58.4615 43.2852 58.5723 43.2626C58.837 43.2051 59.1018 43.4063 59.3665 43.2626C59.4667 43.2123 59.574 43.2626 59.6814 43.2626C59.7887 43.2626 59.7529 43.428 59.7887 43.3777C59.8245 43.3274 59.9318 43.3777 60.0105 43.3777C60.1612 43.378 60.311 43.4023 60.4542 43.4495C60.5901 43.4495 60.7261 43.4495 60.8549 43.4495C61.1012 43.514 61.3599 43.514 61.6062 43.4495C61.6062 43.4495 61.6634 43.3776 61.6706 43.2267C61.7053 42.618 61.6886 42.0075 61.6205 41.4017Z" fill="#070C13"/>
<path d="M117.433 41.4017C117.433 41.1287 117.376 41.0929 117.319 41.2294C117.307 41.2624 117.284 41.2903 117.254 41.3083C117.083 41.4305 116.911 41.373 116.739 41.3802C116.567 41.3874 116.36 41.3371 116.174 41.3442C115.936 41.324 115.696 41.324 115.458 41.3442C115.358 41.3442 115.258 41.2796 115.158 41.4305C115.158 41.3083 115.093 41.3442 115.058 41.3371H114.786C114.7 41.3371 114.607 41.4376 114.521 41.3371C114.435 41.2365 114.342 41.5023 114.263 41.3371C114.064 41.3645 113.863 41.3814 113.662 41.3875C113.462 41.3767 113.261 41.3767 113.061 41.3875C112.94 41.3875 112.818 41.3875 112.703 41.3875C112.548 41.4244 112.39 41.4507 112.231 41.4664C111.968 41.5231 111.699 41.552 111.43 41.5526C111.208 41.5526 110.986 41.6101 110.764 41.5957C110.643 41.5996 110.523 41.575 110.414 41.5239C110.371 41.5239 110.356 41.5813 110.356 41.7466V41.8256C110.356 42.9608 110.478 43.4566 110.743 43.3201C110.93 43.2612 111.127 43.2417 111.322 43.2626C111.436 43.2483 111.552 43.2483 111.666 43.2626C111.83 43.2626 111.995 43.162 112.167 43.2626C112.339 43.3632 112.339 43.3488 112.424 43.2626C112.448 43.2335 112.48 43.2129 112.516 43.2038C112.552 43.1948 112.59 43.1977 112.625 43.2123C112.897 43.2913 113.161 43.1692 113.426 43.2123C113.691 43.2554 113.784 43.1405 113.963 43.2985C113.976 43.3069 113.991 43.3113 114.006 43.3113C114.021 43.3113 114.036 43.3069 114.049 43.2985C114.162 43.2973 114.274 43.2852 114.385 43.2626C114.65 43.2051 114.914 43.4063 115.179 43.2626C115.279 43.2123 115.387 43.2626 115.494 43.2626C115.601 43.2626 115.566 43.428 115.601 43.3777C115.637 43.3274 115.745 43.3777 115.823 43.3777C115.974 43.378 116.124 43.4023 116.267 43.4495C116.403 43.4495 116.539 43.4495 116.668 43.4495C116.914 43.514 117.173 43.514 117.419 43.4495C117.419 43.4495 117.476 43.3776 117.483 43.2267C117.518 42.618 117.501 42.0075 117.433 41.4017Z" fill="#070C13"/>
<path d="M69.7527 20.1562C69.855 20.0378 69.855 20.0092 69.7773 20.0378C69.7585 20.0428 69.7388 20.0428 69.72 20.0378C69.6014 20.0174 69.5564 19.9234 69.4828 19.8581C69.4091 19.7928 69.3478 19.6866 69.266 19.6131C69.1766 19.5055 69.0795 19.4045 68.9755 19.3109C68.9264 19.2823 68.9223 19.2047 68.8201 19.2251C68.861 19.1639 68.8201 19.1639 68.8201 19.1516C68.7867 19.1117 68.7512 19.0735 68.7137 19.0373C68.6769 19.0005 68.5992 19.0046 68.6074 18.9311C68.6155 18.8576 68.4683 18.9311 68.5133 18.8086C68.4228 18.7406 68.3368 18.6669 68.2556 18.5881C68.1656 18.5146 68.1083 18.4084 68.0101 18.3472C67.9119 18.2859 67.916 18.2451 67.8506 18.2124C67.7737 18.164 67.6999 18.1108 67.6297 18.0531C67.5005 17.9701 67.3812 17.8729 67.2738 17.7632C67.1736 17.6858 67.078 17.6026 66.9875 17.5141C66.9366 17.4665 66.8974 17.4078 66.8729 17.3426C66.8729 17.3181 66.8279 17.3426 66.7625 17.4079L66.7297 17.4406C66.2716 17.898 66.1243 18.1471 66.2839 18.2001C66.4434 18.2532 66.4598 18.339 66.5416 18.4084C66.5949 18.4454 66.6431 18.4893 66.6848 18.5391C66.742 18.6167 66.8647 18.633 66.8934 18.7392C66.922 18.8454 66.922 18.8454 66.9997 18.8372C67.0216 18.8351 67.0436 18.8403 67.0622 18.8522C67.0807 18.864 67.0948 18.8818 67.102 18.9025C67.1797 19.0414 67.3352 19.0985 67.4252 19.2211C67.5152 19.3436 67.597 19.3395 67.6052 19.4742C67.6096 19.4908 67.6198 19.5052 67.6338 19.5151C67.683 19.5591 67.7349 19.6 67.7892 19.6376C67.9201 19.7193 67.9447 19.9071 68.1083 19.9561C68.1697 19.9765 68.186 20.046 68.2351 20.0827C68.2842 20.1195 68.1942 20.1807 68.2351 20.1726C68.276 20.1644 68.2801 20.2461 68.3128 20.2706C68.3456 20.2951 68.411 20.4094 68.4642 20.4788C68.5174 20.5482 68.5869 20.5727 68.6278 20.6422C68.7 20.7666 68.8028 20.8706 68.9264 20.9444C68.9264 20.9444 68.9796 20.9444 69.0451 20.879C69.3019 20.6594 69.5387 20.4175 69.7527 20.1562Z" fill="#070C13"/>
<path d="M110.925 62.7635C111.022 62.6491 111.026 62.6205 110.925 62.6491C110.907 62.6542 110.889 62.6542 110.872 62.6491C110.753 62.6491 110.709 62.5348 110.635 62.4694C110.562 62.4041 110.501 62.2979 110.419 62.2244C110.33 62.1168 110.234 62.0158 110.13 61.9222C110.081 61.8896 110.077 61.8161 109.975 61.8365C110.016 61.7752 109.975 61.7752 109.975 61.7589L109.87 61.6445C109.833 61.6119 109.756 61.616 109.764 61.5424C109.772 61.4689 109.625 61.5424 109.67 61.4199C109.58 61.3519 109.494 61.2782 109.413 61.1994C109.324 61.1259 109.267 61.0197 109.169 60.9585C109.071 60.8972 109.075 60.8564 109.01 60.8237C108.934 60.7753 108.86 60.7221 108.79 60.6645C108.661 60.5825 108.542 60.4852 108.436 60.3745C108.336 60.2969 108.241 60.2137 108.151 60.1254C108.1 60.0778 108.061 60.0191 108.037 59.9539C108.037 59.9294 107.992 59.9539 107.923 60.0192L107.894 60.0519C107.438 60.5093 107.291 60.7584 107.45 60.8115C107.609 60.8646 107.621 60.9462 107.707 61.0197C107.76 61.0567 107.808 61.1007 107.849 61.1504C107.906 61.228 108.029 61.2403 108.053 61.3505C108.077 61.4608 108.086 61.4567 108.163 61.4485C108.185 61.4471 108.206 61.4526 108.225 61.4644C108.243 61.4762 108.257 61.4935 108.265 61.5139C108.338 61.6527 108.497 61.7099 108.587 61.8324C108.676 61.9549 108.758 61.9508 108.766 62.0856C108.77 62.1021 108.78 62.1165 108.794 62.1264C108.843 62.1672 108.892 62.2122 108.945 62.2489C109.079 62.3306 109.104 62.5184 109.267 62.5674C109.328 62.5879 109.344 62.6573 109.393 62.694C109.442 62.7308 109.352 62.788 109.393 62.7839C109.434 62.7798 109.434 62.8574 109.47 62.8819C109.507 62.9064 109.568 63.0207 109.621 63.0902C109.674 63.1596 109.743 63.1841 109.784 63.2494C109.856 63.375 109.958 63.4804 110.081 63.5557C110.102 63.5557 110.134 63.5557 110.2 63.4904C110.463 63.2713 110.706 63.0279 110.925 62.7635Z" fill="#070C13"/>
<path d="M108.022 23.7435C108.117 23.8608 108.14 23.8657 108.114 23.7435C108.109 23.7213 108.109 23.6973 108.114 23.6751C108.13 23.5382 108.206 23.4845 108.258 23.3965C108.31 23.3085 108.392 23.2352 108.451 23.1374C108.538 23.0332 108.619 22.917 108.693 22.7904C108.719 22.7318 108.781 22.7269 108.765 22.6047C108.81 22.6536 108.814 22.6047 108.823 22.6047C108.855 22.5648 108.886 22.5224 108.915 22.4776C108.944 22.4336 108.941 22.3408 109 22.3505C109.059 22.3603 109 22.1844 109.098 22.2381C109.153 22.1295 109.212 22.0251 109.274 21.9253C109.333 21.8178 109.418 21.7542 109.467 21.6369C109.516 21.5196 109.549 21.5245 109.575 21.4463C109.614 21.3544 109.657 21.2663 109.703 21.1824C109.768 21.0271 109.846 20.8844 109.935 20.7572C109.996 20.6364 110.063 20.5221 110.134 20.415C110.172 20.3554 110.217 20.3086 110.268 20.2782C110.291 20.2782 110.268 20.2195 110.219 20.1413C110.209 20.1309 110.2 20.1176 110.193 20.1022C109.827 19.5597 109.628 19.3837 109.585 19.5743C109.543 19.765 109.474 19.7796 109.418 19.8823C109.389 19.946 109.354 20.0035 109.314 20.0533C109.252 20.1218 109.239 20.2684 109.154 20.2977C109.069 20.327 109.069 20.3368 109.075 20.4297C109.076 20.4557 109.072 20.4816 109.062 20.5036C109.053 20.5256 109.039 20.5425 109.023 20.5519C108.912 20.6399 108.866 20.8256 108.768 20.938C108.67 21.0504 108.673 21.1433 108.565 21.1531C108.558 21.1543 108.552 21.1581 108.546 21.1641C108.54 21.17 108.536 21.178 108.532 21.1873C108.5 21.2459 108.464 21.3046 108.434 21.3681C108.369 21.5245 108.219 21.5587 108.176 21.7493C108.176 21.8276 108.107 21.8471 108.078 21.9058C108.049 21.9644 108 21.8569 108.006 21.9058C108.013 21.9546 107.947 21.9546 107.928 21.9986C107.908 22.0426 107.813 22.1159 107.761 22.1746C107.709 22.2332 107.686 22.3261 107.63 22.375C107.531 22.4612 107.447 22.584 107.388 22.7318C107.388 22.7318 107.388 22.7953 107.441 22.8735C107.618 23.1878 107.812 23.4788 108.022 23.7435Z" fill="#070C13"/>
<path d="M66.4505 66.3546C66.5877 66.4719 66.622 66.4768 66.5877 66.3546C66.5815 66.3339 66.5815 66.3118 66.5877 66.2911C66.5877 66.1493 66.7249 66.0955 66.8033 66.0076C66.8817 65.9196 67.0091 65.8463 67.0973 65.7485C67.2264 65.6417 67.3476 65.5258 67.4599 65.4015C67.4991 65.3428 67.5873 65.3379 67.5628 65.2157C67.6364 65.2646 67.6363 65.2157 67.656 65.2157L67.7932 65.0887C67.8324 65.0447 67.8275 64.9518 67.9157 64.9616C68.0039 64.9714 67.9157 64.7954 68.0627 64.8492C68.1443 64.7411 68.2327 64.6383 68.3273 64.5412C68.4155 64.4337 68.5429 64.3653 68.6164 64.248C68.6899 64.1307 68.7389 64.1356 68.7781 64.0574C68.8362 63.9655 68.9001 63.8773 68.9693 63.7934C69.0676 63.6382 69.1844 63.4954 69.3172 63.3682C69.4103 63.2486 69.5101 63.1344 69.6161 63.026C69.6733 62.9653 69.7437 62.9184 69.8219 62.8892C69.8513 62.8892 69.8219 62.8354 69.7435 62.7523L69.7043 62.7181C69.1555 62.1707 68.8565 61.9947 68.7928 62.1853C68.7291 62.376 68.6311 62.3906 68.5429 62.4933C68.4985 62.557 68.4458 62.6145 68.3861 62.6643C68.293 62.7328 68.2783 62.8794 68.146 62.9087C68.0137 62.9381 68.0186 62.9478 68.0284 63.0407C68.0301 63.0667 68.0234 63.0927 68.0093 63.1147C67.9952 63.1366 67.9744 63.1536 67.95 63.1629C67.7834 63.2509 67.7147 63.4415 67.5676 63.549C67.4206 63.6566 67.4256 63.7543 67.2639 63.7641C67.2441 63.7694 67.2268 63.7815 67.2149 63.7983C67.1659 63.857 67.112 63.9156 67.0679 63.9791C66.9699 64.1404 66.7445 64.1698 66.6857 64.3653C66.6857 64.4386 66.5779 64.4581 66.5338 64.5168C66.4897 64.5755 66.4211 64.4679 66.426 64.5168C66.4309 64.5657 66.3377 64.5657 66.3083 64.6097C66.2789 64.6537 66.1416 64.727 66.0583 64.7905C65.975 64.8541 65.9457 64.9371 65.8673 64.986C65.7166 65.0721 65.5901 65.1949 65.4998 65.3428C65.4998 65.3673 65.4998 65.4064 65.5782 65.4846C65.8411 65.8011 66.1331 66.0924 66.4505 66.3546Z" fill="#070C13"/>
<path d="M86.0776 38.8655L83.931 27.4559C83.9024 27.3088 83.9024 27.1576 83.931 27.0105L86.1492 14.6525C86.3209 13.7256 87.3155 13.6825 87.5302 14.5878L90.2636 26.0261C90.3065 26.2056 90.3065 26.3927 90.2636 26.5722L87.4944 38.9014C87.2511 39.7995 86.2565 39.7995 86.0776 38.8655Z" fill="#070C13"/>
<path d="M84.7829 35.74C84.3535 33.8504 83.8312 31.58 83.3518 29.2736L82.9654 27.6067C82.9085 27.3197 82.9085 27.0243 82.9654 26.7373L83.0369 26.2272L83.1872 25.207C83.2945 24.4885 83.409 23.849 83.545 23.1808C83.9242 21.2194 84.1317 19.2363 84.5038 17.2749L85.0262 14.5733C85.1217 14.1148 85.3422 13.692 85.663 13.3519C85.7656 13.2364 85.8808 13.1327 86.0065 13.043C86.1818 12.9241 86.3788 12.8411 86.5861 12.7987C86.963 12.726 87.3533 12.7816 87.6952 12.9567C87.9485 13.0838 88.1727 13.2624 88.3535 13.4812C88.5016 13.6638 88.6178 13.8703 88.6969 14.092C88.7971 14.3578 88.8615 14.6955 88.9474 14.9973L89.4196 16.9084C89.8919 18.9058 90.3069 20.9104 90.8078 22.8934L91.4733 25.7027C91.5484 26.0507 91.5484 26.4109 91.4733 26.7589L91.3373 27.3121L91.0869 28.3683L90.5717 30.4663L88.9832 36.6669L88.5037 38.3625C88.425 38.6499 88.3821 38.8726 88.3034 39.2247C88.2376 39.4847 88.1208 39.729 87.9599 39.9432C87.7508 40.215 87.4636 40.4156 87.137 40.5179C86.9139 40.5903 86.6765 40.6066 86.4457 40.5652C86.2149 40.5239 85.9977 40.4262 85.8133 40.2808C85.4841 40.0006 85.4197 39.6558 85.5628 39.4546C85.7123 39.215 85.9289 39.0251 86.1854 38.9085C86.4402 38.811 86.7077 38.7505 86.9796 38.7289H87.1728C87.1119 38.7429 87.0539 38.7672 87.0011 38.8008C86.9104 38.8397 86.8333 38.9047 86.7793 38.9876C86.7292 39.0738 86.7793 39.0738 86.7292 38.9876C86.6787 38.9206 86.6155 38.8645 86.5431 38.8223C86.4904 38.7917 86.4354 38.7653 86.3786 38.7433L86.1997 38.6858L86.5145 37.3925C86.8866 35.9555 87.2301 34.5186 87.688 33.0816C88.0529 31.9033 88.3248 30.6962 88.6397 29.4892L89.0762 27.8294L89.298 26.996C89.3695 26.7302 89.484 26.3853 89.4912 26.3422C89.4948 26.3039 89.4948 26.2655 89.4912 26.2272C89.2336 24.7902 88.7756 23.4395 88.5037 22.0169C88.4465 21.6936 88.3821 21.3774 88.3535 21.0541C88.174 19.4904 87.8088 17.9539 87.2658 16.4773C87.2233 16.3311 87.1731 16.1872 87.1156 16.0462C87.0961 16.0101 87.0697 15.9782 87.0378 15.9524C87.006 15.9267 86.9693 15.9075 86.93 15.8962C86.8907 15.8848 86.8495 15.8814 86.8089 15.8862C86.7683 15.891 86.729 15.9039 86.6934 15.9241C86.6299 15.9724 86.5778 16.0341 86.5407 16.1049C86.5036 16.1757 86.4825 16.2538 86.4787 16.3336L86.3571 16.8078L86.214 17.4473L85.9707 18.719C85.5199 21.2265 85.019 23.7484 84.6684 26.2488C84.5879 26.6172 84.5423 26.9925 84.5324 27.3696C84.7972 28.6701 85.0405 29.9921 85.3839 31.271C85.9349 33.3115 86.3285 35.3664 86.7435 37.4284C86.8267 37.6879 86.8172 37.9683 86.7166 38.2214C86.616 38.4745 86.4307 38.6845 86.1925 38.8151C85.6845 39.081 85.3482 38.9588 85.248 38.4415L84.7829 35.74Z" fill="#070C13"/>
<path d="M84.9256 41.4952L78.6431 36.8394C78.565 36.7768 78.4953 36.7043 78.4356 36.6239L73.3552 29.8485C72.9759 29.3456 73.3552 28.9433 73.8417 29.3025L80.3389 33.7643C80.4401 33.8336 80.5275 33.9213 80.5965 34.023L85.4622 40.9995C85.8057 41.5168 85.4193 41.876 84.9256 41.4952Z" fill="#070C13"/>
<path d="M39.4152 35.556L25.0688 35.7189L17.3235 35.8071L13.3685 35.8546H12.0598C12.0123 35.8482 11.9642 35.8482 11.9167 35.8546C11.8241 35.8735 11.7412 35.9224 11.6825 35.993C11.6238 36.0636 11.5928 36.1514 11.5949 36.2413L12.2171 48.4059C12.4174 52.5919 12.5961 56.7847 12.7177 60.9708C12.9609 69.5803 13.4329 78.1559 13.6546 86.7519C13.7905 92.2406 13.7905 97.7496 13.9621 103.198L14.2267 111.739C14.2625 113.164 14.2768 114.589 14.2911 116.02C14.2911 116.699 14.2911 117.452 14.2911 118.171V120.206L25.1403 120.023L39.0433 119.752C49.9712 119.494 60.8919 119.338 71.8197 119.182L76.2395 119.121C76.2678 119.125 76.2968 119.123 76.3241 119.114C76.3513 119.106 76.3763 119.092 76.3969 119.073C76.4062 119.049 76.4062 119.023 76.3969 118.999V118.958C76.3969 118.958 76.3969 118.958 76.3969 118.795V115.891L76.4684 110.084L76.5828 98.4687C76.6257 93.6246 76.8045 88.7737 76.5828 83.916C76.5184 82.4709 76.3969 80.5848 77.0548 79.9063C77.7128 79.2279 78.5996 78.1831 79.4292 78.8751C79.9441 79.3025 79.9441 80.7069 79.9441 81.901C79.9441 85.7817 79.9441 89.6692 79.9441 93.5567C79.8726 99.9613 79.8297 106.379 79.6509 112.764L79.5508 117.235V118.347V118.91C79.5636 119.228 79.5445 119.546 79.4936 119.86C79.3717 120.492 79.0173 121.063 78.4934 121.471C77.9696 121.878 77.3102 122.096 76.6329 122.086L69.0377 122.181C63.8241 122.228 58.5962 122.296 53.3897 122.289C46.3881 122.289 39.408 122.655 32.4208 122.669C30.9904 122.669 29.4814 122.669 28.0225 122.669C25.2261 122.594 22.4226 122.594 19.6263 122.669L15.4282 122.757H14.3769C13.8968 122.806 13.4111 122.767 12.9466 122.642C12.4961 122.477 12.1137 122.179 11.856 121.791C11.5984 121.404 11.4792 120.948 11.5162 120.491V118.239C11.5162 117.52 11.5162 116.8 11.5162 116.081L11.4376 111.76C11.2159 101.915 11.1515 92.0845 10.8797 82.1995C10.5722 71.2154 10.2718 60.2177 9.73549 49.2539L9.23487 37.6389L9.1705 36.031C9.14827 35.6669 9.21626 35.303 9.36902 34.9684C9.52178 34.6338 9.75507 34.3378 10.0501 34.1042C10.3412 33.8699 10.6868 33.7048 11.0585 33.6225C11.4343 33.5649 11.8157 33.5467 12.1957 33.5682H13.7261C15.7644 33.5682 17.8026 33.5207 19.8337 33.4732C29.3884 33.2493 38.936 33.2493 48.4979 33.2222C51.473 33.2222 53.5041 33.6157 54.2193 34.362C54.9345 35.1083 54.1335 35.6035 51.7448 35.6035L39.4152 35.556Z" fill="#070C13"/>
<path d="M14.6295 124.117C12.8798 124.117 12.6854 123.014 12.8069 122.463L70.0361 121.99L78.0554 121.281L79.149 94.8082L79.9444 76.1946L81.7006 93.1537C82.4296 101.032 83.9606 117.405 84.2522 119.863C84.6168 122.935 80.9716 123.881 79.878 124.117C78.7845 124.354 16.8166 124.117 14.6295 124.117Z" fill="#070C13"/>
<path d="M20.3543 46.9283C20.3543 48.6239 20.3042 50.6716 20.4187 52.6762C20.4187 53.0786 20.4831 53.524 20.5404 53.8402C20.5404 53.9407 20.5904 54.0413 20.7049 54.0341H20.8695H21.4634H22.6942C24.4043 54.0916 26.1359 53.8976 27.8676 53.8617C28.9767 53.8617 30.0858 53.8617 31.1877 53.7755H31.6171H31.8317C31.8865 53.78 31.9415 53.78 31.9963 53.7755C32.0429 53.7566 32.0828 53.7241 32.1108 53.6821C32.1191 53.6442 32.1191 53.605 32.1108 53.5671C32.1087 53.5384 32.1087 53.5096 32.1108 53.4809V53.0426C32.1108 51.2464 32.1752 49.4502 32.1537 47.6468V44.8591C32.1428 44.8179 32.12 44.7809 32.0881 44.7528C32.0563 44.7247 32.0169 44.7066 31.9748 44.701C31.9416 44.696 31.9079 44.696 31.8747 44.701H31.4811L30.694 44.7656L25.1056 45.168C24.1209 45.1859 23.1396 45.2869 22.1718 45.4698C21.8856 45.5416 21.5135 45.6709 21.3275 45.247C21.0606 44.7699 20.9317 44.2274 20.9554 43.6807C21.0055 43.3287 21.2917 43.2999 21.5278 43.2784C22.3149 43.1922 23.0949 43.1059 23.882 43.0485C25.1771 42.9622 26.4794 42.8545 27.7746 42.8401C28.8622 42.8401 29.9212 42.7108 31.016 42.6461L31.7816 42.6174C32.1874 42.5931 32.5924 42.6774 32.9551 42.8616C33.3091 43.0411 33.6078 43.3136 33.8195 43.6502C34.0313 43.9868 34.148 44.3748 34.1573 44.7728C34.1624 44.8757 34.1624 44.9789 34.1573 45.0818V45.3404V45.8434V46.8564C34.1573 47.5318 34.1573 48.2072 34.1573 48.8826C34.1452 49.1663 34.119 49.4493 34.0785 49.7304C33.9477 50.5569 33.9022 51.3948 33.9426 52.2307L33.9998 53.4881C34.0186 53.9776 33.8589 54.4571 33.5506 54.8367C33.2423 55.2164 32.8067 55.47 32.3255 55.5502C32.2373 55.5558 32.1489 55.5558 32.0607 55.5502H31.8675H31.4954L29.9928 55.6004L26.9875 55.6507C25.864 55.6507 24.7478 55.6939 23.6244 55.6867H21.9571H21.0985H20.6548C20.4484 55.6685 20.243 55.6397 20.0395 55.6004C19.7625 55.5659 19.5078 55.4304 19.3239 55.2196C19.1616 54.9804 19.0541 54.708 19.0091 54.4221C18.9748 54.2804 18.9509 54.1363 18.9375 53.991V53.6677L18.9017 53.0498C18.8588 52.2379 18.8517 51.4404 18.8016 50.6501C18.7515 49.7088 18.7515 48.782 18.8016 47.848L18.8588 46.4613V46.1092V45.9368C18.8588 45.8577 18.8588 45.75 18.8588 45.6566C18.9241 45.2768 19.0813 44.9191 19.3168 44.6148C19.4241 44.4548 19.5662 44.3213 19.7322 44.2242C19.8983 44.1272 20.084 44.0691 20.2756 44.0543C20.4161 44.0545 20.5534 44.0961 20.6704 44.174C20.7875 44.2519 20.8791 44.3628 20.9339 44.4926C21.0248 44.6901 21.0523 44.911 21.0126 45.1249C21.0043 45.1853 20.9826 45.2432 20.9492 45.2941C20.9158 45.3451 20.8714 45.3879 20.8194 45.4195C20.6567 45.5016 20.5313 45.6429 20.4688 45.8146C20.396 46.1814 20.3577 46.5543 20.3543 46.9283Z" fill="#070C13"/>
<path d="M24.4551 62.06L29.421 61.8229H29.9648C30.4256 61.7978 30.8838 61.9065 31.2847 62.1358C31.6857 62.3651 32.0124 62.7054 32.226 63.1161C32.2972 63.2572 32.357 63.4037 32.4049 63.5544C32.4478 63.7053 32.4764 63.8921 32.4907 63.9496L32.5837 64.4956C32.641 64.8549 32.6911 65.2141 32.7412 65.5806C32.9201 67.0822 33.2778 68.5479 33.4567 70.0424L33.5426 70.7609V70.9405V71.1919C33.5568 71.4061 33.5424 71.6211 33.4996 71.8314C33.4173 72.2503 33.2368 72.6434 32.973 72.9783C32.7092 73.3132 32.3697 73.5801 31.9827 73.7569C31.7803 73.8506 31.566 73.9159 31.3458 73.9509C31.2362 73.958 31.1263 73.958 31.0167 73.9509H30.8163L30.1008 74.0012C29.6071 74.0012 29.1133 74.0587 28.6124 74.0587C27.074 74.0587 25.5284 73.9941 23.99 74.0156H21.9578C21.5398 74.0197 21.1271 73.9211 20.7557 73.7282C20.3779 73.5406 20.0506 73.2644 19.8016 72.923C19.5525 72.5816 19.3889 72.185 19.3246 71.7667C19.3016 71.4774 19.3016 71.1867 19.3246 70.8974V70.2148L19.5107 65.3722L19.5822 64.0645C19.6532 63.3614 19.9915 62.7129 20.5267 62.254C20.813 61.945 21.4069 61.6864 21.643 62.1103C21.9253 62.5801 22.0365 63.1336 21.9578 63.6766C21.9578 64.0214 21.9578 64.0286 21.9149 64.0358C21.8803 64.0514 21.8506 64.0763 21.829 64.1077V64.1579C21.829 64.1148 21.829 64.395 21.829 64.5387C21.779 65.6596 21.7503 66.7804 21.6287 67.9013C21.5285 68.8353 21.5285 69.7693 21.4856 70.6962V71.35C21.4638 71.4373 21.4638 71.5286 21.4856 71.6159C21.5175 71.7055 21.5668 71.7878 21.6307 71.8581C21.6946 71.9284 21.7717 71.9853 21.8577 72.0254C22.0917 72.0823 22.3332 72.1017 22.5732 72.0829H23.3889C23.9657 72.0505 24.5438 72.0505 25.1206 72.0829C25.3604 72.0955 25.5993 72.1219 25.8361 72.1619C27.2616 72.3422 28.7039 72.3422 30.1294 72.1619H30.7734H31.0739C31.1307 72.1723 31.1889 72.1723 31.2457 72.1619C31.3564 72.1316 31.4595 72.0782 31.5483 72.0052C31.6371 71.9321 31.7095 71.8411 31.7609 71.738C31.812 71.6302 31.8389 71.5125 31.8396 71.3931V71.2997V71.1345L31.7966 70.8112L31.6392 69.5251L31.2457 66.6511L31.031 65.2141L30.9094 64.4956L30.845 64.1436C30.832 64.0718 30.8104 64.0018 30.7806 63.9352C30.6993 63.7723 30.5692 63.6391 30.4085 63.5544C30.3279 63.5131 30.2407 63.4864 30.1509 63.4754H29.743C29.0704 63.4754 28.3978 63.4754 27.7252 63.5616C26.1366 63.7197 24.5624 63.7269 22.9811 63.7412C22.7511 63.7504 22.526 63.6729 22.3499 63.5241C22.1739 63.3752 22.0595 63.1656 22.0294 62.9365C21.9077 62.3833 22.0294 62.0815 22.4373 62.0743C22.9954 62.024 23.5821 62.024 24.4551 62.06Z" fill="#070C13"/>
<path d="M21.2413 84.6497L21.363 87.0351L21.4202 88.3212V88.6301L21.456 88.7523C21.4836 88.8278 21.5305 88.8947 21.592 88.9463C21.6372 88.9904 21.6911 89.0247 21.7502 89.047C21.8093 89.0692 21.8724 89.079 21.9354 89.0756L22.9372 89.0181C23.6527 89.0181 24.3683 88.9678 25.1268 88.9822C26.6223 88.9822 28.1178 88.8601 29.6204 88.8816L31.0515 88.9319C31.3735 88.9319 31.3091 88.9319 31.3878 88.9319C31.4142 88.9251 31.4388 88.9126 31.4598 88.8952C31.4808 88.8778 31.4978 88.856 31.5095 88.8313C31.5225 88.7819 31.5225 88.7299 31.5095 88.6804C31.5061 88.6687 31.5061 88.6562 31.5095 88.6445C31.5095 88.6445 31.5095 88.6445 31.5095 88.5511V88.1775C31.5095 87.6817 31.4522 87.186 31.4522 86.6902V84.3695V83.2056V82.3362C31.4593 82.2717 31.4593 82.2067 31.4522 82.1422C31.4483 82.1119 31.4379 82.0827 31.4219 82.0567C31.4059 82.0307 31.3845 82.0084 31.3592 81.9913C31.331 81.9843 31.3015 81.9843 31.2733 81.9913C31.1924 81.9851 31.111 81.9851 31.0301 81.9913H30.6866L27.9818 81.9266L23.1662 81.7398L21.9569 81.6249C21.8788 81.6156 21.8001 81.6353 21.7355 81.6803C21.6709 81.7253 21.6249 81.7925 21.6063 81.8692C21.6063 81.9769 21.6564 82.0344 21.2127 82.0272C20.7691 82.0201 20.168 82.2643 19.617 82.0775C19.2736 81.9554 19.3237 81.4596 19.4811 81.1004C19.7347 80.5022 20.1909 80.0135 20.7691 79.7209C21.0554 79.5761 21.3659 79.486 21.685 79.455C21.8995 79.4437 22.1145 79.4437 22.329 79.455C23.4452 79.5053 24.5615 79.5341 25.6777 79.6562C26.608 79.7568 27.5382 79.7568 28.4612 79.7999C29.3843 79.843 30.1857 79.8646 31.0444 79.9508H31.2662C31.3709 79.9406 31.4763 79.9406 31.581 79.9508C31.7973 79.9825 32.0074 80.0479 32.2036 80.1448C32.4952 80.2833 32.7536 80.4833 32.961 80.7314C33.1685 80.9794 33.3202 81.2695 33.4057 81.5818C33.4454 81.778 33.4646 81.9779 33.4629 82.1781C33.4629 82.4655 33.4629 82.7601 33.4629 83.0475C33.4503 83.2883 33.424 83.5282 33.3842 83.766C33.2041 85.1973 33.2041 86.6456 33.3842 88.0769C33.4047 88.316 33.4047 88.5563 33.3842 88.7954C33.329 89.2715 33.1074 89.7125 32.7589 90.04C32.4104 90.3676 31.9576 90.5605 31.4809 90.5844L28.8476 90.5413C26.9371 90.5413 25.0194 90.491 23.1232 90.5844H22.1143C21.623 90.6021 21.1406 90.4499 20.7476 90.1533C20.3422 89.8448 20.0543 89.4061 19.9319 88.9104C19.9082 88.7869 19.8914 88.6621 19.8818 88.5367V88.2565L19.846 87.7536C19.6886 86.1657 19.6814 84.5779 19.6671 82.99C19.6582 82.7599 19.7356 82.5348 19.884 82.3591C20.0323 82.1835 20.241 82.0702 20.4685 82.0416C21.0195 81.9195 21.3201 82.0416 21.3272 82.4511C21.2413 83.1912 21.2413 83.7803 21.2413 84.6497Z" fill="#070C13"/>
<path d="M22.6726 101.9L22.7943 104.278C22.7849 104.623 22.8137 104.968 22.8801 105.306C22.914 105.382 22.9643 105.45 23.0274 105.505C23.0905 105.56 23.1648 105.6 23.2451 105.622C23.3162 105.634 23.3886 105.634 23.4597 105.622H24.0107L25.1055 105.565C25.821 105.565 26.5366 105.514 27.2951 105.529C28.7977 105.529 30.2932 105.406 31.7959 105.428L33.227 105.478C33.4488 105.478 33.7422 105.478 33.9068 105.478C33.9599 105.478 34.0109 105.457 34.0499 105.421C34.0842 105.387 34.1074 105.343 34.1164 105.296C34.1253 105.248 34.1196 105.199 34.0999 105.155C34.0496 104.98 34.009 104.803 33.9783 104.623C33.9282 104.379 33.8781 104.128 33.8424 103.905L33.4631 101.548L33.2842 100.399L33.1912 99.8239L33.1411 99.5365V99.3999V99.3281C33.1328 99.2985 33.1183 99.2709 33.0986 99.2474C33.0789 99.2238 33.0543 99.2048 33.0266 99.1916H32.9837C32.9386 99.1848 32.8928 99.1848 32.8477 99.1916H32.1751L29.4632 99.1269L24.6404 98.9401L23.3882 98.8683C23.3101 98.859 23.2314 98.8787 23.1668 98.9237C23.1022 98.9687 23.0562 99.0359 23.0376 99.1125C23.0376 99.2203 23.0876 99.2778 22.644 99.2706C22.2004 99.2634 21.5993 99.5077 21.0483 99.3209C20.7049 99.1988 20.755 98.703 20.9124 98.3438C21.1659 97.7456 21.6222 97.2569 22.2004 96.9643C22.4888 96.8185 22.8019 96.7283 23.1234 96.6984C23.3379 96.6871 23.5529 96.6871 23.7674 96.6984C24.8837 96.7487 25.9999 96.7775 27.1162 96.8996C28.0464 97.0002 28.9766 97.0002 29.8997 97.0433C30.8227 97.0864 31.6313 97.108 32.49 97.1942C32.6354 97.2016 32.781 97.2016 32.9264 97.1942C33.1425 97.202 33.3566 97.2383 33.5633 97.302C33.9822 97.4291 34.3536 97.6793 34.6295 98.0204C34.7722 98.1869 34.8859 98.3763 34.9658 98.5809C35.0303 98.7654 35.0782 98.9553 35.1089 99.1485C35.159 99.4359 35.1947 99.7233 35.2234 100.011C35.2514 100.249 35.2657 100.489 35.2663 100.729C35.2543 101.454 35.3264 102.177 35.481 102.885C35.5525 103.237 35.6312 103.603 35.7171 103.934L35.8459 104.458L35.9031 104.724C35.9323 104.844 35.9491 104.967 35.9532 105.09C35.9639 105.407 35.9009 105.722 35.7692 106.01C35.6375 106.298 35.4409 106.552 35.1947 106.75C34.9453 106.948 34.654 107.086 34.3432 107.152C34.1909 107.188 34.0344 107.203 33.8781 107.196H33.5561C32.6975 107.196 31.8388 107.138 30.973 107.138C29.0553 107.138 27.1377 107.088 25.2486 107.181H24.2325H23.4311C23.3121 107.191 23.1924 107.191 23.0733 107.181C22.5746 107.105 22.116 106.862 21.7719 106.492C21.4277 106.122 21.2182 105.646 21.1771 105.141C21.0197 103.546 21.0126 101.965 20.9982 100.377C20.9891 100.146 21.0663 99.9201 21.2145 99.7433C21.3628 99.5666 21.5715 99.4518 21.7997 99.4215C22.3506 99.2993 22.6512 99.4215 22.6583 99.831C22.6726 100.435 22.6726 101.024 22.6726 101.9Z" fill="#070C13"/>
<path d="M43.7168 51.4159C43.7168 51.1429 43.6524 51.1069 43.5808 51.2434C43.5645 51.2782 43.5367 51.3061 43.5021 51.3225C43.3075 51.4031 43.0945 51.428 42.8867 51.3943C42.6649 51.3943 42.4359 51.3512 42.1712 51.3943C41.8782 51.3728 41.584 51.3728 41.2911 51.3943C41.1694 51.3943 41.0478 51.3297 40.9261 51.4806C40.9261 51.3584 40.8546 51.3943 40.8116 51.3871H40.4825C40.3752 51.3871 40.2607 51.4877 40.1676 51.3871C40.0746 51.2866 39.953 51.5524 39.8528 51.3512C39.6095 51.3943 39.3734 51.3512 39.1373 51.4015C38.9011 51.4518 38.6578 51.3584 38.4217 51.4015C38.1856 51.4446 38.1283 51.4015 37.9852 51.4015C37.7984 51.4384 37.6097 51.4648 37.4199 51.4806C37.1035 51.5377 36.7826 51.5666 36.4611 51.5668C36.1963 51.5668 35.9316 51.6242 35.6597 51.6099C35.5179 51.6141 35.3768 51.5896 35.2447 51.538C35.1874 51.538 35.1731 51.5955 35.1731 51.7608V51.8398C35.1731 52.975 35.3234 53.4708 35.6382 53.3343C35.8716 53.2738 36.1137 53.2543 36.3538 53.2768C36.4893 53.2625 36.626 53.2625 36.7616 53.2768C36.962 53.2768 37.1623 53.1762 37.3698 53.2768C37.4138 53.3111 37.468 53.3298 37.5237 53.3298C37.5794 53.3298 37.6336 53.3111 37.6775 53.2768C37.7094 53.2465 37.7491 53.2258 37.7921 53.2169C37.835 53.208 37.8796 53.2113 37.9208 53.2265C38.2402 53.2444 38.5603 53.2444 38.8797 53.2265C39.0943 53.2265 39.309 53.1546 39.5236 53.3127C39.5389 53.3215 39.5562 53.3262 39.5737 53.3262C39.5913 53.3262 39.6086 53.3215 39.6238 53.3127C39.7596 53.3233 39.8959 53.3233 40.0317 53.3127C40.3465 53.2552 40.6614 53.4564 40.9834 53.3127C41.105 53.2624 41.2338 53.3127 41.3626 53.3127C41.4914 53.3127 41.4413 53.4779 41.4914 53.4277C41.5415 53.3774 41.6631 53.4277 41.749 53.4277C41.9303 53.4268 42.1109 53.4509 42.2857 53.4995C42.4502 53.4995 42.6077 53.4995 42.7651 53.4995C43.0622 53.5636 43.3695 53.5636 43.6667 53.4995C43.7096 53.4995 43.7311 53.4277 43.7454 53.2768C43.8009 52.6572 43.7913 52.0335 43.7168 51.4159Z" fill="#070C13"/>
<path d="M43.71 45.7499C43.71 45.4768 43.6456 45.4409 43.5741 45.5774C43.5578 45.6122 43.5299 45.6401 43.4953 45.6565C43.3008 45.7371 43.0878 45.762 42.88 45.7283C42.6582 45.7283 42.4292 45.6852 42.1644 45.7283C41.8714 45.7068 41.5773 45.7068 41.2843 45.7283C41.1627 45.7283 41.041 45.6637 40.9194 45.8145C40.9194 45.6924 40.8478 45.7283 40.8049 45.7211H40.4757C40.3684 45.7211 40.2539 45.8217 40.1609 45.7211C40.0679 45.6205 39.9462 45.8864 39.846 45.6852C39.6028 45.7283 39.3666 45.6852 39.1305 45.7355C38.8944 45.7858 38.6511 45.6924 38.4149 45.7355C38.1788 45.7786 38.1216 45.7355 37.9785 45.7355C37.7916 45.7724 37.6029 45.7988 37.4132 45.8145C37.0967 45.8717 36.7759 45.9006 36.4543 45.9008C36.1896 45.9008 35.9248 45.9582 35.6529 45.9439C35.5112 45.9481 35.3701 45.9236 35.2379 45.872C35.1807 45.872 35.1664 45.9295 35.1664 46.0947V46.1738C35.1664 47.309 35.3166 47.8047 35.6315 47.6682C35.8649 47.6078 36.107 47.5883 36.347 47.6108C36.4826 47.5965 36.6193 47.5965 36.7549 47.6108C36.9552 47.6108 37.1556 47.5102 37.3631 47.6108C37.4071 47.6451 37.4612 47.6638 37.5169 47.6638C37.5727 47.6638 37.6268 47.6451 37.6708 47.6108C37.7027 47.5805 37.7423 47.5598 37.7853 47.5509C37.8283 47.542 37.8729 47.5453 37.9141 47.5605C38.2334 47.5784 38.5535 47.5784 38.8729 47.5605C39.0876 47.5605 39.3022 47.4886 39.5169 47.6467C39.5321 47.6555 39.5494 47.6602 39.567 47.6602C39.5846 47.6602 39.6018 47.6555 39.6171 47.6467C39.7528 47.6573 39.8892 47.6573 40.0249 47.6467C40.3398 47.5892 40.6546 47.7904 40.9766 47.6467C41.0983 47.5964 41.2271 47.6467 41.3559 47.6467C41.4847 47.6467 41.4346 47.8119 41.4847 47.7616C41.5347 47.7113 41.6564 47.7616 41.7422 47.7616C41.9236 47.7607 42.1042 47.7849 42.2789 47.8335C42.4435 47.8335 42.6009 47.8335 42.7583 47.8335C43.0555 47.8976 43.3628 47.8976 43.6599 47.8335C43.7029 47.8335 43.7243 47.7616 43.7386 47.6108C43.7941 46.9912 43.7845 46.3674 43.71 45.7499Z" fill="#070C13"/>
<path d="M64.6832 67.9672C64.5758 67.6941 64.4542 67.6582 64.1966 67.7947C64.1143 67.8381 64.0244 67.8649 63.9318 67.8738C63.2194 67.9564 62.5015 67.9804 61.7852 67.9456C60.9981 67.9456 60.211 67.9025 59.4239 67.9456C58.4078 67.9456 57.3917 67.8809 56.3685 67.9456C55.9539 67.9093 55.5362 67.9384 55.1306 68.0318C55.0232 67.9097 54.873 67.9456 54.7299 67.9384H53.5778C53.217 67.9887 52.851 67.9887 52.4902 67.9384C52.111 67.8235 51.7746 68.1037 51.3954 67.9025C50.5725 67.9456 49.7425 67.9025 48.9196 67.9528C48.0967 68.0031 47.2524 67.9097 46.4223 67.9528C45.9215 67.9528 45.4206 67.9528 44.9268 67.9528C44.2685 68.0103 43.6174 67.9959 42.9591 68.0318C41.8643 68.0965 40.7552 68.1109 39.6532 68.118C38.7302 68.118 37.8143 68.1755 36.8912 68.1611C36.4132 68.1648 35.9354 68.1408 35.4601 68.0893C35.2741 68.0893 35.224 68.1468 35.224 68.312V68.3911C35.224 69.5263 35.7392 70.022 36.834 69.8855C37.6354 69.7921 38.444 69.8424 39.2454 69.828C39.7105 69.828 40.1827 69.7921 40.6765 69.828C41.3725 69.7921 42.0699 69.7921 42.7659 69.828C43.1153 69.8999 43.4755 69.8999 43.8249 69.828C44.1041 69.7648 44.3917 69.7478 44.6764 69.7777C45.7783 69.8568 46.8803 69.7346 47.9894 69.7777C48.7322 69.7381 49.4771 69.767 50.2147 69.864C50.3309 69.8819 50.4492 69.8819 50.5654 69.864C51.0376 69.864 51.5099 69.864 51.9965 69.864C53.0984 69.8065 54.1861 70.0077 55.288 69.864C55.7102 69.8137 56.161 69.864 56.5903 69.864C56.7835 69.864 56.8837 70.0292 57.0482 69.9789C57.3488 69.8711 57.6493 69.9789 57.9498 69.9789C58.5652 69.9789 59.1806 70.0292 59.796 70.0508C60.4113 70.0723 60.9194 70.0508 61.4632 70.0508C62.4973 70.1154 63.5345 70.1154 64.5687 70.0508C64.6346 70.0525 64.6992 70.0312 64.7513 69.9906C64.8035 69.95 64.8401 69.8926 64.8549 69.828C65.0181 69.2068 64.9572 68.5477 64.6832 67.9672Z" fill="#070C13"/>
<path d="M49.9353 63.6002C49.8852 63.3272 49.828 63.2913 49.692 63.4278C49.6582 63.4668 49.6132 63.4944 49.5632 63.5068C49.2164 63.5879 48.8587 63.6121 48.5042 63.5787C48.1106 63.5787 47.7099 63.5355 47.3164 63.5787C46.8083 63.5787 46.3003 63.514 45.7923 63.5787C45.5847 63.5787 45.3772 63.514 45.1697 63.6649C45.1125 63.5427 45.0409 63.5787 44.9694 63.5715H44.4041C44.218 63.5715 44.0248 63.6721 43.8603 63.5715C43.6957 63.4709 43.4882 63.7367 43.3093 63.5355C42.8943 63.5787 42.4793 63.5355 42.0714 63.5858C41.6635 63.6361 41.2414 63.5427 40.8192 63.5858C40.5759 63.5858 40.3255 63.5858 40.1036 63.5858C39.8818 63.5858 39.4453 63.629 39.1233 63.6649C38.5742 63.7223 38.0225 63.751 37.4704 63.7511C37.0053 63.7511 36.5474 63.8086 36.0823 63.7942C35.8418 63.7986 35.6016 63.7744 35.3667 63.7224C35.2737 63.7224 35.2451 63.7798 35.2451 63.9451V64.0241C35.2451 65.1593 35.5027 65.6551 36.0536 65.5186C36.4515 65.46 36.8541 65.4408 37.2558 65.4611C37.494 65.4461 37.733 65.4461 37.9713 65.4611C38.3186 65.4252 38.6687 65.4252 39.016 65.4611C39.186 65.5291 39.3755 65.5291 39.5455 65.4611C39.6771 65.3989 39.8252 65.3813 39.9677 65.4108C40.5258 65.4898 41.0768 65.3677 41.6278 65.4108C41.9996 65.3712 42.3755 65.4004 42.7369 65.497C42.7952 65.5148 42.8574 65.5148 42.9157 65.497C43.1519 65.497 43.388 65.497 43.6313 65.497C44.179 65.5401 44.7293 65.5401 45.2771 65.497C45.4937 65.4791 45.7115 65.4791 45.9282 65.497C46.0212 65.497 46.0713 65.6623 46.15 65.612C46.2287 65.5617 46.4506 65.612 46.608 65.612C46.9171 65.6109 47.2258 65.6349 47.531 65.6838C47.8101 65.6838 48.0892 65.6838 48.3611 65.6838C48.8767 65.7485 49.3982 65.7485 49.9138 65.6838C49.9854 65.6838 50.0355 65.612 50.0569 65.4611C50.1323 64.8386 50.091 64.2075 49.9353 63.6002Z" fill="#070C13"/>
<path d="M68.9408 80.1588C68.8263 79.8858 68.6832 79.8499 68.3898 79.9864C68.2947 80.0293 68.1931 80.056 68.0893 80.0654C67.281 80.1468 66.468 80.1708 65.6564 80.1372C64.7548 80.1372 63.8532 80.0941 62.9516 80.1372C61.7853 80.1372 60.6189 80.0726 59.4526 80.1372C58.9739 80.0999 58.4923 80.1289 58.0215 80.2235C57.8927 80.1013 57.721 80.1373 57.5635 80.1301H56.2398C55.8263 80.1804 55.4082 80.1804 54.9947 80.1301C54.5511 80.0151 54.1432 80.2953 53.7353 80.0941C52.7908 80.1373 51.8463 80.0941 50.8731 80.1444C49.9 80.1947 48.9698 80.1013 48.0109 80.1444C47.4385 80.1444 46.8661 80.1444 46.2936 80.1444C45.5781 80.2019 44.7981 80.1875 44.0468 80.2235C42.7874 80.2881 41.5281 80.3025 40.2615 80.3097C39.2097 80.3097 38.1578 80.3672 37.0988 80.3528C36.5422 80.3577 35.9857 80.3337 35.4316 80.281C35.2241 80.281 35.1597 80.3384 35.1597 80.5037V80.5827C35.1597 81.7179 35.7464 82.2137 37.0058 82.0772C37.9217 81.9838 38.8448 82.0341 39.7607 82.0197C40.2902 82.0197 40.834 81.9838 41.3706 82.0197C42.1649 82.0197 42.9592 81.9191 43.7606 82.0197C44.1629 82.0915 44.5747 82.0915 44.977 82.0197C45.2949 81.9565 45.6203 81.9395 45.943 81.9694C47.2095 82.0484 48.4689 81.9263 49.7354 81.9694C50.5855 81.9298 51.4373 81.9586 52.2828 82.0556C52.4181 82.0737 52.5553 82.0737 52.6906 82.0556C53.2273 82.0556 53.764 82.0556 54.3006 82.0556C55.56 81.9981 56.805 82.1993 58.0716 82.0556C58.551 82.0053 59.0662 82.0556 59.5599 82.0556C59.7746 82.0556 59.8891 82.2209 60.0751 82.1706C60.4218 82.1239 60.7731 82.1239 61.1198 82.1706C61.8354 82.1706 62.5509 82.2209 63.2665 82.2424C63.982 82.264 64.5473 82.2424 65.177 82.2424C66.3687 82.3081 67.563 82.3081 68.7547 82.2424C68.8265 82.2476 68.8979 82.2284 68.9575 82.188C69.0172 82.1477 69.0617 82.0884 69.0839 82.0197C69.1879 81.7161 69.2289 81.3944 69.2042 81.0744C69.1796 80.7543 69.09 80.4427 68.9408 80.1588Z" fill="#070C13"/>
<path d="M52.0678 86.6251C52.0105 86.3521 51.939 86.3162 51.7887 86.4527C51.748 86.494 51.6955 86.5217 51.6385 86.5317C51.2384 86.613 50.8289 86.6372 50.422 86.6036C49.9712 86.6036 49.5204 86.5604 49.0696 86.6036C48.49 86.6036 47.9104 86.5389 47.3237 86.6036C47.0876 86.6036 46.8443 86.5389 46.6081 86.6898C46.5437 86.5676 46.4579 86.6036 46.372 86.5964H45.7137C45.5062 86.5964 45.2844 86.697 45.0912 86.5964C44.898 86.4958 44.669 86.7616 44.4687 86.5604C43.9964 86.6036 43.517 86.5605 43.0376 86.6107C42.5581 86.661 42.0859 86.5676 41.6065 86.6107C41.3202 86.6107 41.034 86.6107 40.7478 86.6107C40.4616 86.6107 40.0322 86.6539 39.6244 86.6898C38.9947 86.7544 38.365 86.7688 37.7353 86.776C37.1057 86.7832 36.6763 86.8335 36.154 86.8191C35.8732 86.8238 35.5927 86.7997 35.3168 86.7473C35.2094 86.7473 35.1808 86.8047 35.1808 86.97V87.049C35.1808 88.1842 35.4742 88.68 36.1039 88.5435C36.5594 88.4849 37.019 88.4657 37.4777 88.486C37.7471 88.4716 38.017 88.4716 38.2863 88.486C38.6838 88.4501 39.0838 88.4501 39.4813 88.486C39.6777 88.558 39.8931 88.558 40.0895 88.486C40.2436 88.423 40.4124 88.4056 40.5761 88.4357C41.2058 88.5147 41.8354 88.3926 42.4723 88.4357C42.8987 88.3963 43.3287 88.4254 43.7459 88.5219C43.8115 88.54 43.8807 88.54 43.9463 88.5219C44.2111 88.5219 44.483 88.5219 44.7549 88.486C45.3814 88.5291 46.0102 88.5291 46.6368 88.486C46.875 88.4694 47.1141 88.4694 47.3523 88.486C47.4597 88.486 47.5169 88.6512 47.6099 88.601C47.7029 88.5507 47.9534 88.6369 48.1323 88.601C48.4841 88.5998 48.8357 88.6238 49.1841 88.6728C49.5061 88.6728 49.8281 88.6369 50.143 88.6728C50.7327 88.7375 51.3278 88.7375 51.9175 88.6728C52.0034 88.6728 52.0535 88.601 52.0821 88.4501C52.2022 87.8472 52.1973 87.226 52.0678 86.6251Z" fill="#070C13"/>
<path d="M68.9621 97.4027C68.8547 97.1297 68.7259 97.0938 68.454 97.2303C68.369 97.273 68.2768 97.2998 68.1821 97.3093C67.4409 97.3906 66.6945 97.4147 65.9496 97.3811C65.1267 97.3811 64.3038 97.338 63.4738 97.3811C62.4076 97.3811 61.3272 97.3165 60.2753 97.3811C59.8393 97.3448 59.4004 97.3739 58.973 97.4674C58.8514 97.3452 58.6939 97.3811 58.5508 97.374H57.3272C56.9497 97.4246 56.5671 97.4246 56.1895 97.374C55.7888 97.259 55.4096 97.5392 55.0375 97.338C54.1717 97.3811 53.3059 97.338 52.44 97.3883C51.5742 97.4386 50.6941 97.3452 49.8211 97.3883C49.2988 97.3883 48.7764 97.3883 48.2541 97.3883C47.5385 97.4458 46.8874 97.4314 46.2004 97.4674C45.0413 97.532 43.8892 97.5464 42.73 97.5536C41.764 97.5536 40.798 97.6111 39.8321 97.5967C39.3231 97.6014 38.8142 97.5774 38.3079 97.5248C38.1147 97.5248 38.0575 97.5823 38.0575 97.7476V97.8266C38.0575 98.9618 38.5942 99.4576 39.7462 99.3211C40.5834 99.2277 41.4277 99.278 42.2721 99.2636C42.7587 99.2636 43.2524 99.2636 43.7461 99.2636C44.4617 99.2636 45.1772 99.163 45.9357 99.2636C46.3019 99.3362 46.6786 99.3362 47.0448 99.2636C47.3361 99.2005 47.6355 99.1836 47.9321 99.2133C49.0913 99.2923 50.2505 99.1702 51.4096 99.2133C52.1858 99.1737 52.964 99.2025 53.7352 99.2995C53.8586 99.3174 53.9839 99.3174 54.1073 99.2995C54.601 99.2995 55.0947 99.2995 55.5885 99.2636C56.7405 99.2061 57.8854 99.4073 59.0374 99.2636C59.4739 99.2133 59.9533 99.2636 60.4041 99.2636C60.5973 99.2636 60.7046 99.4288 60.8764 99.3785C61.1984 99.2708 61.5061 99.4145 61.828 99.3785C62.472 99.3785 63.116 99.4288 63.7672 99.4504C64.4183 99.4719 64.9335 99.4145 65.5131 99.4504C66.5974 99.5151 67.6846 99.5151 68.7689 99.4504C68.8357 99.4524 68.9013 99.4314 68.9546 99.3909C69.008 99.3504 69.046 99.2928 69.0623 99.2277C69.2538 98.6277 69.2182 97.9779 68.9621 97.4027Z" fill="#070C13"/>
<path d="M53.5136 103.869C53.4563 103.596 53.3919 103.56 53.256 103.697C53.2206 103.737 53.1728 103.765 53.12 103.776C52.7538 103.857 52.3773 103.881 52.0038 103.847C51.5959 103.847 51.1809 103.804 50.7659 103.847C50.2364 103.847 49.6997 103.783 49.163 103.847C48.9484 103.847 48.7266 103.783 48.5119 103.934C48.4546 103.812 48.3759 103.847 48.3044 103.84H47.7176C47.5244 103.84 47.3169 103.941 47.1452 103.84C46.9735 103.74 46.7516 104.006 46.5728 103.804C46.1363 103.847 45.6998 103.804 45.2705 103.855C44.8411 103.905 44.3975 103.812 43.961 103.855C43.7034 103.855 43.4386 103.855 43.181 103.855C42.9234 103.855 42.4655 103.898 42.1507 103.934C41.5711 103.998 40.9915 104.013 40.419 104.02C39.8466 104.027 39.453 104.077 38.9879 104.063C38.7309 104.068 38.4741 104.044 38.2223 103.991C38.1293 103.991 38.1006 104.049 38.1006 104.214V104.293C38.1006 105.428 38.3726 105.924 38.945 105.787C39.3621 105.729 39.7837 105.71 40.2044 105.73C40.4427 105.716 40.6816 105.716 40.9199 105.73C41.284 105.694 41.6506 105.694 42.0147 105.73C42.1938 105.802 42.3937 105.802 42.5728 105.73C42.7116 105.666 42.867 105.648 43.0165 105.68C43.5961 105.759 44.1757 105.636 44.7553 105.68C45.1461 105.64 45.5407 105.669 45.9216 105.766C45.9823 105.784 46.0469 105.784 46.1076 105.766C46.3509 105.766 46.6014 105.766 46.8232 105.73C47.3972 105.773 47.9736 105.773 48.5477 105.73C48.7858 105.71 49.0251 105.71 49.2632 105.73C49.3634 105.73 49.4206 105.895 49.5065 105.845C49.5924 105.795 49.8213 105.881 49.9788 105.845C50.3021 105.844 50.6251 105.868 50.9448 105.917C51.2381 105.917 51.5315 105.881 51.8177 105.917C52.3596 105.981 52.9073 105.981 53.4492 105.917C53.5279 105.917 53.5708 105.845 53.5994 105.694C53.682 105.085 53.6529 104.467 53.5136 103.869Z" fill="#070C13"/>
<path fill-rule="evenodd" clip-rule="evenodd" d="M120.551 33.134C120.862 35.4258 120.634 37.5845 119.683 39.262L117.484 38.0157C118.068 36.9848 118.313 35.4421 118.046 33.474C117.781 31.5233 117.025 29.2596 115.745 26.8948C113.188 22.1683 108.603 17.1539 102.001 13.569C89.2673 6.65396 68.795 4.95477 40.64 21.5093L48.6947 23.4099C49.3741 23.5702 49.7948 24.2509 49.6345 24.9302C49.4742 25.6096 48.7936 26.0304 48.1142 25.8701L37.0432 23.2578C36.3638 23.0975 35.943 22.4169 36.1033 21.7375L38.7156 10.6665C38.8759 9.98715 39.5566 9.56636 40.236 9.72666C40.9153 9.88697 41.3361 10.5676 41.1758 11.247L39.2539 19.3921C68.016 2.44842 89.4805 3.89325 103.207 11.3476C110.238 15.1655 115.177 20.5331 117.968 25.6919C119.363 28.2699 120.237 30.8247 120.551 33.134Z" fill="#070C13"/>
<path d="M20.7225 20.1667C23.085 20.1667 25.0003 18.2515 25.0003 15.8889C25.0003 13.5264 23.085 11.6111 20.7225 11.6111C18.3599 11.6111 16.4447 13.5264 16.4447 15.8889C16.4447 18.2515 18.3599 20.1667 20.7225 20.1667Z" stroke="#070C13" stroke-width="3"/>
<path fill-rule="evenodd" clip-rule="evenodd" d="M54.2116 53.8172C51.7388 48.4808 51.0549 43.2074 52.7699 38.8943L55.1188 39.8284C53.7551 43.258 54.195 47.7692 56.5051 52.7544C58.8054 57.7184 62.9008 63.0082 68.5716 67.861C79.3561 77.0899 95.7222 84.6376 115.838 85.3483L110.007 79.5172C109.514 79.0236 109.514 78.2234 110.007 77.7298C110.501 77.2362 111.301 77.2362 111.795 77.7298L119.838 85.7732C120.332 86.2668 120.332 87.0671 119.838 87.5606L111.795 95.6039C111.301 96.0975 110.501 96.0975 110.007 95.6039C109.514 95.1103 109.514 94.31 110.007 93.8165L115.943 87.8812C95.1548 87.1918 78.1729 79.4043 66.9281 69.7816C61.0411 64.7438 56.6943 59.1749 54.2116 53.8172Z" fill="#070C13"/>
</svg>
