<svg width="163" height="50" viewBox="0 0 163 50" fill="none" xmlns="http://www.w3.org/2000/svg">
<rect width="162.445" height="50" fill="white"/>
<path d="M7.60764 14.6044C3.52903 14.6044 0.222656 17.9107 0.222656 21.9894C0.222656 26.068 3.52903 29.3743 7.60764 29.3743H13.5435L6.97235 22.6616H6.97503C6.79618 22.4933 6.68452 22.2544 6.68452 21.9894C6.68452 21.4795 7.09781 21.0662 7.60764 21.0662H19.8142L22.122 14.6044H7.60764Z" fill="#0062FF"/>
<path d="M9.51685 22.9125L16.1057 29.6433C16.2736 29.8105 16.3773 30.0418 16.3773 30.2975C16.3773 30.8073 15.964 31.2206 15.4542 31.2206H2.63853L0.330722 37.6825H15.4542C19.5328 37.6825 22.8392 34.3761 22.8392 30.2975C22.8392 26.2188 19.5328 22.9125 15.4542 22.9125H9.51685Z" fill="#0062FF"/>
<path d="M45.4132 25.3244C44.3666 22.3302 42.6464 20.219 40.2028 18.965C37.7336 17.761 35.1285 17.5582 32.412 18.4323C29.5822 19.3428 27.5087 21.0508 26.1914 23.5564C24.8364 26.0742 24.6701 28.7924 25.6049 31.6976C26.5517 34.6406 28.2719 36.7518 30.8409 38.0071C33.3721 39.2745 36.0405 39.4152 38.8325 38.5169C41.0208 37.8128 42.7873 36.7032 44.094 35.2002C45.4008 33.6972 46.1226 31.7995 46.3214 29.5705L40.6117 30.2001C40.255 31.9387 39.1651 33.0804 37.2786 33.6874C36.2599 34.0152 35.295 33.9926 34.3596 33.5441C33.3986 33.1454 32.6168 32.3977 32.0262 31.3387L45.9109 26.8713L45.4132 25.3244ZM33.9901 23.3372C34.8956 23.0459 35.7729 23.055 36.6099 23.327C37.459 23.6367 38.1424 24.2079 38.7599 25.0918L30.9497 27.6047C30.9225 26.6142 31.2079 25.6896 31.7926 24.9186C32.3772 24.1476 33.0846 23.6286 33.9901 23.3372Z" fill="black"/>
<path d="M120.182 25.3244C119.135 22.3302 117.415 20.219 114.971 18.965C112.502 17.761 109.897 17.5582 107.181 18.4323C104.351 19.3428 102.277 21.0508 100.96 23.5564C99.6051 26.0742 99.4388 28.7924 100.374 31.6976C101.32 34.6406 103.041 36.7518 105.61 38.0071C108.141 39.2745 110.809 39.4152 113.601 38.5169C115.79 37.8128 117.556 36.7032 118.863 35.2002C120.169 33.6972 120.891 31.7995 121.09 29.5705L115.38 30.2001C115.024 31.9387 113.934 33.0804 112.047 33.6874C111.029 34.0152 110.064 33.9926 109.128 33.5441C108.167 33.1454 107.385 32.3977 106.795 31.3387L120.68 26.8713L120.182 25.3244ZM108.759 23.3372C109.664 23.0459 110.542 23.055 111.379 23.327C112.228 23.6367 112.911 24.2079 113.529 25.0918L105.718 27.6047C105.691 26.6142 105.977 25.6896 106.561 24.9186C107.146 24.1476 107.853 23.6286 108.759 23.3372Z" fill="black"/>
<path d="M48.7961 15.1293V32.2138C48.7961 34.2749 49.3907 35.9395 50.659 37.2079C51.9273 38.4762 53.592 39.1103 55.653 39.1103C57.0799 39.1103 58.6256 38.714 60.3299 37.8817L59.3391 32.9273C58.2689 33.3236 57.5159 33.4822 57.0402 33.4822C56.4457 33.4822 55.9701 33.3236 55.653 33.0066C55.2963 32.6895 55.1378 32.2931 55.1378 31.7382V13.0981L48.7961 15.1293Z" fill="black"/>
<path d="M62.2524 10.8307V32.2219C62.2524 34.2829 62.847 35.9476 64.1153 37.2159C65.3836 38.4843 67.0483 39.1184 69.1093 39.1184C70.5362 39.1184 72.0819 38.7221 73.7862 37.8897L72.7954 32.9354C71.7252 33.3317 70.9722 33.4902 70.4965 33.4902C69.902 33.4902 69.4264 33.3317 69.1093 33.0146C68.7526 32.6975 68.5941 32.3012 68.5941 31.7463V8.79956L62.2524 10.8307Z" fill="black"/>
<path fill-rule="evenodd" clip-rule="evenodd" d="M75.8798 6.47821L82.2214 4.43506V20.2125C83.8068 18.7856 85.8678 18.0326 88.4044 18.0326C91.0996 18.0326 93.3588 19.0235 95.2613 21.0052C97.1638 22.987 98.115 25.5236 98.115 28.5755C98.115 31.667 97.1638 34.2037 95.2613 36.1854C93.3588 38.1672 91.0996 39.1184 88.4044 39.1184C85.8678 39.1184 83.8068 38.405 82.2214 36.9385V38.5239H75.8798V6.47821ZM83.6482 32.3012C84.5995 33.2524 85.7489 33.7281 87.0965 33.7281C88.4837 33.7281 89.6331 33.2524 90.5447 32.3012C91.4167 31.3499 91.8923 30.1213 91.8923 28.5755C91.8923 27.0694 91.4167 25.8407 90.5447 24.8894C89.6331 23.9382 88.4837 23.4229 87.0965 23.4229C85.7489 23.4229 84.5995 23.9382 83.6482 24.8894C82.697 25.8803 82.2214 27.109 82.2214 28.5755C82.2214 30.0816 82.697 31.3499 83.6482 32.3012Z" fill="black"/>
<path d="M129.018 22.4146C130.643 19.7194 132.941 18.3322 135.874 18.3322C136.39 18.3322 136.865 18.4114 137.301 18.4907L137.024 24.8323H135.874C131.277 24.8323 129.018 27.3293 129.018 32.2837V39.5506L122.676 41.5958V18.6096H129.018V22.4146Z" fill="black"/>
<path d="M155.405 18.5797H162.223L150.577 45.5651H143.76L147.082 37.8423L138.838 18.5797H145.655L150.372 30.1928L155.405 18.5797Z" fill="black"/>
</svg>
