<svg width="79" height="85" viewBox="0 0 79 85" fill="none" xmlns="http://www.w3.org/2000/svg">
<path d="M55.1742 60.1113C54.7103 60.4427 54.165 60.6196 53.607 60.6197H25.3927C20.815 60.6206 16.294 59.5375 12.1547 57.4482C8.01533 55.359 4.3605 52.3155 1.45291 48.5365C0.496449 51.4314 -0.00012207 54.5012 -0.00012207 57.6042V75.6973C-0.00012207 80.2689 4.18406 84.7439 8.46416 84.7439H53.607C67.6069 84.7439 78.9999 72.5672 78.9999 57.6042C78.9999 42.6382 67.6069 30.4645 53.607 30.4645H32.2037L55.6018 55.4722C55.9962 55.894 56.2649 56.4312 56.3737 57.0161C56.4825 57.601 56.4266 58.2072 56.2131 58.7581C55.9996 59.309 55.6381 59.78 55.1742 60.1113Z" fill="#4D5AAF"/>
<path d="M78.9999 27.449V9.35589C78.9999 4.78134 74.8129 0.309326 70.5356 0.309326H25.3927C11.39 0.309326 -0.00012207 12.486 -0.00012207 27.449C-0.00012207 42.412 11.39 54.5887 25.3927 54.5887H46.7961L23.398 29.581C23.0035 29.1593 22.7349 28.622 22.6261 28.0371C22.5173 27.4523 22.5731 26.846 22.7866 26.2951C23.0001 25.7442 23.3617 25.2733 23.8256 24.9419C24.2894 24.6105 24.8348 24.4336 25.3927 24.4335H53.607C58.1845 24.4325 62.7053 25.5152 66.8446 27.6039C70.9839 29.6926 74.6389 32.7354 77.5468 36.5137C78.5083 33.602 78.9997 30.5367 78.9999 27.449Z" fill="#4D5AAF"/>
</svg>
